<svg width="29" height="33" viewBox="0 0 29 33" fill="none" xmlns="http://www.w3.org/2000/svg">
<path d="M5.6261 32.9738C4.64156 32.9738 3.79843 32.6236 3.09672 31.923C2.39501 31.2225 2.04475 30.3794 2.04594 29.3937V6.12263C1.53876 6.12263 1.11331 5.95079 0.769619 5.60709C0.425923 5.26339 0.254672 4.83855 0.255866 4.33255C0.255866 3.82536 0.427713 3.39992 0.771409 3.05623C1.1151 2.71253 1.53995 2.54128 2.04594 2.54247H9.20626C9.20626 2.03528 9.37811 1.60984 9.72181 1.26615C10.0655 0.922451 10.4903 0.751201 10.9963 0.752394H18.1567C18.6638 0.752394 19.0893 0.924242 19.433 1.26794C19.7767 1.61163 19.9479 2.03648 19.9467 2.54247H27.1071C27.6142 2.54247 28.0397 2.71432 28.3834 3.05802C28.7271 3.40171 28.8983 3.82656 28.8971 4.33255C28.8971 4.83974 28.7253 5.26518 28.3816 5.60888C28.0379 5.95257 27.6131 6.12383 27.1071 6.12263V29.3937C27.1071 30.3782 26.7562 31.2213 26.0545 31.923C25.3528 32.6248 24.5102 32.975 23.5269 32.9738H5.6261ZM5.6261 6.12263V29.3937H23.5269V6.12263H5.6261ZM9.20626 24.0234C9.20626 24.5306 9.37811 24.9561 9.72181 25.2998C10.0655 25.6434 10.4903 25.8147 10.9963 25.8135C11.5035 25.8135 11.929 25.6423 12.2727 25.2998C12.6164 24.9573 12.7876 24.5318 12.7864 24.0234V11.4929C12.7864 10.9857 12.6146 10.5602 12.2709 10.2165C11.9272 9.87285 11.5023 9.7016 10.9963 9.70279C10.4892 9.70279 10.0637 9.87464 9.72001 10.2183C9.37632 10.562 9.20507 10.9869 9.20626 11.4929V24.0234ZM16.3666 24.0234C16.3666 24.5306 16.5384 24.9561 16.8821 25.2998C17.2258 25.6434 17.6507 25.8147 18.1567 25.8135C18.6638 25.8135 19.0893 25.6423 19.433 25.2998C19.7767 24.9573 19.9479 24.5318 19.9467 24.0234V11.4929C19.9467 10.9857 19.7749 10.5602 19.4312 10.2165C19.0875 9.87285 18.6627 9.7016 18.1567 9.70279C17.6495 9.70279 17.224 9.87464 16.8803 10.2183C16.5366 10.562 16.3654 10.9869 16.3666 11.4929V24.0234Z" fill="#B40000"/>
</svg>
