<svg width="246" height="135" viewBox="0 0 246 135" fill="none" xmlns="http://www.w3.org/2000/svg">
<path d="M48.667 42.7706C50.2828 42.7706 51.6865 43.5545 53.1744 43.5545C54.0089 43.5545 56.1445 43.8259 56.8108 44.4255C57.8337 45.3462 60.0569 45.2948 61.3835 45.536C62.8468 45.8021 64.3252 46.4027 65.7166 46.7119C67.3547 47.0759 68.5276 47.7661 70.224 47.8659C70.8261 47.9013 72.5814 48.7549 72.9676 49.2377C73.5989 50.0268 74.9292 50.0017 75.6242 50.6966C76.4239 51.4964 77.7589 52.2066 78.8468 52.5693" stroke="black" stroke-width="2.40773" stroke-linecap="round"/>
<path d="M168.21 53.3532C168.21 51.7629 169.546 51.355 170.257 50.2176C170.633 49.616 173.059 46.7666 173.501 46.6683C174.479 46.451 175.594 44.2119 176.092 43.4021C176.739 42.3521 178.086 40.4665 179.184 40.027" stroke="black" stroke-width="2.40773" stroke-linecap="round"/>
<path d="M132.152 55.7047C133.196 55.7047 134.217 54.8353 135.2 54.4418C135.832 54.1891 137.558 53.0419 138.031 52.5692C140.578 50.022 143.32 48.8769 146.349 47.0819C150.558 44.5878 154.892 44.3383 159.784 44.3383C161.066 44.3383 163.547 45.1534 164.487 45.9061C165.117 46.4098 165.803 46.7016 166.469 47.0819C166.755 47.2454 168.511 48.232 168.581 48.4755C169.617 52.1023 166.643 63.3962 166.643 59.6242" stroke="black" stroke-width="2.40773" stroke-linecap="round"/>
<path d="M143.126 77.2619C143.126 72.0853 145.158 65.5527 150.769 64.3059C153.357 63.7308 155.655 63.1518 158.412 63.1518C160.509 63.1518 163.611 62.5794 165.162 63.8486C165.599 64.2062 166.546 63.5548 166.643 64.3277C166.689 64.698 167.254 65.3997 167.623 65.4817C167.996 65.5646 169.423 67.034 169.691 67.4632C170.174 68.2362 171.269 68.4993 171.934 69.031C172.846 69.7607 172.652 70.5638 172.936 71.5569C173.481 73.4667 173.306 75.7333 173.306 77.8498C173.306 79.2403 173.381 84.0834 172.13 84.7088" stroke="black" stroke-width="2.40773" stroke-linecap="round"/>
<path d="M173.305 72.1666C173.586 70.7611 176.539 65.5035 178.204 65.1334C179.346 64.8797 180.28 63.9028 181.536 63.5438C182.861 63.1654 184.047 62.8174 185.455 62.4551C187.261 61.9909 191.064 61.2725 192.489 62.9341C193.631 64.2664 195.036 66.5341 196.43 67.4633" stroke="black" stroke-width="2.40773" stroke-linecap="round"/>
<path d="M177.617 81.1812C180.77 80.831 181.302 77.8313 183.671 76.4779C184.211 76.1693 184.238 75.3074 184.846 74.9754C185.224 74.7697 185.808 74.7973 186.24 74.6053C188.182 73.7421 190.251 72.4267 192.511 71.8616C195.306 71.163 197.943 71.6703 200.655 71.7745C202.908 71.8612 202.198 74.058 203.268 75.1279C204.219 76.0795 204.489 78.8944 204.248 80.2232C204.063 81.2399 202.9 84.1201 202.136 84.3386C201.49 84.5232 201.014 85.9729 200.35 86.3636C199.646 86.7777 199.367 87.6063 198.586 88.0403C197.339 88.733 196.206 89.9161 194.863 90.5879" stroke="black" stroke-width="2.40773" stroke-linecap="round"/>
<path d="M176.441 92.1558C180.165 92.1558 183.888 92.1558 187.612 92.1558C188.787 92.1558 189.963 92.1558 191.139 92.1558C192.421 92.1558 192.87 93.5621 193.709 93.7018C194.616 93.8531 195.114 94.6471 195.734 95.2043C196.779 96.1453 197.46 97.4601 198.303 98.5141C199.015 99.404 198.52 106.784 197.606 107.355C196.04 108.333 195.451 110.437 193.513 110.991C192.98 111.143 193.395 111.704 192.511 111.753C191.909 111.787 191.648 112.45 191.139 112.733C190.501 113.088 188.703 114.203 188.57 114.671C188.1 116.316 182.757 115.673 181.536 115.673C180.017 115.673 174.481 114.464 174.481 112.929" stroke="black" stroke-width="2.40773" stroke-linecap="round"/>
<path d="M156.452 100.779C152.026 105.45 150.965 111.359 150.965 117.632C150.965 121.176 153.185 128.999 157.628 128.999C159.23 128.999 162.765 130.455 163.986 129.478C165.509 128.26 166.749 126.52 168.123 124.992C169.567 123.388 170.954 120.184 170.954 118.024C170.954 116.875 171.635 112.197 172.522 111.753" stroke="black" stroke-width="2.40773" stroke-linecap="round"/>
<path d="M143.126 80.0054C145.807 80.0054 149.216 79.4079 151.749 80.5716C153.363 81.3135 154.931 82.2573 156.539 82.8361C157.623 83.2262 159.156 84.4139 160.11 85.1007C161.093 85.808 162.234 86.5712 163.115 87.4524" stroke="black" stroke-width="2.40773" stroke-linecap="round"/>
<path d="M140.382 81.1813C139.737 81.8259 137.402 83.0974 137.247 83.9249C137.186 84.2461 136.917 84.5023 136.659 84.7088C136.315 84.9837 136.678 85.7391 136.245 85.8628C135.251 86.1469 135.594 87.0552 135.2 87.8444C134.682 88.8794 133.624 90.0152 132.935 90.9799C132.182 92.0345 132.207 93.0577 131.454 93.8106C130.908 94.3571 130.583 96.5407 130.583 97.2511C130.583 98.5285 130.583 99.806 130.583 101.083C130.583 103.166 131.55 103.924 133.676 104.633C135.966 105.396 138.321 105.482 140.774 105.482C142.278 105.482 143.749 105.347 144.911 104.263C145.793 103.439 148.147 101.701 149.397 101.562C150.427 101.448 151.158 100.707 152.119 100.387C153.242 100.012 154.396 99.6929 155.581 99.2979C156.843 98.8772 160.371 98.5175 160.371 96.8591" stroke="black" stroke-width="2.40773" stroke-linecap="round"/>
<path d="M105.499 106.266C105.499 109.245 104.715 111.855 104.715 114.802C104.715 118.173 103.56 120.789 106.283 123.511C107.955 125.184 108.831 127.454 110.681 129.304C111.522 130.145 111.648 130.984 112.554 131.438C113.664 131.992 114.946 132.918 116.081 132.918C119.286 132.918 122.072 131.294 125.096 130.958C126.478 130.805 127.902 129.24 129.015 128.52C130.53 127.539 130.534 126.185 131.062 124.6C131.575 123.062 132.009 121.382 132.63 119.984C133.286 118.508 133.727 116.582 134.59 115.324C136.24 112.918 135.98 109.673 136.854 107.05" stroke="black" stroke-width="2.40773" stroke-linecap="round"/>
<path d="M107.067 71.7745C105.99 72.7945 104.717 73.2966 103.692 74.3222C102.796 75.2175 102.487 76.1653 101.732 77.0876C100.772 78.2609 99.9851 79.449 99.315 80.7893C97.824 83.7712 96.0923 85.4583 96.0923 89.0202C96.0923 90.5091 96.4842 92.0194 96.4842 93.3316C96.4842 94.9045 97.5805 95.8976 97.6601 97.251C97.7186 98.2457 99.0104 99.1364 99.2061 100.212C99.4665 101.645 100.056 102.795 100.425 104.088C101.046 106.261 107.556 106.803 108.635 104.916C109.01 104.258 110.086 104.509 110.202 103.522C110.252 103.097 111.328 102.649 111.683 102.259C112.479 101.383 113.997 100.537 115.123 99.8204C116.159 99.1611 118.002 97.7332 119.13 97.643C120.519 97.5318 121.819 95.9282 123.158 95.705C126.035 95.2256 127.37 92.046 129.8 90.5879" stroke="black" stroke-width="2.40773" stroke-linecap="round"/>
<path d="M108.635 42.3786C108.635 35.8169 109.78 30.8936 112.859 25.3507C113.519 24.1627 114.738 22.0714 115.995 21.5184C117.086 21.0384 117.578 18.6085 118.825 18.4699C119.734 18.3689 120.29 17.1397 121.264 16.815C122.234 16.4919 122.838 16.1942 123.746 15.7263C124.836 15.1652 126.731 15.0522 127.84 15.6392C129.79 16.6714 133.323 19.1355 133.741 21.0176C133.961 22.0059 136.561 22.8292 136.833 23.783C137.197 25.0582 139.321 25.4313 139.947 26.5266C140.394 27.3096 140.712 27.4662 141.34 28.0944C141.736 28.4899 141.572 29.1675 141.95 29.6404C142.898 30.8257 142.908 31.4037 143.518 32.7759C144.449 34.8703 144.302 38.7144 144.302 41.0068C144.302 42.052 144.207 44.0222 143.322 44.7303C143.087 44.9179 142.831 46.157 142.756 46.494C142.549 47.4269 142.29 47.1854 141.95 47.8658" stroke="black" stroke-width="2.40773" stroke-linecap="round"/>
<path d="M81.9827 45.9062C81.2505 47.2893 80.0526 48.1842 79.239 49.608C78.6998 50.5517 78.4551 52.5898 78.4551 53.7452C78.4551 55.8238 76.5425 58.6806 77.8672 60.8002C79.1943 62.9236 79.9476 64.8099 82.4617 65.8955C86.998 67.8543 91.5755 69.0311 96.5718 69.0311C98.6512 69.0311 101.277 68.5936 103.344 69.0528C104.782 69.3725 106.015 70.2069 107.459 70.2069" stroke="black" stroke-width="2.40773" stroke-linecap="round"/>
<path d="M80.4146 46.2981C81.4264 46.1716 81.6507 44.3685 82.1783 43.9464C83.4339 42.9419 85.5132 42.8794 87.0559 42.2045C89.4659 41.1501 93.8725 41.9867 96.4843 41.9867C97.8358 41.9867 99.7847 42.3493 101.013 41.7907C101.934 41.3723 104.822 41.3059 105.695 41.7907C106.76 42.3823 107.377 42.5143 108.33 43.4674C109.392 44.5299 110.122 44.8549 111.77 45.5142" stroke="black" stroke-width="2.40773" stroke-linecap="round"/>
<path d="M93.348 85.8847C92.6294 85.8847 91.9109 85.8847 91.1923 85.8847C90.2543 85.8847 90.3821 85.15 89.7334 84.7088C89.0825 84.2663 88.409 84.3169 87.6648 84.3169C86.742 84.3169 86.5802 83.71 85.7268 83.5548C83.3046 83.1144 79.809 83.1561 78.0621 84.7088C76.8466 85.7893 75.088 87.2765 73.4459 87.4525C72.2705 87.5784 71.5242 88.7529 70.4192 88.9985C69.2031 89.2687 67.2731 89.1742 66.282 90.0001C65.0858 90.9969 62.3395 91.0459 61.5133 92.6349C61.0158 93.5915 59.2024 94.68 58.3777 95.5962C56.9575 97.1743 55.8049 97.9166 55.1115 99.7988C54.5466 101.332 53.7615 102.233 53.7615 103.914C53.7615 105.584 53.7615 107.253 53.7615 108.922C53.7615 110.071 53.6906 112.386 54.6325 113.234C55.3052 113.839 56.6177 114.401 56.9188 115.455C56.9307 115.496 58.6409 117.207 58.6826 117.219C59.9369 117.577 61.0932 118.808 62.3843 118.808" stroke="black" stroke-width="2.40773" stroke-linecap="round"/>
<path d="M61.9932 120.376C66.0608 122.529 69.4332 122.336 74.0999 122.336C76.2352 122.336 77.9801 122.268 79.7178 123.337C81.4733 124.417 86.9575 123.511 88.8632 123.511C91.6556 123.511 93.4253 123.343 95.8747 121.944C97.2717 121.145 97.8402 119.368 99.0103 118.198C101.913 115.296 103.334 111.175 106.283 108.225" stroke="black" stroke-width="2.40773" stroke-linecap="round"/>
<path d="M177.617 38.4592C176.617 38.3852 175.133 38.0107 174.264 37.4576C173.466 36.95 172.74 35.8563 171.825 35.7156C170.61 35.5287 170.104 33.3405 169.386 32.5801C168.259 31.3864 168.371 30.2611 167.906 28.7477C167.43 27.2027 166.643 25.6392 166.643 23.9572C166.643 17.4939 174.389 15.4192 179.185 13.2876C180.305 12.7898 181.344 12.3542 182.495 11.894C183.235 11.598 184.206 12.104 184.868 11.5892C185.515 11.0863 185.819 11.023 186.632 11.023C187.801 11.023 188.992 10.9582 190.159 11.023C191.478 11.0963 192.748 12.1989 194.079 12.1989C195.569 12.1989 196.659 13.1156 197.998 13.6796C199.068 14.1301 200.504 13.7917 201.526 14.2457C203.981 15.3371 206.291 15.3344 208.973 15.3344" stroke="black" stroke-width="2.40773" stroke-linecap="round"/>
<path d="M179.185 40.027C179.605 40.9712 182.283 42.4986 183.192 43.1626C184.396 44.0428 185.386 44.7349 186.632 45.4272C187.87 46.115 188.631 46.9291 190.16 47.082C191.816 47.2477 193.382 47.474 195.059 47.474C199.581 47.474 202.785 43.6613 204.313 40.223C204.685 39.3862 205.837 38.8237 205.837 37.8713C205.837 36.8681 206.47 35.601 206.643 34.5616C206.812 33.5485 207.405 32.98 207.405 31.7962C207.405 30.4897 207.405 29.1832 207.405 27.8767C207.405 24.0807 208.973 20.5722 208.973 16.9022" stroke="black" stroke-width="2.40773" stroke-linecap="round"/>
<path d="M168.602 60.8003C169.951 58.9248 171.168 57.5889 172.739 56.0969C173.219 55.6404 174.913 54.7783 175.178 54.3549C175.766 53.4129 178.444 51.4564 179.576 51.3936C180.821 51.3244 181.643 50.4231 182.886 50.1306C184.377 49.7798 185.199 48.8105 186.544 48.3451C187.504 48.0127 190.107 47.9699 190.551 47.0822" stroke="black" stroke-width="2.40773" stroke-linecap="round"/>
<path d="M203.485 43.1627C206.061 43.1627 208.571 41.9868 211.128 41.9868C213.768 41.9868 215.779 41.2029 218.379 41.2029" stroke="black" stroke-width="2.40773" stroke-linecap="round"/>
<path d="M229.355 27.4848C227.262 27.4848 224.615 26.9816 222.866 28.0945C221.115 29.2087 219.985 31.6484 219.077 33.364C217.926 35.539 218.452 36.7017 219.556 38.6335C220.795 40.8019 222.926 40.2714 224.826 41.1158C226.919 42.0461 230.802 41.2029 233.1 41.2029C235.949 41.2029 237.194 36.9391 237.194 34.5398C237.194 32.3246 236.15 30.3666 233.862 29.8582C232.667 29.5927 232.652 31.0123 231.314 31.0123C230.212 31.0123 229.871 29.5067 228.963 29.0526" stroke="black" stroke-width="2.40773" stroke-linecap="round"/>
<path d="M169.778 65.1114C169.95 66.4833 175.968 62.5896 176.855 62.3678C179.115 61.8029 180.698 60.4003 182.93 59.9943C185.231 59.5761 187.342 57.7921 189.768 57.6644C191.334 57.582 193.456 57.2419 194.863 56.5757C196.899 55.6113 199.328 56.2217 201.374 55.3128C203.459 54.386 206.259 54.1369 208.581 54.1369C210.541 54.1369 212.5 54.1369 214.46 54.1369C215.481 54.1369 219.518 54.2122 219.947 53.353" stroke="black" stroke-width="2.40773" stroke-linecap="round"/>
<path d="M219.947 55.3128C221.055 55.4512 221.263 57.5086 221.733 57.6427C222.895 57.9748 223.325 59.6621 224.411 60.3863C224.928 60.7306 224.973 61.4082 225.064 61.9541C225.137 62.3915 226.049 63.3655 226.305 63.9356C226.977 65.427 228.403 65.9561 229.746 66.5921C231.458 67.4029 233.988 68.6389 235.821 68.6389C237.708 68.6389 239.595 68.6389 241.483 68.6389C243.434 68.6389 243.703 66.6813 243.878 65.1114C244.105 63.064 245.245 58.0288 243.769 56.1838C243.463 55.8014 243.616 55.2468 243.29 54.9208C242.597 54.2284 242.268 54.4844 241.853 53.549C241.515 52.7896 239.752 52.6004 239.066 52.5692C237.447 52.4956 236.111 51.5622 234.493 51.4151C232.183 51.2052 228.612 50.8936 227.089 52.2643C225.274 53.8983 224.259 55.0942 224.259 57.6645" stroke="black" stroke-width="2.40773" stroke-linecap="round"/>
<path d="M225.434 62.3679C227.267 62.3679 227.625 63.5733 229.158 63.9139C230.486 64.209 233.295 64.2163 234.536 63.8486C236.008 63.4125 238.378 63.1617 239.566 62.1719C240.069 61.7526 241.083 61.7262 241.417 61.192C241.867 60.472 242.461 59.8431 243.072 59.2323" stroke="black" stroke-width="2.40773" stroke-linecap="round"/>
<path d="M67.0886 20.0378C66.8514 22.1726 63.9055 26.6202 65.9128 28.8784C66.5828 29.6322 66.5226 31.9064 66.6749 32.9721C66.9479 34.8835 67.7212 37.1236 68.4386 38.9383C70.3553 43.7864 75.7056 44.8591 80.0228 46.2982" stroke="black" stroke-width="2.40773" stroke-linecap="round"/>
<path d="M66.3047 20.8217C66.3047 15.6926 71.0578 11.8886 74.5355 8.84559C76.9769 6.70943 80.3295 3.90006 83.3761 2.7922C87.4002 1.3289 90.521 1.82675 93.6538 4.83903C95.0937 6.22359 96.4655 6.69262 97.8563 8.08347C98.5528 8.77994 100.971 10.5061 101.972 10.6311C102.966 10.7554 104.244 12.5902 104.802 13.2876C105.716 14.43 106.723 15.3706 107.655 16.4885C108.749 17.8009 111.225 21.1763 110.007 23.3694C109.239 24.7509 108.574 26.3501 108.265 28.0509C108.117 28.8657 108.176 29.1357 107.764 29.8365C107.248 30.7138 107.359 31.3359 106.98 32.1881C106.416 33.4565 106.167 34.7871 105.695 36.1076C105.384 36.9785 105.499 37.9376 105.499 38.8512C105.499 39.3899 106.43 40.419 105.891 40.419" stroke="black" stroke-width="2.40773" stroke-linecap="round"/>
<path d="M77.2793 16.1183C77.473 18.2486 78.7181 21.2241 79.8487 23.0863C80.8523 24.7391 81.1496 26.5196 82.3746 28.0509C82.7105 28.4709 83.3992 29.8417 83.5287 30.4244C83.6626 31.0271 84.8692 32.1319 85.2924 32.7543C86.0178 33.821 90.1237 39.1819 91.3893 37.2834" stroke="black" stroke-width="2.40773" stroke-linecap="round"/>
<path d="M87.8612 15.3344C87.8612 20.6442 86.9302 25.7176 87.0773 31.0122C87.1351 33.0944 89.9761 40.8381 92.9565 38.8512" stroke="black" stroke-width="2.40773" stroke-linecap="round"/>
<path d="M95.7009 16.9022C95.7009 19.9655 94.1888 21.0681 93.3492 23.5871C93.1114 24.3003 92.7224 25.0854 92.3693 25.721C91.8791 26.6034 92.0721 27.4186 91.6943 28.2686C90.9118 30.0292 91.3894 32.8274 91.3894 34.7358C91.3894 35.3384 91.1482 36.6067 91.6072 37.0657C92.1893 37.6477 92.9572 37.9514 92.9572 38.8512" stroke="black" stroke-width="2.40773" stroke-linecap="round"/>
<path d="M126.272 31.0122C126.272 39.9487 126.664 48.7431 126.664 57.6645" stroke="black" stroke-width="2.40773" stroke-linecap="round"/>
<path d="M135.287 37.2834C134.884 40.0696 134.43 43.2126 132.936 45.6667C132.375 46.5883 132.397 47.0374 132.065 47.9966C131.882 48.5247 131.135 48.6187 130.998 49.2378C130.567 51.1764 128.81 56.4888 126.665 56.4888" stroke="black" stroke-width="2.40773" stroke-linecap="round"/>
<path d="M118.042 40.8108C117.31 43.1277 118.586 46.6738 119.13 48.9546C119.347 49.8624 119.567 51.1239 120.023 51.9595C120.445 52.7323 121.572 54.0081 122.353 54.4418C123.343 54.9917 123.691 56.198 124.901 56.4668C125.428 56.584 126.857 57.2725 126.664 57.2725" stroke="black" stroke-width="2.40773" stroke-linecap="round"/>
<path d="M88.2534 46.6901C91.7465 47.9476 95.2761 49.3331 98.8142 50.2176C102.148 51.0511 105.099 53.32 108.243 54.529C112.178 56.0425 115.114 58.2567 119.217 59.6243" stroke="black" stroke-width="2.40773" stroke-linecap="round"/>
<path d="M94.5254 55.313C97.2243 56.5914 100.214 55.938 103.105 56.1187C105.054 56.2405 106.687 57.2727 108.635 57.2727C110.399 57.2727 113.659 57.9849 114.907 59.2324" stroke="black" stroke-width="2.40773" stroke-linecap="round"/>
<path d="M98.4443 60.4081C99.4768 61.3258 102.557 60.9711 103.844 61.1049C105.686 61.2962 107.569 61.192 109.419 61.192C111.64 61.192 113.861 61.192 116.082 61.192" stroke="black" stroke-width="2.40773" stroke-linecap="round"/>
<path d="M107.067 65.5035C109.415 67.5904 118.239 64.9621 120.001 62.7599" stroke="black" stroke-width="2.40773" stroke-linecap="round"/>
<path d="M125.096 56.8806C122.424 56.9796 120.001 58.4849 120.001 61.388C120.001 64.8364 120.158 66.4256 123.528 67.9422C125.556 68.8545 127.319 67.833 129.233 67.4849C132.359 66.9167 132.583 63.8508 132.957 61.2356C133.141 59.947 133.668 56.2245 131.367 56.0967C128.884 55.9587 125.482 54.3759 123.137 55.6177C121.097 56.6975 119.293 60.2666 118.629 62.3896C117.549 65.8457 120.041 66.6793 122.941 66.6793C124.571 66.6793 127.834 66.7684 128.711 65.1115C129.576 63.4779 129.652 59.2323 127.252 59.2323C124.214 59.2323 122.745 61.5752 122.745 64.4147C122.745 65.722 124.071 66.3542 125.096 65.3292C126.216 64.2094 126.585 62.3102 126.664 60.8001C126.816 57.9207 122.514 58.4213 124.334 61.7582C125.596 64.0712 131.189 59.2323 125.706 59.2323C124.129 59.2323 122.794 60.0671 122.745 61.8017C122.677 64.1694 123.266 64.6702 125.88 64.7195C129.237 64.7829 129.408 63.1067 129.408 60.0162" stroke="black" stroke-width="2.40773" stroke-linecap="round"/>
<path d="M125.488 70.2067C125.488 72.4488 126.064 74.6723 126.642 76.6956C126.83 77.3511 127.056 82.7157 127.056 81.1812" stroke="black" stroke-width="2.40773" stroke-linecap="round"/>
<path d="M121.177 70.2067C120.078 71.306 116.679 72.8778 116.474 74.5181C116.37 75.3484 115.118 76.0295 114.928 76.6956C114.583 77.9044 113.67 78.6349 113.295 79.8529C112.616 82.0593 110.913 84.0298 109.898 86.0588C109.263 87.3283 108.785 88.7838 108.025 89.9782C107.209 91.261 106.735 92.0254 106.675 93.6364C106.658 94.1065 105.5 97.1896 105.5 96.0752" stroke="black" stroke-width="2.40773" stroke-linecap="round"/>
<path d="M133.719 60.0162C135.145 60.0162 136.225 59.1547 137.464 58.5355C138.486 58.0243 139.625 58.0104 140.6 57.5774C141.913 56.9936 143.391 56.4154 144.867 56.1838C147.99 55.6939 151.026 56.4887 154.1 56.4887" stroke="black" stroke-width="2.40773" stroke-linecap="round"/>
<path d="M133.719 63.9358C136.642 63.782 139.23 62.368 142.254 62.368C143.329 62.368 144.403 62.368 145.477 62.368C147.176 62.368 148.874 62.368 150.572 62.368" stroke="black" stroke-width="2.40773" stroke-linecap="round"/>
<path d="M129.015 66.6794C129.146 67.7254 131.291 68.5886 132.151 68.6392C133.495 68.7182 134.048 70.1341 135.286 70.207C136.286 70.2658 138.001 71.4751 139.119 71.8618C139.995 72.165 141.542 72.5279 141.949 73.3425" stroke="black" stroke-width="2.40773" stroke-linecap="round"/>
<path d="M124.313 71.3828C124.313 74.1886 122.82 76.4046 122.745 79.0475C122.671 81.6436 121.961 84.0458 121.961 86.6686" stroke="black" stroke-width="2.40773" stroke-linecap="round"/>
<path d="M125.881 70.2067C126.755 71.492 127.279 73.1814 128.407 74.148C128.809 74.493 130.109 75.979 130.192 76.4779C130.318 77.2324 133.328 80.1671 133.328 78.4376" stroke="black" stroke-width="2.40773" stroke-linecap="round"/>
<path d="M129.015 67.0712C129.015 70.8147 136.177 80.2182 134.502 76.8699" stroke="black" stroke-width="2.40773" stroke-linecap="round"/>
<path d="M121.961 68.639C120.465 69.0471 118.577 70.2964 117.171 71.0778C115.412 72.055 113.241 72.1225 111.378 72.9504" stroke="black" stroke-width="2.40773" stroke-linecap="round"/>
<path d="M121.569 65.8954C120.757 68.6003 116.834 68.7849 114.666 69.6189C113.298 70.145 111.642 70.2388 110.202 70.5987" stroke="black" stroke-width="2.40773" stroke-linecap="round"/>
<path d="M65.1284 98.035C67.2438 97.9028 69.3293 96.4673 71.3996 96.4673C74.2909 96.4673 77.7243 96.006 80.5014 96.7721C81.7856 97.1264 83.4109 96.8592 84.7475 96.8592C86.4505 96.8592 88.0555 97.2511 89.7339 97.2511C91.0694 97.2511 92.4049 97.2511 93.7405 97.2511C94.8757 97.2511 95.3516 98.035 96.4841 98.035" stroke="black" stroke-width="2.40773" stroke-linecap="round"/>
<path d="M67.4805 110.969C69.2012 110.969 72.5481 109.532 73.9476 108.443C74.919 107.688 76.265 108.113 77.192 107.355C78.5917 106.209 80.4879 107.169 81.9825 106.571C83.3115 106.039 84.8567 106.266 86.2939 106.266C87.8203 106.266 89.3361 105.482 90.823 105.482C92.4518 105.482 94.0285 104.759 95.6135 104.698C96.7348 104.655 97.8858 104.94 98.8361 104.306" stroke="black" stroke-width="2.40773" stroke-linecap="round"/>
<path d="M100.405 104.698C97.0076 105.453 93.8077 107.1 90.4099 107.855C89.1085 108.145 87.6795 110.601 86.4687 110.947C84.3329 111.558 83.1727 115.141 81.1992 116.456" stroke="black" stroke-width="2.40773" stroke-linecap="round"/>
<path d="M72.9673 104.306C75.5253 104.7 77.7445 103.598 80.1965 103.152C81.4754 102.92 82.8628 103.232 84.1595 103.109C86.593 102.877 88.9276 102.738 91.3887 102.738C93.713 102.738 96.2692 103.168 98.4438 103.892C101.098 104.777 104.319 104.306 107.067 104.306" stroke="black" stroke-width="2.40773" stroke-linecap="round"/>
<path d="M31.3958 16.9207C30.2652 17.0463 29.1185 17.8709 27.9893 18.1532C27.0754 18.3816 26.442 19.015 25.5071 19.2487C24.4269 19.5188 23.5702 20.5381 22.5285 20.6182C21.8565 20.6699 21.8209 21.4767 21.2275 21.5426C20.6784 21.6036 20.303 21.7547 19.8067 22.0219C18.0012 22.9941 16.2314 23.4905 14.6198 24.7951C11.949 26.9572 10.7508 29.8186 9.14197 32.8065C7.94255 35.034 6.05488 36.6785 4.75968 38.7979C4.12735 39.8326 3.42948 40.8437 2.80819 41.8792C2.61243 42.2054 2.51753 42.9197 2.27752 43.1117C1.30567 43.8892 1.09482 47.5914 1.96939 48.6409C2.49128 49.2672 2.88707 50.6432 3.6641 51.0546C4.54789 51.5225 4.84236 51.9796 5.44441 52.7322C5.83315 53.2181 5.51288 55.0042 5.51288 55.6081C5.51288 57.4756 6.00647 58.8563 6.40304 60.6409C6.9982 63.3191 9.41897 65.1716 12.0521 65.9818C14.0247 66.5887 16.3836 67.6209 17.8381 68.9946C18.643 69.7549 20.7063 70.9159 21.6897 71.1344C23.2672 71.485 24.5494 73.3697 26.1576 73.5994C27.2457 73.7549 28.2407 74.8491 29.2389 74.8491C30.7795 74.8491 32.3202 74.8491 33.8608 74.8491C35.4585 74.8491 37.1317 74.541 38.6369 74.541C39.9102 74.541 40.0417 73.1871 40.6568 72.3669C41.9248 70.6763 43.2795 67.515 43.7381 65.4511C44.0187 64.1883 44.6992 63.1629 45.022 61.9076C45.1993 61.2181 45.7467 60.5152 45.8608 59.8877C45.9883 59.1865 45.9176 58.5759 46.2545 57.9019C47.3913 55.6284 47.7267 52.8608 47.7267 50.3356C47.7267 48.2028 47.5842 44.7236 49.5755 43.728" stroke="black" stroke-width="2.40773" stroke-linecap="round"/>
<path d="M30.1636 16.9207C31.2108 16.9506 32.2023 17.2288 33.2449 17.2288C33.9341 17.2288 34.1655 17.7721 34.7855 17.845C35.5541 17.9355 36.3869 19.0449 36.9424 19.0776C41.4238 19.3412 43.5318 24.7712 44.7997 28.3215C45.3539 29.8731 44.9789 31.6778 45.416 33.2515C45.7265 34.3692 45.996 35.7037 46.1692 36.8293C46.4798 38.8481 47.8541 41.5711 50.192 41.5711" stroke="black" stroke-width="2.40773" stroke-linecap="round"/>
<path d="M101.342 40.3385C98.8486 40.3385 99.4927 35.336 99.4927 33.6624C99.4927 32.1366 99.6865 31.7365 100.349 30.4784C100.702 29.8071 101.416 29.3316 101.65 28.6296" stroke="black" stroke-width="2.40773" stroke-linecap="round"/>
<path d="M74.5337 32.019C75.5312 32.9057 76.7401 33.4836 77.8546 34.2444C79.5218 35.3822 81.4607 36.8561 83.3668 37.5653C86.0504 38.5639 88.4845 40.3385 91.4808 40.3385" stroke="black" stroke-width="2.40773" stroke-linecap="round"/>
<path d="M77.3071 91.7964C80.5232 91.7964 83.1489 91.5884 86.4141 92.2415C89.1311 92.7849 94.3792 93.2787 95.7949 96.1102" stroke="black" stroke-width="2.40773" stroke-linecap="round"/>
<path d="M121.986 97.6507C120.589 98.8145 119.323 99.9857 117.98 101.194C116.361 102.652 115.871 105.318 114.437 106.912C113.397 108.067 112.887 110.158 112.057 111.517C110.95 113.329 110.261 115.271 109.661 117.371" stroke="black" stroke-width="2.40773" stroke-linecap="round"/>
<path d="M124.143 96.1102C124.083 97.243 122.941 98.156 122.91 98.9518C122.861 100.228 122.437 101.235 122.311 102.427C122.194 103.54 121.37 104.48 121.37 105.542C121.37 106.568 120.912 108.106 120.514 109.052C120.169 109.87 120.544 111.014 120.377 111.893C120.143 113.118 120.137 114.294 120.137 115.539C120.137 117.588 120.137 119.636 120.137 121.685" stroke="black" stroke-width="2.40773" stroke-linecap="round"/>
<path d="M178.883 39.6206C181.587 36.9167 184.054 34.2536 186.91 31.9174C189.026 30.1864 191.356 28.5479 193.605 26.877C194.686 26.0736 195.563 24.7759 196.686 24.2141" stroke="black" stroke-width="2.40773" stroke-linecap="round"/>
<path d="M230.923 32.0885C230.923 33.1559 231.025 34.0427 230.429 34.9796C230.111 35.4796 229.554 36.65 229.554 37.224C229.554 38.1435 228.527 37.8297 228.527 38.7646C228.527 39.8731 226.962 40.2558 226.473 40.99" stroke="black" stroke-width="2.40773" stroke-linecap="round"/>
<path d="M181.622 38.2512C182.677 38.3098 183.784 38.7056 184.779 39.012C185.801 39.3263 186.71 39.2296 187.785 39.3353C189.899 39.5433 191.883 40.2349 193.947 40.6477" stroke="black" stroke-width="2.40773" stroke-linecap="round"/>
<path d="M185.731 35.1697C187.79 35.1697 188.662 33.0815 190.258 32.5069C193.342 31.3964 196.473 29.6661 199.768 29.0071" stroke="black" stroke-width="2.40773" stroke-linecap="round"/>
<path d="M174.774 23.8718C174.774 28.7781 177.502 32.7589 180.252 36.5393" stroke="black" stroke-width="2.40773" stroke-linecap="round"/>
<path d="M179.567 22.5023C180.226 27.1915 180.252 31.8246 180.252 36.5393" stroke="black" stroke-width="2.40773" stroke-linecap="round"/>
<path d="M186.073 20.4479C186.073 23.6063 186.415 26.7719 186.415 29.9962C186.415 31.2575 186.166 31.6816 185.749 32.7921C185.385 33.7634 184.697 34.1543 184.361 34.8273" stroke="black" stroke-width="2.40773" stroke-linecap="round"/>
<path d="M12.8354 52.6305C16.5666 52.0975 18.4726 48.4181 21.775 47.0765C24.6772 45.8975 28.0334 45.0633 31.133 44.737C32.4636 44.597 33.4664 43.7807 34.804 43.5578C38.9206 42.8717 43.1967 43.0442 47.4145 43.0442" stroke="black" stroke-width="2.40773" stroke-linecap="round"/>
<path d="M19.3408 32.4308C22.4693 35.2117 26.8172 35.4522 30.6009 36.8816C31.2886 37.1414 31.5519 37.8688 32.3507 37.9087C34.2136 38.0019 35.5744 38.6413 37.296 39.4494C38.7916 40.1514 39.6452 40.6476 41.2523 40.6476C42.0385 40.6476 44.3336 41.6427 44.3336 42.0171" stroke="black" stroke-width="2.40773" stroke-linecap="round"/>
<path d="M25.5024 29.692C29.5462 33.7358 33.5712 37.6739 38.5504 40.4955C40.6293 41.6735 42.8765 42.3998 45.1314 43.2154C46.1466 43.5826 48.0469 45.3054 48.441 43.729" stroke="black" stroke-width="2.40773" stroke-linecap="round"/>
<path d="M23.1064 62.9013C25.8922 62.6228 28.3509 59.5173 30.2201 57.6898C32.5864 55.376 34.7329 53.1952 37.1435 50.9185C39.2524 48.9267 41.4864 47.054 44.2571 46.2015C45.1461 45.9279 47.4145 45.8036 47.4145 44.7559" stroke="black" stroke-width="2.40773" stroke-linecap="round"/>
<path d="M21.3945 54.6845C25.728 52.3011 30.002 49.0902 34.6137 47.2856C38.0085 45.9572 41.6156 44.5205 45.0178 43.3864" stroke="black" stroke-width="2.40773" stroke-linecap="round"/>
<path d="M43.3058 47.4951C42.8316 47.9166 42.3494 48.3882 41.8603 48.7884C41.3672 49.1919 40.8528 49.9229 40.3577 50.253C38.7941 51.2954 39.1112 53.1856 38.4366 54.6848C37.7804 56.143 37.8527 57.6282 37.3144 59.1355C36.8173 60.5273 36.4585 62.4463 36.4585 63.9286" stroke="black" stroke-width="2.40773" stroke-linecap="round"/>
<path d="M89.8682 113.914C90.9753 112.27 91.8465 111.041 92.6071 109.33C92.9462 108.567 94.2411 107.966 94.9276 107.675C96.1345 107.165 97.2693 105.759 98.6175 105.374C99.3516 105.164 100.47 105.036 100.824 104.328" stroke="black" stroke-width="2.40773" stroke-linecap="round"/>
<path d="M130.267 92.6873C129.413 93.4461 129.582 94.1228 129.582 95.2551C129.582 96.63 128.635 98.4322 128.384 99.839C128.223 100.736 127.855 102.025 127.261 102.692C126.847 103.158 126.843 103.612 126.843 104.195C126.843 105.368 126.45 106.045 125.968 107.067C125.366 108.342 125.473 110.972 125.473 112.392C125.473 113.277 125.248 114.522 125.55 115.36C125.743 115.897 126.79 116.68 126.158 116.995" stroke="black" stroke-width="2.40773" stroke-linecap="round"/>
<path d="M168.269 87.5518C167.726 87.5518 165.982 86.9561 165.892 87.5899C165.745 88.618 165.873 89.7467 165.873 90.7853C165.873 93.6667 166.687 95.0406 169.297 96.0349C170.7 96.5694 171.112 95.3431 171.864 94.7415C172.441 94.2799 174.341 93.4715 173.5 92.3069C171.733 89.8599 170.448 88.5789 167.585 88.5789C166.194 88.5789 166.06 88.815 166.443 90.3478C166.738 91.5267 167.294 94.0568 168.783 94.0568C170.814 94.0568 167.21 91.2242 168.802 91.3179C169.765 91.3745 172.313 92.6232 171.351 92.6873C170.579 92.7388 167.008 89.3031 170.666 90.6331" stroke="black" stroke-width="2.40773" stroke-linecap="round"/>
<path d="M171.694 88.579C176.243 88.579 178.636 85.3266 182.573 83.7859C184.86 82.8911 187.74 82.074 190.182 82.074" stroke="black" stroke-width="2.40773" stroke-linecap="round"/>
<path d="M172.036 95.7687C173.609 96.9048 175.292 97.5148 176.905 98.5076C178.101 99.2436 179.681 100.611 180.938 100.98C183.387 101.701 185.966 103.428 187.1 105.697" stroke="black" stroke-width="2.40773" stroke-linecap="round"/>
<path d="M152.521 68.7217C152.688 70.2192 153.966 72.0791 154.576 73.4387C155.712 75.9705 156.907 78.0765 158.494 80.3621C159.404 81.6723 160.253 83.0297 161.138 84.3564C162.016 85.6735 164.429 88.4395 165.874 88.9213" stroke="black" stroke-width="2.40773" stroke-linecap="round"/>
<path d="M161.079 70.7759C161.079 72.7365 162.22 74.0273 162.43 75.9114C162.644 77.8405 163.539 79.7048 163.894 81.6555C164.507 85.0237 166.152 89.995 169.981 90.6331" stroke="black" stroke-width="2.40773" stroke-linecap="round"/>
<path d="M166.216 72.4877C166.523 75.8584 166.344 79.2243 166.578 82.6066C166.833 86.3127 168.375 92.0026 172.721 92.0026" stroke="black" stroke-width="2.40773" stroke-linecap="round"/>
<path d="M169.981 77.6232C170.119 78.8657 170.838 80.1593 171.179 81.3893C171.603 82.9122 171.26 84.4612 171.027 85.9732C170.852 87.1131 170.63 88.6563 170.247 89.7202C170.033 90.3172 169.238 91.1509 168.954 92.0026" stroke="black" stroke-width="2.40773" stroke-linecap="round"/>
<path d="M185.045 68.037C184.192 68.1317 184.268 69.4065 183.505 69.4065C182.847 69.4065 181.872 71.2253 181.641 71.765C181.304 72.5495 180.247 73.7136 179.739 74.5039C179.116 75.4723 178.352 76.413 177.703 77.433C176.505 79.3155 175.557 81.0615 174.698 83.1011C174.008 84.7409 172.842 87.2326 173.405 88.9213" stroke="black" stroke-width="2.40773" stroke-linecap="round"/>
<path d="M176.486 83.1011C174.99 84.7636 174.431 86.871 173.747 88.9213" stroke="black" stroke-width="2.40773" stroke-linecap="round"/>
<path d="M196.686 68.037C196.686 69.3167 197.371 70.3847 197.371 71.4607" stroke="black" stroke-width="2.40773" stroke-linecap="round"/>
<path d="M137.799 96.7957C143.325 94.0324 149.459 92.2413 155.602 91.394C157.524 91.1289 159.49 91.4145 161.422 91.3179C162.178 91.2801 163.068 90.541 163.819 90.2908" stroke="black" stroke-width="2.40773" stroke-linecap="round"/>
<path d="M166.558 97.4806C166.483 98.1601 165.055 99.4645 164.504 99.8011C163.833 100.211 163.898 100.773 163.306 101.247C162.68 101.747 162.161 102.76 161.765 103.453C161.274 104.312 160.197 105.031 159.787 105.964C159.099 107.527 156.972 109.166 156.972 111.004C156.972 112.887 156.972 114.77 156.972 116.653" stroke="black" stroke-width="2.40773" stroke-linecap="round"/>
<path d="M162.792 92.0026C162.792 93.2358 163.431 94.8733 164.675 95.4262C165.189 95.6546 165.606 95.9216 166.045 96.2631C166.552 96.6576 167.223 96.2836 167.776 96.5294C168.554 96.8755 169.931 96.9783 170.838 96.7767C171.745 96.5752 172.313 95.5145 173.063 95.4262C174.049 95.3103 174.699 89.3399 174.014 88.655C172.892 87.5321 167.42 89.0427 166.559 90.1196C165.03 92.0308 166.7 96.0196 169.469 93.8666C170.784 92.8437 170.82 90.2638 169.297 89.8723C167.336 89.3678 165.192 88.7112 164.866 91.489C164.634 93.4621 166.803 93.8288 168.346 93.7144C169.968 93.5943 170.059 90.1555 169.469 89.0925C168.588 87.5069 165.977 89.6644 166.977 90.0245C168.4 90.5369 169.982 90.3323 169.982 88.5789" stroke="black" stroke-width="2.40773" stroke-linecap="round"/>
<path d="M38.1704 33.1155C40.128 34.8774 40.8604 37.5163 42.5451 39.3542C44.4186 41.398 46.2396 44.4136 49.1261 44.4136" stroke="black" stroke-width="2.40773" stroke-linecap="round"/>
<path d="M169.981 98.5075C168.431 100.251 169.512 102.908 168.536 104.86C167.827 106.279 165.041 113.327 166.9 114.256" stroke="black" stroke-width="2.40773" stroke-linecap="round"/>
<path d="M171.351 97.4806C171.351 99.6389 171.579 101.811 171.693 103.986C171.758 105.211 171.71 108.958 172.721 109.463" stroke="black" stroke-width="2.40773" stroke-linecap="round"/>
<path d="M173.063 97.1381C174.149 98.3328 175.07 99.7092 175.46 101.265C175.732 102.354 176.769 103.586 176.829 104.67C176.885 105.678 177.342 106.171 177.533 107.219C177.576 107.454 178.423 109.062 178.541 109.121" stroke="black" stroke-width="2.40773" stroke-linecap="round"/>
</svg>
