<svg width="191" height="122" viewBox="0 0 191 122" fill="none" xmlns="http://www.w3.org/2000/svg">
<path d="M51.802 113.84V107.056C51.802 106.522 51.755 106.176 51.6612 106.018C51.5673 105.86 51.3825 105.751 51.1069 105.692L50.5965 105.587V105.2H54.0193V105.596L53.421 105.728C53.2098 105.775 53.0866 105.842 53.0514 105.93C53.0103 106.018 52.9898 106.235 52.9898 106.581V115.125H56.2454C56.6736 115.125 56.9581 114.796 57.0989 114.139C57.14 113.946 57.1605 113.773 57.1605 113.62H57.618V115.67H50.6405V115.318L51.1508 115.213C51.4617 115.16 51.6494 115.043 51.714 114.861C51.7726 114.679 51.802 114.339 51.802 113.84ZM58.2079 110.69C58.2079 109.142 58.6361 107.836 59.4925 106.775C60.3548 105.707 61.4899 105.173 62.8977 105.173C64.4053 105.173 65.6078 105.672 66.5053 106.669C67.4086 107.66 67.8632 108.945 67.8691 110.523C67.8691 111.925 67.4526 113.174 66.6196 114.271C65.7926 115.368 64.593 115.917 63.0209 115.917C61.5837 115.917 60.4223 115.424 59.5365 114.439C58.6508 113.447 58.2079 112.198 58.2079 110.69ZM59.5277 110.347C59.5277 112.031 59.8768 113.271 60.5748 114.069C61.2729 114.861 62.1234 115.26 63.1265 115.266C64.3114 115.266 65.1766 114.826 65.7222 113.946C66.2677 113.06 66.5405 111.972 66.5405 110.681C66.5405 109.021 66.1826 107.792 65.467 106.995C64.7513 106.197 63.8627 105.795 62.8009 105.789H62.7921C61.8067 105.789 61.0148 106.212 60.4164 107.056C59.824 107.901 59.5277 108.998 59.5277 110.347ZM77.1347 111.192C77.1347 114.365 75.8119 115.955 73.1664 115.961C71.2775 115.961 70.078 115.131 69.5676 113.471C69.3917 112.902 69.3037 112.259 69.3037 111.544V107.065C69.3037 106.52 69.2538 106.171 69.1541 106.018C69.0602 105.86 68.8784 105.751 68.6085 105.692L68.0982 105.587V105.2H73.0608C73.489 105.2 73.7676 105.329 73.8967 105.587C73.9319 105.669 73.9495 105.754 73.9495 105.842C73.9495 106.159 73.794 106.373 73.4831 106.484C73.3834 106.52 73.2866 106.537 73.1928 106.537C72.8936 106.537 72.5915 106.417 72.2865 106.176C71.9873 105.93 71.7908 105.789 71.697 105.754C71.609 105.719 71.5268 105.701 71.4506 105.701C70.9403 105.701 70.6352 106.077 70.5355 106.828C70.5062 107.074 70.4915 107.464 70.4915 107.998V111.509C70.4915 113.503 71.2101 114.691 72.6472 115.072C72.964 115.154 73.3072 115.195 73.6767 115.195C74.9262 115.195 75.7474 114.518 76.1404 113.163C76.2988 112.605 76.3809 111.969 76.3868 111.253V107.065C76.3868 106.52 76.3369 106.171 76.2372 106.018C76.1433 105.86 75.9615 105.751 75.6917 105.692L75.1813 105.587V105.2H78.1641V105.604L77.5658 105.728C77.3605 105.769 77.2373 105.833 77.1963 105.921C77.1552 106.009 77.1347 106.229 77.1347 106.581V111.192ZM78.3229 105.833C78.3229 105.417 78.6191 105.206 79.2116 105.2H85.098C85.6377 105.2 86.1627 105.326 86.673 105.578C87.594 106.041 88.0574 106.795 88.0632 107.839C88.0632 108.637 87.7113 109.315 87.0074 109.872C86.6965 110.112 86.3563 110.303 85.9867 110.444C86.4853 110.743 86.9253 111.218 87.3065 111.869C88.0339 113.13 88.5765 114.01 88.9343 114.509C89.298 115.008 89.6588 115.31 90.0166 115.415V115.882C89.0663 115.97 88.3272 115.788 87.7993 115.336C87.2772 114.884 86.7493 114.128 86.2155 113.066C85.6817 111.998 85.3415 111.344 85.1948 111.104C85.0482 110.863 84.9074 110.743 84.7725 110.743C84.6434 110.737 84.5349 110.84 84.4469 111.051C84.3648 111.262 84.2973 111.394 84.2445 111.447C84.1565 111.529 84.0158 111.573 83.8222 111.579C83.6345 111.579 83.4849 111.494 83.3734 111.324C83.2679 111.154 83.2151 110.992 83.2151 110.84C83.2151 110.341 83.6403 110.092 84.4909 110.092C84.6669 110.092 84.8135 110.098 84.9308 110.11C85.6817 110.074 86.2037 109.705 86.497 109.001C86.6261 108.678 86.6906 108.329 86.6906 107.954C86.6906 107.05 86.3621 106.414 85.7051 106.044C85.3532 105.851 84.9455 105.754 84.4821 105.754H82.9423V114.342C82.9423 114.723 82.9746 114.952 83.0391 115.028C83.1036 115.098 83.2297 115.151 83.4174 115.186L84.0158 115.31V115.67H80.593V115.327L81.1033 115.222C81.4142 115.157 81.599 115.037 81.6577 114.861C81.7222 114.685 81.7544 114.348 81.7544 113.849V106.88C81.6371 106.112 81.3262 105.716 80.8218 105.692C80.6458 105.692 80.4141 105.807 80.1266 106.036C79.7336 106.352 79.3934 106.514 79.106 106.52C78.8185 106.52 78.6162 106.443 78.4989 106.291C78.3815 106.132 78.3229 105.98 78.3229 105.833ZM90.7209 105.816C90.7209 105.405 91.0171 105.2 91.6096 105.2H94.2052L94.1964 105.217H94.434L95.0323 105.772L97.7072 113.682L101.2 105.2H103.734V105.604C103.294 105.692 103.013 105.816 102.89 105.974C102.767 106.132 102.705 106.332 102.705 106.572V114.324C102.705 114.711 102.737 114.943 102.802 115.019C102.872 115.09 102.998 115.142 103.18 115.178L103.778 115.301V115.67H100.356V115.31L100.866 115.213C101.177 115.154 101.362 115.034 101.42 114.852C101.485 114.67 101.517 114.333 101.517 113.84V106.379L97.6456 115.926H97.3288L94.0732 106.643L92.8854 113.523L92.7182 114.509C92.6889 114.914 92.8355 115.148 93.1582 115.213L94.258 115.31V115.67H90.8616V115.31L91.1872 115.222C91.4453 115.157 91.6184 115.057 91.7063 114.923C91.7943 114.782 91.8647 114.585 91.9175 114.333C92.2871 112.497 92.6038 110.816 92.8678 109.291L93.2989 106.748C93.34 106.42 93.3576 106.229 93.3517 106.176C93.3165 105.959 93.2022 105.851 93.0086 105.851C92.8209 105.845 92.6126 105.939 92.3839 106.132C92.0847 106.379 91.7885 106.502 91.4952 106.502C91.2019 106.502 90.9995 106.426 90.888 106.273C90.7766 106.115 90.7209 105.962 90.7209 105.816ZM106.674 105.059C107.395 105.059 107.952 105.179 108.345 105.42C108.891 105.766 109.328 106.414 109.656 107.364C110.841 110.819 111.592 112.963 111.909 113.796C112.237 114.664 112.639 115.145 113.114 115.239L113.51 115.31V115.67H109.885V115.301L110.563 115.151C110.838 115.081 110.979 114.928 110.985 114.694C110.985 114.553 110.944 114.362 110.862 114.122L110.211 112.168H106.647C106.149 113.746 105.893 114.585 105.882 114.685C105.882 114.943 106.087 115.119 106.498 115.213L107.017 115.31V115.67H103.7V115.301L104.192 115.213C104.626 115.131 105.005 114.623 105.327 113.691L107.228 108.174C107.574 107.159 107.756 106.549 107.773 106.344C107.797 106.138 107.729 106.036 107.571 106.036C107.383 106.036 107.204 106.068 107.034 106.132C106.87 106.197 106.765 106.229 106.718 106.229C106.436 106.229 106.245 106.1 106.146 105.842C106.116 105.754 106.102 105.663 106.102 105.569C106.143 105.247 106.333 105.077 106.674 105.059ZM108.451 106.748L106.832 111.623H110.044L108.451 106.748ZM113.176 105.833C113.176 105.417 113.473 105.206 114.065 105.2H119.951C120.491 105.2 121.016 105.326 121.526 105.578C122.447 106.041 122.911 106.795 122.917 107.839C122.917 108.637 122.565 109.315 121.861 109.872C121.55 110.112 121.21 110.303 120.84 110.444C121.339 110.743 121.779 111.218 122.16 111.869C122.887 113.13 123.43 114.01 123.788 114.509C124.151 115.008 124.512 115.31 124.87 115.415V115.882C123.92 115.97 123.181 115.788 122.653 115.336C122.131 114.884 121.603 114.128 121.069 113.066C120.535 111.998 120.195 111.344 120.048 111.104C119.902 110.863 119.761 110.743 119.626 110.743C119.497 110.737 119.388 110.84 119.3 111.051C119.218 111.262 119.151 111.394 119.098 111.447C119.01 111.529 118.869 111.573 118.676 111.579C118.488 111.579 118.338 111.494 118.227 111.324C118.121 111.154 118.069 110.992 118.069 110.84C118.069 110.341 118.494 110.092 119.344 110.092C119.52 110.092 119.667 110.098 119.784 110.11C120.535 110.074 121.057 109.705 121.351 109.001C121.48 108.678 121.544 108.329 121.544 107.954C121.544 107.05 121.216 106.414 120.559 106.044C120.207 105.851 119.799 105.754 119.336 105.754H117.796V114.342C117.796 114.723 117.828 114.952 117.893 115.028C117.957 115.098 118.083 115.151 118.271 115.186L118.869 115.31V115.67H115.446V115.327L115.957 115.222C116.268 115.157 116.452 115.037 116.511 114.861C116.576 114.685 116.608 114.348 116.608 113.849V106.88C116.491 106.112 116.18 105.716 115.675 105.692C115.499 105.692 115.268 105.807 114.98 106.036C114.587 106.352 114.247 106.514 113.959 106.52C113.672 106.52 113.47 106.443 113.352 106.291C113.235 106.132 113.176 105.98 113.176 105.833ZM126.269 105.675C125.683 105.675 125.387 105.47 125.381 105.059C125.381 104.748 125.533 104.534 125.838 104.417C125.944 104.381 126.047 104.361 126.146 104.355C126.457 104.355 126.704 104.466 126.885 104.689C127.073 104.912 127.202 105.053 127.273 105.112C127.349 105.17 127.46 105.2 127.607 105.2H130.713V105.587L130.115 105.719C129.903 105.766 129.777 105.833 129.736 105.921C129.701 106.003 129.683 106.217 129.683 106.564V114.324C129.683 114.7 129.71 114.923 129.763 114.993C129.815 115.057 129.933 115.11 130.115 115.151L130.713 115.283V115.67H127.299V115.301L127.809 115.195C128.126 115.131 128.32 115.002 128.39 114.808C128.46 114.615 128.496 114.286 128.496 113.823V106.801C128.484 106.185 128.334 105.83 128.047 105.736C127.959 105.707 127.844 105.692 127.704 105.692L126.269 105.675ZM131.391 105.569C131.391 105.229 131.605 105.059 132.033 105.059C133.177 105.059 133.989 105.341 134.47 105.904L140.137 113.638V107.056C140.137 106.522 140.09 106.176 139.996 106.018C139.902 105.86 139.717 105.751 139.442 105.692L138.931 105.587V105.2H141.914V105.604L141.316 105.728C141.111 105.769 140.987 105.833 140.946 105.921C140.905 106.009 140.885 106.229 140.885 106.581V115.926H140.524L134.312 107.549L134.303 114.333C134.303 114.72 134.335 114.952 134.4 115.028C134.47 115.098 134.596 115.151 134.778 115.186L135.377 115.31V115.67H132.411V115.327L132.922 115.222C133.233 115.157 133.417 115.037 133.476 114.861C133.541 114.685 133.573 114.348 133.573 113.849V107.707C133.567 106.487 133.4 105.871 133.071 105.86C132.919 105.86 132.714 105.921 132.455 106.044C132.197 106.168 132.048 106.229 132.007 106.229C131.725 106.229 131.534 106.1 131.435 105.842C131.405 105.754 131.391 105.663 131.391 105.569Z" fill="white"/>
<path d="M4.69057 86.8708V65.5977C4.69057 63.9238 4.54341 62.8385 4.2491 62.3419C3.95479 61.8452 3.37537 61.505 2.51083 61.321L0.910522 60.9899V59.7759H11.6436V61.0175L9.76742 61.4314C9.10522 61.5785 8.71894 61.7901 8.60857 62.066C8.47981 62.3419 8.41543 63.0225 8.41543 64.1078V90.8992H18.6243C19.9671 90.8992 20.8592 89.8691 21.3007 87.8089C21.4295 87.2019 21.4938 86.6593 21.4938 86.181H22.9286V92.6099H1.04848V91.5062L2.64879 91.1751C3.62369 91.0096 4.21232 90.6417 4.41465 90.0714C4.5986 89.5012 4.69057 88.4343 4.69057 86.8708ZM31.5659 59.3344C33.8284 59.3344 35.5759 59.7115 36.8083 60.4657C38.519 61.5509 39.8893 63.5835 40.9194 66.5634C44.6351 77.3977 46.9896 84.1209 47.9829 86.7329C49.013 89.4552 50.273 90.9636 51.7629 91.2579L53.0045 91.4786V92.6099H41.6368V91.451L43.7614 90.982C44.6259 90.7612 45.0674 90.283 45.0858 89.5472C45.0858 89.1057 44.957 88.5079 44.6995 87.7537L42.6577 81.6284H31.4831C29.9196 86.5765 29.1194 89.2069 29.0826 89.5196C29.0826 90.329 29.7264 90.8808 31.014 91.1751L32.6419 91.4786V92.6099H22.2399V91.451L23.785 91.1751C25.1462 90.9176 26.3327 89.3265 27.3444 86.4018L33.3041 69.1018C34.3894 65.9196 34.9596 64.0066 35.0148 63.3628C35.0884 62.719 34.8769 62.3971 34.3802 62.3971C33.7916 62.3971 33.2306 62.4982 32.6971 62.7006C32.1821 62.9029 31.851 63.0041 31.7038 63.0041C30.8209 63.0041 30.2231 62.5994 29.9104 61.7901C29.8184 61.5141 29.7724 61.229 29.7724 60.9347C29.9012 59.923 30.499 59.3896 31.5659 59.3344ZM37.1394 64.632L32.0625 79.9177H42.1335L37.1394 64.632ZM55.9028 65.5701C55.9028 63.8962 55.7648 62.8018 55.4889 62.2867C55.213 61.7901 54.6427 61.4498 53.7782 61.2658L52.1503 60.9347V59.7759H72.5129V67.1428C72.5129 68.1361 72.1266 68.8167 71.354 69.1846C71.0597 69.3134 70.7562 69.3869 70.4435 69.4053C69.6526 69.4053 69.1375 69.0375 68.8984 68.3017C68.8432 68.0993 68.8064 67.897 68.788 67.6947C68.788 66.9405 69.1559 66.3611 69.8917 65.9564C70.6275 65.5701 71.0413 65.3218 71.1333 65.2114C71.2253 65.1011 71.2713 64.9815 71.2713 64.8527C71.0689 63.6571 70.7838 62.8018 70.4159 62.2867C70.0296 61.7717 69.4686 61.505 68.7328 61.4866H59.6V75.5307H65.9737C66.6727 75.5307 67.0865 75.4203 67.2153 75.1996C67.3625 74.9788 67.5188 74.519 67.6844 73.82L67.9603 72.606H69.1191V80.1109H67.9327C67.6568 78.6209 67.3993 77.7656 67.1601 77.5449C66.921 77.3425 66.5071 77.2414 65.9185 77.2414H59.6V88.6091C59.6 89.8415 60.0599 90.6417 60.9796 91.0096C61.2371 91.1015 61.9637 91.2579 63.1593 91.4786V92.6099H52.1227V91.451L53.7506 91.1199C54.7623 90.9176 55.3693 90.5129 55.5717 89.9059C55.7924 89.2989 55.9028 88.278 55.9028 86.8432V65.5701ZM76.7907 86.8708V65.5977C76.7907 63.9238 76.6435 62.8385 76.3492 62.3419C76.0549 61.8452 75.4755 61.505 74.611 61.321L73.0106 60.9899V59.7759H83.7438V61.0175L81.8675 61.4314C81.2053 61.5785 80.8191 61.7901 80.7087 62.066C80.5799 62.3419 80.5156 63.0225 80.5156 64.1078V90.8992H90.7244C92.0672 90.8992 92.9594 89.8691 93.4008 87.8089C93.5296 87.2019 93.594 86.6593 93.594 86.181H95.0287V92.6099H73.1486V91.5062L74.7489 91.1751C75.7238 91.0096 76.3124 90.6417 76.5148 90.0714C76.6987 89.5012 76.7907 88.4343 76.7907 86.8708ZM114.399 90.8992C115.889 90.8992 116.781 89.7771 117.076 87.533H118.179V92.6099H96.2163V91.451L97.8166 91.1199C98.8099 90.9176 99.4169 90.5129 99.6376 89.9059C99.8584 89.2989 99.9687 88.2688 99.9687 86.8156V65.5701C99.9687 63.8962 99.8308 62.811 99.5549 62.3143C99.2789 61.7993 98.7087 61.4498 97.8442 61.2658L96.2163 60.9347V59.7759H116.579V64.8527H115.475C115.162 62.6454 114.27 61.5233 112.799 61.4866H103.666V75.5307H110.04C110.739 75.5307 111.153 75.4203 111.281 75.1996C111.428 74.9788 111.585 74.519 111.75 73.82L112.026 72.606H113.185V80.1109H112.026C111.732 78.6025 111.456 77.7472 111.199 77.5449C110.959 77.3425 110.564 77.2414 110.012 77.2414H103.666V90.8992H114.399ZM147.896 78.5657C147.896 88.5171 143.748 93.502 135.453 93.5204C129.53 93.5204 125.768 90.9176 124.168 85.712C123.616 83.9277 123.34 81.9135 123.34 79.6694V65.6253C123.34 63.9146 123.184 62.8201 122.871 62.3419C122.577 61.8452 122.006 61.505 121.16 61.321L119.56 60.9899V59.7759H135.122C136.464 59.7759 137.338 60.1806 137.743 60.9899C137.853 61.2474 137.908 61.5141 137.908 61.7901C137.908 62.7834 137.421 63.4548 136.446 63.8042C136.133 63.9146 135.83 63.9698 135.535 63.9698C134.597 63.9698 133.65 63.5927 132.693 62.8385C131.755 62.066 131.139 61.6245 130.845 61.5141C130.569 61.4038 130.311 61.3486 130.072 61.3486C128.472 61.3486 127.515 62.5258 127.203 64.8803C127.111 65.6529 127.065 66.8761 127.065 68.55V79.559C127.065 85.8131 129.318 89.538 133.825 90.7336C134.818 90.9912 135.894 91.1199 137.053 91.1199C140.971 91.1199 143.546 88.9954 144.779 84.7463C145.275 82.9988 145.533 81.003 145.551 78.7589V65.6253C145.551 63.9146 145.395 62.8201 145.082 62.3419C144.788 61.8452 144.218 61.505 143.371 61.321L141.771 60.9899V59.7759H151.125V61.0451L149.248 61.4314C148.605 61.5601 148.218 61.7625 148.09 62.0384C147.961 62.3143 147.896 63.0041 147.896 64.1078V78.5657ZM151.622 61.7625C151.622 60.4565 152.551 59.7943 154.409 59.7759H172.868C174.56 59.7759 176.206 60.1714 177.807 60.9623C180.695 62.4155 182.148 64.7792 182.166 68.0534C182.166 70.555 181.063 72.6795 178.855 74.427C177.88 75.1812 176.813 75.779 175.655 76.2205C177.218 77.1586 178.598 78.6485 179.793 80.6903C182.074 84.6451 183.776 87.4043 184.898 88.9678C186.038 90.5313 187.17 91.4786 188.292 91.8097V93.2721C185.312 93.548 182.994 92.9778 181.339 91.5614C179.701 90.145 178.046 87.7721 176.372 84.4428C174.698 81.095 173.631 79.044 173.171 78.2898C172.712 77.5357 172.27 77.1586 171.847 77.1586C171.442 77.1402 171.102 77.4621 170.826 78.1243C170.569 78.7865 170.357 79.2004 170.192 79.3659C169.916 79.6234 169.474 79.7614 168.867 79.7798C168.278 79.7798 167.809 79.5131 167.46 78.9796C167.129 78.4462 166.963 77.9403 166.963 77.4621C166.963 75.8986 168.297 75.1168 170.964 75.1168C171.516 75.1168 171.976 75.1352 172.344 75.172C174.698 75.0616 176.335 73.9028 177.255 71.6954C177.66 70.6838 177.862 69.5893 177.862 68.412C177.862 65.5793 176.832 63.5835 174.772 62.4247C173.668 61.8177 172.39 61.5141 170.936 61.5141H166.108V88.4435C166.108 89.6392 166.209 90.3566 166.411 90.5957C166.614 90.8164 167.009 90.982 167.598 91.0923L169.474 91.4786V92.6099H158.741V91.5338L160.341 91.2027C161.316 91.0004 161.896 90.6233 162.08 90.0714C162.282 89.5196 162.383 88.4619 162.383 86.8984V65.0459C162.015 62.6362 161.04 61.3946 159.458 61.321C158.907 61.321 158.18 61.6797 157.279 62.3971C156.046 63.3904 154.979 63.8962 154.078 63.9146C153.177 63.9146 152.542 63.6755 152.174 63.1972C151.806 62.7006 151.622 62.2223 151.622 61.7625Z" fill="#FBF5EE"/>
<path d="M68.2568 16.489C68.8707 16.489 69.404 16.7868 69.9692 16.7868C70.2863 16.7868 71.0976 16.8899 71.3507 17.1177C71.7393 17.4675 72.584 17.448 73.0879 17.5396C73.6438 17.6407 74.2055 17.8688 74.7341 17.9863C75.3564 18.1246 75.802 18.3868 76.4465 18.4247C76.6752 18.4382 77.3421 18.7625 77.4888 18.9459C77.7286 19.2457 78.234 19.2362 78.498 19.5002C78.8019 19.804 79.309 20.0738 79.7223 20.2116" stroke="#FFC7C7" stroke-width="0.914712" stroke-linecap="round"/>
<path d="M113.672 20.5095C113.672 19.9053 114.179 19.7504 114.449 19.3182C114.592 19.0897 115.514 18.0072 115.682 17.9699C116.054 17.8873 116.477 17.0366 116.666 16.729C116.912 16.3301 117.424 15.6137 117.841 15.4468" stroke="#FFC7C7" stroke-width="0.914712" stroke-linecap="round"/>
<path d="M99.9731 21.4027C100.37 21.4027 100.758 21.0723 101.131 20.9229C101.371 20.8268 102.027 20.391 102.207 20.2114C103.174 19.2437 104.216 18.8087 105.367 18.1268C106.966 17.1793 108.612 17.0845 110.471 17.0845C110.958 17.0845 111.9 17.3941 112.258 17.6801C112.497 17.8714 112.758 17.9823 113.01 18.1268C113.119 18.1889 113.786 18.5637 113.813 18.6562C114.206 20.0341 113.077 24.3247 113.077 22.8917" stroke="#FFC7C7" stroke-width="0.914712" stroke-linecap="round"/>
<path d="M104.142 29.5925C104.142 27.6259 104.914 25.1441 107.046 24.6705C108.029 24.452 108.902 24.232 109.949 24.232C110.746 24.232 111.924 24.0145 112.514 24.4967C112.68 24.6326 113.04 24.3851 113.076 24.6787C113.094 24.8194 113.308 25.086 113.449 25.1172C113.59 25.1487 114.132 25.7069 114.234 25.8699C114.418 26.1636 114.834 26.2636 115.086 26.4656C115.433 26.7428 115.359 27.0479 115.467 27.4252C115.674 28.1507 115.608 29.0118 115.608 29.8159C115.608 30.3441 115.636 32.1841 115.161 32.4217" stroke="#FFC7C7" stroke-width="0.914712" stroke-linecap="round"/>
<path d="M115.607 27.6567C115.714 27.1227 116.836 25.1253 117.469 24.9847C117.902 24.8883 118.257 24.5172 118.734 24.3808C119.238 24.237 119.688 24.1048 120.223 23.9672C120.909 23.7908 122.354 23.5179 122.895 24.1492C123.329 24.6553 123.863 25.5168 124.393 25.8698" stroke="#FFC7C7" stroke-width="0.914712" stroke-linecap="round"/>
<path d="M117.246 31.0814C118.443 30.9483 118.646 29.8087 119.545 29.2946C119.75 29.1773 119.761 28.8499 119.992 28.7238C120.135 28.6456 120.357 28.6561 120.521 28.5832C121.259 28.2552 122.045 27.7555 122.904 27.5408C123.966 27.2754 124.968 27.4681 125.998 27.5077C126.854 27.5407 126.584 28.3752 126.99 28.7817C127.352 29.1432 127.454 30.2126 127.363 30.7174C127.292 31.1037 126.851 32.1979 126.56 32.2809C126.315 32.351 126.134 32.9018 125.882 33.0502C125.615 33.2076 125.509 33.5224 125.212 33.6872C124.738 33.9504 124.308 34.3999 123.797 34.6551" stroke="#FFC7C7" stroke-width="0.914712" stroke-linecap="round"/>
<path d="M116.799 35.2507C118.213 35.2507 119.628 35.2507 121.042 35.2507C121.489 35.2507 121.936 35.2507 122.383 35.2507C122.87 35.2507 123.04 35.785 123.359 35.8381C123.703 35.8955 123.893 36.1972 124.128 36.4089C124.525 36.7664 124.784 37.2658 125.104 37.6663C125.375 38.0044 125.187 40.8079 124.839 41.0248C124.244 41.3967 124.021 42.196 123.284 42.4063C123.082 42.4641 123.24 42.6772 122.904 42.6959C122.675 42.7086 122.576 42.9607 122.383 43.0681C122.14 43.2029 121.457 43.6265 121.406 43.8044C121.228 44.4293 119.198 44.1849 118.734 44.1849C118.157 44.1849 116.054 43.7258 116.054 43.1426" stroke="#FFC7C7" stroke-width="0.914712" stroke-linecap="round"/>
<path d="M109.205 38.5266C107.523 40.3014 107.12 42.546 107.12 44.9294C107.12 46.2756 107.963 49.2476 109.651 49.2476C110.26 49.2476 111.603 49.8007 112.067 49.4296C112.646 48.9668 113.116 48.3058 113.639 47.7255C114.187 47.1159 114.714 45.8989 114.714 45.0783C114.714 44.6416 114.973 42.8644 115.31 42.6959" stroke="#FFC7C7" stroke-width="0.914712" stroke-linecap="round"/>
<path d="M104.142 30.6349C105.161 30.6349 106.456 30.4079 107.418 30.85C108.031 31.1319 108.627 31.4904 109.238 31.7103C109.649 31.8585 110.232 32.3097 110.595 32.5707C110.968 32.8394 111.401 33.1293 111.736 33.4641" stroke="#FFC7C7" stroke-width="0.914712" stroke-linecap="round"/>
<path d="M103.1 31.0815C102.855 31.3265 101.968 31.8095 101.909 32.1239C101.886 32.2459 101.783 32.3432 101.685 32.4217C101.555 32.5261 101.693 32.8131 101.528 32.8601C101.151 32.968 101.281 33.3131 101.131 33.6129C100.935 34.0061 100.533 34.4376 100.271 34.8041C99.9847 35.2048 99.9944 35.5935 99.7083 35.8795C99.5007 36.0871 99.3774 36.9167 99.3774 37.1866C99.3774 37.6719 99.3774 38.1572 99.3774 38.6425C99.3774 39.4335 99.7447 39.7218 100.552 39.9909C101.422 40.281 102.317 40.3135 103.249 40.3135C103.82 40.3135 104.379 40.2623 104.821 39.8503C105.156 39.5375 106.05 38.8773 106.525 38.8245C106.916 38.781 107.194 38.4995 107.559 38.3778C107.986 38.2355 108.424 38.1142 108.874 37.9642C109.354 37.8043 110.694 37.6677 110.694 37.0377" stroke="#FFC7C7" stroke-width="0.914712" stroke-linecap="round"/>
<path d="M89.8472 40.6113C89.8472 41.7429 89.5494 42.7348 89.5494 43.8541C89.5494 45.1349 89.1109 46.1289 90.145 47.163C90.7802 47.7983 91.1132 48.6607 91.816 49.3635C92.1356 49.6831 92.1832 50.0021 92.5274 50.1742C92.9491 50.385 93.4362 50.7367 93.8676 50.7367C95.0849 50.7367 96.1435 50.1199 97.2923 49.9922C97.8173 49.9339 98.3582 49.3395 98.7813 49.0657C99.3568 48.6933 99.3583 48.1787 99.559 47.5767C99.7538 46.9922 99.9185 46.3541 100.155 45.8229C100.404 45.2623 100.571 44.5304 100.899 44.0526C101.526 43.1384 101.427 41.9058 101.759 40.9091" stroke="#FFC7C7" stroke-width="0.914712" stroke-linecap="round"/>
<path d="M90.4432 27.5078C90.0342 27.8953 89.5506 28.086 89.161 28.4757C88.8209 28.8158 88.7031 29.1759 88.4165 29.5263C88.0518 29.972 87.7528 30.4234 87.4982 30.9326C86.9318 32.0654 86.2739 32.7064 86.2739 34.0595C86.2739 34.6252 86.4228 35.199 86.4228 35.6975C86.4228 36.295 86.8393 36.6723 86.8695 37.1865C86.8918 37.5644 87.3825 37.9027 87.4569 38.3115C87.5558 38.8558 87.7797 39.2925 87.9201 39.784C88.156 40.6096 90.6292 40.8152 91.0388 40.0984C91.1816 39.8484 91.5903 39.9438 91.6344 39.5689C91.6534 39.4073 92.0622 39.2373 92.1969 39.0891C92.4994 38.7564 93.0761 38.4349 93.504 38.1626C93.8976 37.9122 94.5976 37.3697 95.0261 37.3354C95.5539 37.2932 96.0477 36.684 96.5565 36.5992C97.6492 36.417 98.1564 35.2091 99.0796 34.6551" stroke="#FFC7C7" stroke-width="0.914712" stroke-linecap="round"/>
<path d="M91.0391 16.3402C91.0391 13.8473 91.474 11.9769 92.6439 9.87118C92.8947 9.41983 93.3576 8.62535 93.8351 8.41524C94.2496 8.23289 94.4366 7.30977 94.9105 7.25711C95.2558 7.21874 95.467 6.75174 95.837 6.62841C96.2053 6.50564 96.435 6.39254 96.7801 6.21479C97.1939 6.00162 97.9141 5.9587 98.3353 6.1817C99.076 6.57384 100.418 7.50996 100.577 8.22497C100.661 8.60046 101.648 8.91323 101.752 9.27556C101.89 9.76004 102.697 9.90178 102.935 10.3179C103.105 10.6154 103.226 10.6748 103.464 10.9135C103.614 11.0637 103.552 11.3212 103.696 11.5008C104.056 11.9511 104.06 12.1707 104.291 12.6921C104.645 13.4877 104.589 14.9481 104.589 15.819C104.589 16.2161 104.553 16.9646 104.217 17.2336C104.128 17.3049 104.03 17.7756 104.002 17.9037C103.923 18.258 103.825 18.1663 103.696 18.4248" stroke="#FFC7C7" stroke-width="0.914712" stroke-linecap="round"/>
<path d="M80.9134 17.6802C80.6352 18.2056 80.1801 18.5456 79.8711 19.0865C79.6662 19.445 79.5733 20.2193 79.5733 20.6582C79.5733 21.4479 78.8466 22.5332 79.3499 23.3385C79.8541 24.1452 80.1403 24.8618 81.0954 25.2742C82.8187 26.0184 84.5578 26.4654 86.4559 26.4654C87.2459 26.4654 88.2435 26.2993 89.0286 26.4737C89.5751 26.5952 90.0435 26.9121 90.5921 26.9121" stroke="#FFC7C7" stroke-width="0.914712" stroke-linecap="round"/>
<path d="M80.3179 17.829C80.7023 17.781 80.7875 17.096 80.9879 16.9356C81.465 16.554 82.2549 16.5302 82.8409 16.2738C83.7565 15.8733 85.4306 16.1911 86.4229 16.1911C86.9363 16.1911 87.6767 16.3288 88.1435 16.1167C88.4933 15.9577 89.5905 15.9325 89.9221 16.1167C90.3266 16.3414 90.561 16.3915 90.9231 16.7536C91.3267 17.1573 91.6039 17.2808 92.2301 17.5312" stroke="#FFC7C7" stroke-width="0.914712" stroke-linecap="round"/>
<path d="M85.2315 32.8683C84.9585 32.8683 84.6856 32.8683 84.4126 32.8683C84.0562 32.8683 84.1048 32.5892 83.8583 32.4216C83.6111 32.2534 83.3552 32.2727 83.0724 32.2727C82.7219 32.2727 82.6604 32.0421 82.3362 31.9831C81.416 31.8158 80.088 31.8317 79.4243 32.4216C78.9625 32.8321 78.2944 33.3971 77.6706 33.4639C77.2241 33.5117 76.9405 33.9579 76.5207 34.0512C76.0587 34.1539 75.3255 34.118 74.949 34.4318C74.4945 34.8105 73.4512 34.8291 73.1373 35.4327C72.9483 35.7962 72.2594 36.2097 71.9461 36.5578C71.4065 37.1573 70.9687 37.4393 70.7052 38.1543C70.4906 38.7369 70.1924 39.0792 70.1924 39.7178C70.1924 40.352 70.1924 40.9862 70.1924 41.6205C70.1924 42.0568 70.1654 42.9364 70.5232 43.2584C70.7788 43.4884 71.2775 43.7018 71.3918 44.1022C71.3964 44.118 72.0461 44.7677 72.0619 44.7722C72.5385 44.9084 72.9777 45.3761 73.4682 45.3761" stroke="#FFC7C7" stroke-width="0.914712" stroke-linecap="round"/>
<path d="M73.3193 45.9717C74.8647 46.7898 76.1459 46.7162 77.9188 46.7162C78.73 46.7162 79.3929 46.6905 80.053 47.0967C80.72 47.5072 82.8034 47.1629 83.5274 47.1629C84.5883 47.1629 85.2606 47.0991 86.1911 46.5673C86.7219 46.264 86.9379 45.589 87.3824 45.1445C88.485 44.0418 89.0248 42.4762 90.1453 41.3557" stroke="#FFC7C7" stroke-width="0.914712" stroke-linecap="round"/>
<path d="M117.245 14.8511C116.866 14.823 116.302 14.6807 115.972 14.4706C115.668 14.2778 115.392 13.8623 115.045 13.8088C114.583 13.7378 114.391 12.9065 114.118 12.6176C113.69 12.1641 113.733 11.7366 113.556 11.1617C113.375 10.5747 113.076 9.98074 113.076 9.34174C113.076 6.88625 116.019 6.09807 117.841 5.28827C118.267 5.09915 118.661 4.93366 119.098 4.75884C119.38 4.64639 119.749 4.83863 120 4.64303C120.246 4.45199 120.361 4.42794 120.67 4.42794C121.115 4.42794 121.567 4.4033 122.01 4.42794C122.511 4.45578 122.994 4.87465 123.499 4.87465C124.065 4.87465 124.48 5.22292 124.988 5.43717C125.395 5.60836 125.94 5.47979 126.329 5.65226C127.261 6.06688 128.139 6.06587 129.158 6.06587" stroke="#FFC7C7" stroke-width="0.914712" stroke-linecap="round"/>
<path d="M117.841 15.4466C118.001 15.8053 119.018 16.3856 119.363 16.6379C119.821 16.9722 120.197 17.2352 120.67 17.4982C121.141 17.7595 121.43 18.0688 122.011 18.1269C122.64 18.1898 123.235 18.2758 123.872 18.2758C125.59 18.2758 126.807 16.8273 127.388 15.5211C127.529 15.2032 127.967 14.9895 127.967 14.6277C127.967 14.2466 128.207 13.7652 128.273 13.3703C128.337 12.9854 128.562 12.7694 128.562 12.3197C128.562 11.8233 128.562 11.327 128.562 10.8307C128.562 9.38854 129.158 8.05564 129.158 6.66138" stroke="#FFC7C7" stroke-width="0.914712" stroke-linecap="round"/>
<path d="M113.821 23.3385C114.333 22.6261 114.796 22.1185 115.393 21.5517C115.575 21.3783 116.219 21.0508 116.319 20.8899C116.543 20.5321 117.56 19.7888 117.99 19.7649C118.463 19.7386 118.775 19.3962 119.247 19.2851C119.814 19.1518 120.126 18.7836 120.637 18.6068C121.002 18.4805 121.991 18.4642 122.159 18.127" stroke="#FFC7C7" stroke-width="0.914712" stroke-linecap="round"/>
<path d="M127.073 16.6378C128.052 16.6378 129.005 16.1911 129.977 16.1911C130.98 16.1911 131.744 15.8933 132.732 15.8933" stroke="#FFC7C7" stroke-width="0.914712" stroke-linecap="round"/>
<path d="M136.901 10.6818C136.106 10.6818 135.1 10.4906 134.436 10.9134C133.77 11.3367 133.341 12.2636 132.996 12.9153C132.559 13.7416 132.759 14.1833 133.178 14.9172C133.649 15.741 134.458 15.5395 135.18 15.8603C135.975 16.2137 137.451 15.8934 138.324 15.8934C139.406 15.8934 139.879 14.2735 139.879 13.362C139.879 12.5205 139.482 11.7766 138.613 11.5835C138.159 11.4826 138.154 12.0219 137.645 12.0219C137.226 12.0219 137.097 11.4499 136.752 11.2774" stroke="#FFC7C7" stroke-width="0.914712" stroke-linecap="round"/>
<path d="M114.268 24.9764C114.333 25.4975 116.619 24.0183 116.956 23.934C117.815 23.7194 118.416 23.1866 119.264 23.0324C120.138 22.8735 120.94 22.1957 121.862 22.1472C122.457 22.1159 123.263 21.9867 123.797 21.7336C124.571 21.3672 125.494 21.5991 126.271 21.2538C127.063 20.9017 128.127 20.8071 129.009 20.8071C129.753 20.8071 130.498 20.8071 131.242 20.8071C131.63 20.8071 133.164 20.8357 133.327 20.5093" stroke="#FFC7C7" stroke-width="0.914712" stroke-linecap="round"/>
<path d="M133.327 21.2538C133.748 21.3064 133.827 22.088 134.005 22.1389C134.447 22.2651 134.61 22.9061 135.023 23.1813C135.219 23.3121 135.237 23.5695 135.271 23.7769C135.299 23.943 135.645 24.3131 135.743 24.5297C135.998 25.0962 136.54 25.2972 137.05 25.5389C137.7 25.8469 138.661 26.3165 139.358 26.3165C140.075 26.3165 140.792 26.3165 141.509 26.3165C142.25 26.3165 142.352 25.5728 142.418 24.9764C142.505 24.1985 142.938 22.2856 142.377 21.5847C142.261 21.4394 142.319 21.2287 142.195 21.1049C141.932 20.8418 141.807 20.9391 141.649 20.5837C141.521 20.2952 140.851 20.2233 140.59 20.2115C139.976 20.1835 139.468 19.8289 138.853 19.773C137.976 19.6933 136.619 19.5749 136.04 20.0957C135.351 20.7164 134.965 21.1707 134.965 22.1472" stroke="#FFC7C7" stroke-width="0.914712" stroke-linecap="round"/>
<path d="M135.412 23.9341C136.108 23.9341 136.244 24.3921 136.826 24.5215C137.331 24.6336 138.398 24.6364 138.869 24.4967C139.429 24.331 140.329 24.2357 140.78 23.8597C140.972 23.7004 141.357 23.6904 141.484 23.4874C141.655 23.2139 141.88 22.9749 142.112 22.7429" stroke="#FFC7C7" stroke-width="0.914712" stroke-linecap="round"/>
<path d="M75.2552 7.85278C75.1651 8.66378 74.046 10.3535 74.8085 11.2114C75.0631 11.4977 75.0402 12.3617 75.0981 12.7666C75.2018 13.4927 75.4956 14.3438 75.7681 15.0332C76.4963 16.875 78.5289 17.2826 80.169 17.8293" stroke="#FFC7C7" stroke-width="0.914712" stroke-linecap="round"/>
<path d="M74.9575 8.15049C74.9575 6.2019 76.7633 4.75675 78.0845 3.60068C79.012 2.78914 80.2856 1.72184 81.4431 1.30096C82.9718 0.745046 84.1575 0.93418 85.3476 2.07857C85.8947 2.60457 86.4158 2.78276 86.9442 3.31115C87.2088 3.57574 88.1276 4.2315 88.5077 4.27902C88.8854 4.32624 89.3711 5.02327 89.5831 5.28825C89.9303 5.72224 90.3128 6.07957 90.6668 6.50429C91.0822 7.00287 92.023 8.28518 91.5602 9.11836C91.2686 9.64323 91.0159 10.2508 90.8984 10.8969C90.8421 11.2065 90.8647 11.309 90.7081 11.5753C90.5121 11.9085 90.5542 12.1449 90.4103 12.4687C90.1962 12.9505 90.1014 13.456 89.9222 13.9577C89.8041 14.2886 89.8478 14.6529 89.8478 15C89.8478 15.2047 90.2013 15.5956 89.9967 15.5956" stroke="#FFC7C7" stroke-width="0.914712" stroke-linecap="round"/>
<path d="M79.1265 6.36377C79.2 7.17306 79.6731 8.30349 80.1026 9.01093C80.4839 9.63887 80.5968 10.3153 81.0622 10.897C81.1898 11.0566 81.4514 11.5774 81.5006 11.7987C81.5515 12.0277 82.0099 12.4474 82.1707 12.6839C82.4463 13.0891 84.0061 15.1257 84.487 14.4045" stroke="#FFC7C7" stroke-width="0.914712" stroke-linecap="round"/>
<path d="M83.1471 6.06567C83.1471 8.08289 82.7934 10.0103 82.8492 12.0218C82.8712 12.8128 83.9505 15.7547 85.0828 14.9998" stroke="#FFC7C7" stroke-width="0.914712" stroke-linecap="round"/>
<path d="M86.1249 6.66138C86.1249 7.82515 85.5505 8.24403 85.2315 9.201C85.1412 9.47197 84.9934 9.77023 84.8592 10.0117C84.673 10.3469 84.7463 10.6566 84.6028 10.9796C84.3055 11.6484 84.487 12.7114 84.487 13.4365C84.487 13.6654 84.3953 14.1472 84.5697 14.3216C84.7908 14.5427 85.0826 14.6581 85.0826 14.9999" stroke="#FFC7C7" stroke-width="0.914712" stroke-linecap="round"/>
<path d="M97.7397 12.022C97.7397 15.417 97.8886 18.7581 97.8886 22.1474" stroke="#FFC7C7" stroke-width="0.914712" stroke-linecap="round"/>
<path d="M101.164 14.4043C101.011 15.4628 100.838 16.6568 100.271 17.5892C100.058 17.9393 100.066 18.1099 99.9397 18.4743C99.8703 18.6749 99.5867 18.7106 99.5344 18.9458C99.3707 19.6823 98.7034 21.7005 97.8882 21.7005" stroke="#FFC7C7" stroke-width="0.914712" stroke-linecap="round"/>
<path d="M94.6127 15.7444C94.3347 16.6246 94.8196 17.9718 95.0263 18.8383C95.1085 19.1831 95.1923 19.6624 95.3654 19.9798C95.5256 20.2734 95.954 20.7581 96.2506 20.9229C96.6266 21.1318 96.7589 21.5901 97.2185 21.6922C97.4187 21.7367 97.9617 21.9983 97.8885 21.9983" stroke="#FFC7C7" stroke-width="0.914712" stroke-linecap="round"/>
<path d="M83.2959 17.978C84.6229 18.4558 85.9639 18.9821 87.308 19.3182C88.5747 19.6348 89.6958 20.4968 90.8899 20.9561C92.3849 21.5311 93.5006 22.3723 95.0592 22.8918" stroke="#FFC7C7" stroke-width="0.914712" stroke-linecap="round"/>
<path d="M85.6787 21.2539C86.7041 21.7396 87.8397 21.4913 88.938 21.56C89.6787 21.6063 90.2991 21.9984 91.0392 21.9984C91.7091 21.9984 92.9477 22.269 93.4217 22.7429" stroke="#FFC7C7" stroke-width="0.914712" stroke-linecap="round"/>
<path d="M87.1675 23.1897C87.5597 23.5384 88.7298 23.4036 89.219 23.4544C89.9185 23.5271 90.6339 23.4875 91.3368 23.4875C92.1805 23.4875 93.0243 23.4875 93.8681 23.4875" stroke="#FFC7C7" stroke-width="0.914712" stroke-linecap="round"/>
<path d="M90.4429 25.1253C91.3348 25.9181 94.6874 24.9196 95.3567 24.083" stroke="#FFC7C7" stroke-width="0.914712" stroke-linecap="round"/>
<path d="M97.2924 21.8495C96.2772 21.8871 95.3566 22.459 95.3566 23.5619C95.3566 24.8719 95.4164 25.4757 96.6968 26.0518C97.467 26.3984 98.1368 26.0104 98.8641 25.8781C100.051 25.6623 100.137 24.4975 100.279 23.504C100.349 23.0144 100.549 21.6002 99.6748 21.5517C98.7312 21.4993 97.4389 20.8979 96.5478 21.3697C95.773 21.7799 95.0875 23.1358 94.8355 23.9424C94.4252 25.2554 95.372 25.572 96.4734 25.572C97.0929 25.572 98.3323 25.6059 98.6656 24.9764C98.9941 24.3558 99.0232 22.7429 98.1113 22.7429C96.9571 22.7429 96.3989 23.633 96.3989 24.7117C96.3989 25.2084 96.903 25.4486 97.2924 25.0592C97.7178 24.6337 97.8578 23.9122 97.888 23.3385C97.9455 22.2446 96.3114 22.4348 97.0028 23.7025C97.4821 24.5812 99.6069 22.7429 97.524 22.7429C96.9247 22.7429 96.4178 23.0601 96.3989 23.719C96.3732 24.6185 96.5971 24.8088 97.5902 24.8275C98.8653 24.8516 98.9303 24.2148 98.9303 23.0407" stroke="#FFC7C7" stroke-width="0.914712" stroke-linecap="round"/>
<path d="M97.4414 26.9121C97.4414 27.7639 97.6602 28.6086 97.8798 29.3773C97.951 29.6263 98.037 31.6643 98.037 31.0814" stroke="#FFC7C7" stroke-width="0.914712" stroke-linecap="round"/>
<path d="M95.8038 26.9121C95.3861 27.3297 94.0948 27.9269 94.0169 28.55C93.9775 28.8655 93.5019 29.1242 93.4296 29.3773C93.2984 29.8365 92.9516 30.114 92.8092 30.5768C92.5513 31.415 91.9041 32.1636 91.5187 32.9344C91.2775 33.4167 91.096 33.9696 90.8073 34.4234C90.4971 34.9108 90.317 35.2012 90.2944 35.8132C90.2877 35.9918 89.8477 37.1631 89.8477 36.7397" stroke="#FFC7C7" stroke-width="0.914712" stroke-linecap="round"/>
<path d="M100.568 23.0407C101.11 23.0407 101.521 22.7134 101.991 22.4782C102.38 22.284 102.812 22.2787 103.182 22.1142C103.681 21.8924 104.243 21.6728 104.804 21.5848C105.99 21.3987 107.143 21.7006 108.311 21.7006" stroke="#FFC7C7" stroke-width="0.914712" stroke-linecap="round"/>
<path d="M100.568 24.5299C101.679 24.4715 102.662 23.9343 103.811 23.9343C104.219 23.9343 104.627 23.9343 105.035 23.9343C105.681 23.9343 106.326 23.9343 106.971 23.9343" stroke="#FFC7C7" stroke-width="0.914712" stroke-linecap="round"/>
<path d="M98.7812 25.572C98.8309 25.9694 99.646 26.2973 99.9725 26.3165C100.483 26.3466 100.693 26.8845 101.164 26.9121C101.543 26.9345 102.195 27.3939 102.62 27.5408C102.952 27.656 103.54 27.7939 103.695 28.1034" stroke="#FFC7C7" stroke-width="0.914712" stroke-linecap="round"/>
<path d="M96.995 27.3589C96.995 28.4248 96.4281 29.2667 96.3994 30.2708C96.3712 31.257 96.1016 32.1697 96.1016 33.1661" stroke="#FFC7C7" stroke-width="0.914712" stroke-linecap="round"/>
<path d="M97.5908 26.9121C97.9228 27.4004 98.122 28.0422 98.5504 28.4094C98.7033 28.5405 99.1972 29.105 99.2288 29.2946C99.2765 29.5812 100.42 30.6961 100.42 30.0391" stroke="#FFC7C7" stroke-width="0.914712" stroke-linecap="round"/>
<path d="M98.7812 25.7209C98.7812 27.1431 101.502 30.7155 100.866 29.4435" stroke="#FFC7C7" stroke-width="0.914712" stroke-linecap="round"/>
<path d="M96.1014 26.3167C95.533 26.4717 94.8158 26.9463 94.2815 27.2432C93.6133 27.6144 92.7888 27.64 92.0811 27.9546" stroke="#FFC7C7" stroke-width="0.914712" stroke-linecap="round"/>
<path d="M95.9525 25.2744C95.6442 26.302 94.1539 26.3721 93.3301 26.689C92.8104 26.8889 92.1813 26.9245 91.6343 27.0612" stroke="#FFC7C7" stroke-width="0.914712" stroke-linecap="round"/>
<path d="M74.5103 37.4843C75.3139 37.4341 76.1062 36.8887 76.8927 36.8887C77.9911 36.8887 79.2955 36.7135 80.3506 37.0045C80.8384 37.1391 81.4559 37.0376 81.9637 37.0376C82.6106 37.0376 83.2204 37.1865 83.858 37.1865C84.3654 37.1865 84.8728 37.1865 85.3802 37.1865C85.8114 37.1865 85.9922 37.4843 86.4225 37.4843" stroke="#FFC7C7" stroke-width="0.914712" stroke-linecap="round"/>
<path d="M75.4038 42.398C76.0575 42.398 77.329 41.852 77.8607 41.4385C78.2298 41.1514 78.7411 41.313 79.0933 41.0248C79.6251 40.5898 80.3454 40.9542 80.9132 40.727C81.4181 40.5251 82.0051 40.6112 82.5511 40.6112C83.1311 40.6112 83.7069 40.3134 84.2718 40.3134C84.8906 40.3134 85.4896 40.0388 86.0917 40.0156C86.5177 39.9992 86.955 40.1074 87.316 39.8667" stroke="#FFC7C7" stroke-width="0.914712" stroke-linecap="round"/>
<path d="M87.912 40.0156C86.6214 40.3024 85.4058 40.9283 84.1149 41.2151C83.6205 41.325 83.0776 42.2584 82.6176 42.3898C81.8062 42.6216 81.3655 43.9829 80.6157 44.4827" stroke="#FFC7C7" stroke-width="0.914712" stroke-linecap="round"/>
<path d="M77.4888 39.8669C78.4606 40.0164 79.3037 39.5978 80.2352 39.4284C80.721 39.3401 81.2481 39.4588 81.7408 39.4119C82.6653 39.3238 83.5522 39.2712 84.4872 39.2712C85.3702 39.2712 86.3413 39.4343 87.1674 39.7097C88.1756 40.0457 89.3994 39.8669 90.4433 39.8669" stroke="#FFC7C7" stroke-width="0.914712" stroke-linecap="round"/>
<path d="M61.6951 6.66846C61.2656 6.71618 60.83 7.02944 60.4009 7.1367C60.0538 7.22349 59.8131 7.46412 59.458 7.55291C59.0476 7.65551 58.7221 8.04274 58.3264 8.07318C58.0711 8.09282 58.0575 8.39932 57.8321 8.42437C57.6235 8.44755 57.4809 8.50494 57.2923 8.60646C56.6064 8.9758 55.934 9.16439 55.3218 9.66C54.3072 10.4814 53.852 11.5685 53.2407 12.7036C52.7851 13.5498 52.0679 14.1746 51.5759 14.9798C51.3356 15.3729 51.0705 15.757 50.8345 16.1504C50.7601 16.2743 50.7241 16.5457 50.6329 16.6186C50.2637 16.914 50.1836 18.3205 50.5158 18.7192C50.7141 18.9571 50.8645 19.4799 51.1597 19.6362C51.4954 19.8139 51.6073 19.9876 51.836 20.2735C51.9837 20.4581 51.862 21.1366 51.862 21.3661C51.862 22.0756 52.0495 22.6001 52.2002 23.278C52.4263 24.2955 53.346 24.9993 54.3463 25.3071C55.0957 25.5377 55.9919 25.9298 56.5444 26.4517C56.8503 26.7405 57.6341 27.1816 58.0077 27.2646C58.607 27.3978 59.0941 28.1138 59.7051 28.2011C60.1185 28.2602 60.4964 28.6758 60.8757 28.6758C61.461 28.6758 62.0463 28.6758 62.6316 28.6758C63.2386 28.6758 63.8742 28.5588 64.446 28.5588C64.9298 28.5588 64.9797 28.0444 65.2134 27.7329C65.6951 27.0906 66.2098 25.8896 66.384 25.1055C66.4906 24.6257 66.7492 24.2362 66.8718 23.7593C66.9391 23.4973 67.1471 23.2303 67.1905 22.9919C67.2389 22.7255 67.212 22.4935 67.34 22.2375C67.7719 21.3738 67.8993 20.3224 67.8993 19.363C67.8993 18.5528 67.8452 17.231 68.6017 16.8527" stroke="#FFC7C7" stroke-width="0.914712" stroke-linecap="round"/>
<path d="M61.2271 6.66846C61.6249 6.67982 62.0016 6.78552 62.3977 6.78552C62.6595 6.78552 62.7474 6.99193 62.983 7.01964C63.2749 7.05399 63.5913 7.47547 63.8024 7.48788C65.5049 7.58803 66.3057 9.65093 66.7874 10.9997C66.9979 11.5892 66.8555 12.2748 67.0215 12.8727C67.1395 13.2973 67.2419 13.8042 67.3077 14.2319C67.4257 14.9988 67.9478 16.0333 68.836 16.0333" stroke="#FFC7C7" stroke-width="0.914712" stroke-linecap="round"/>
<path d="M88.2679 15.565C87.3208 15.565 87.5655 13.6645 87.5655 13.0287C87.5655 12.449 87.6391 12.297 87.8907 11.8191C88.0249 11.5641 88.296 11.3834 88.3849 11.1167" stroke="#FFC7C7" stroke-width="0.914712" stroke-linecap="round"/>
<path d="M78.0835 12.4043C78.4625 12.7412 78.9217 12.9607 79.3451 13.2497C79.9785 13.682 80.7151 14.2419 81.4392 14.5114C82.4588 14.8907 83.3835 15.5649 84.5218 15.5649" stroke="#FFC7C7" stroke-width="0.914712" stroke-linecap="round"/>
<path d="M79.1372 35.1143C80.359 35.1143 81.3565 35.0352 82.597 35.2833C83.6292 35.4898 85.623 35.6774 86.1608 36.7531" stroke="#FFC7C7" stroke-width="0.914712" stroke-linecap="round"/>
<path d="M96.1111 37.3384C95.5806 37.7805 95.0995 38.2255 94.5893 38.6846C93.9741 39.2383 93.788 40.2514 93.2431 40.8567C92.8482 41.2955 92.6545 42.0901 92.3392 42.6061C91.9185 43.2945 91.6567 44.0324 91.4287 44.8303" stroke="#FFC7C7" stroke-width="0.914712" stroke-linecap="round"/>
<path d="M96.9305 36.7532C96.9078 37.1835 96.4739 37.5304 96.4622 37.8327C96.4436 38.3174 96.2823 38.7001 96.2346 39.1529C96.1901 39.5759 95.8769 39.9329 95.8769 40.3365C95.8769 40.7262 95.7031 41.3104 95.5518 41.6697C95.4209 41.9804 95.5634 42.4151 95.4997 42.7493C95.4111 43.2147 95.4087 43.6615 95.4087 44.1345C95.4087 44.9127 95.4087 45.691 95.4087 46.4692" stroke="#FFC7C7" stroke-width="0.914712" stroke-linecap="round"/>
<path d="M117.727 15.2922C118.754 14.265 119.691 13.2533 120.776 12.3657C121.58 11.7081 122.465 11.0856 123.319 10.4508C123.73 10.1456 124.063 9.65264 124.49 9.43921" stroke="#FFC7C7" stroke-width="0.914712" stroke-linecap="round"/>
<path d="M137.497 12.4309C137.497 12.8364 137.536 13.1733 137.309 13.5293C137.188 13.7192 136.977 14.1638 136.977 14.3819C136.977 14.7312 136.587 14.612 136.587 14.9672C136.587 15.3883 135.992 15.5337 135.806 15.8127" stroke="#FFC7C7" stroke-width="0.914712" stroke-linecap="round"/>
<path d="M118.767 14.772C119.168 14.7942 119.588 14.9446 119.967 15.061C120.355 15.1804 120.7 15.1437 121.108 15.1839C121.912 15.2629 122.665 15.5256 123.45 15.6824" stroke="#FFC7C7" stroke-width="0.914712" stroke-linecap="round"/>
<path d="M120.328 13.6015C121.111 13.6015 121.442 12.8081 122.048 12.5898C123.22 12.168 124.409 11.5106 125.661 11.2603" stroke="#FFC7C7" stroke-width="0.914712" stroke-linecap="round"/>
<path d="M116.166 9.30933C116.166 11.1733 117.202 12.6856 118.247 14.1218" stroke="#FFC7C7" stroke-width="0.914712" stroke-linecap="round"/>
<path d="M117.986 8.78906C118.236 10.5705 118.246 12.3307 118.246 14.1218" stroke="#FFC7C7" stroke-width="0.914712" stroke-linecap="round"/>
<path d="M120.458 8.00854C120.458 9.20843 120.588 10.4111 120.588 11.636C120.588 12.1152 120.493 12.2763 120.335 12.6982C120.197 13.0672 119.935 13.2157 119.808 13.4714" stroke="#FFC7C7" stroke-width="0.914712" stroke-linecap="round"/>
<path d="M54.644 20.2349C56.0615 20.0324 56.7856 18.6346 58.0402 18.1249C59.1428 17.677 60.4178 17.3601 61.5954 17.2361C62.1009 17.1829 62.4819 16.8728 62.99 16.7881C64.554 16.5275 66.1785 16.593 67.7808 16.593" stroke="#FFC7C7" stroke-width="0.914712" stroke-linecap="round"/>
<path d="M57.1152 12.5608C58.3038 13.6173 59.9555 13.7086 61.393 14.2517C61.6543 14.3504 61.7543 14.6267 62.0578 14.6419C62.7655 14.6773 63.2825 14.9202 63.9365 15.2272C64.5047 15.4939 64.829 15.6824 65.4395 15.6824C65.7382 15.6824 66.6101 16.0604 66.6101 16.2027" stroke="#FFC7C7" stroke-width="0.914712" stroke-linecap="round"/>
<path d="M59.4565 11.5203C60.9928 13.0565 62.5219 14.5527 64.4135 15.6246C65.2033 16.0721 66.057 16.3481 66.9137 16.6579C67.2994 16.7974 68.0213 17.4519 68.171 16.853" stroke="#FFC7C7" stroke-width="0.914712" stroke-linecap="round"/>
<path d="M58.5459 24.137C59.6042 24.0311 60.5383 22.8514 61.2484 22.1571C62.1474 21.278 62.9628 20.4495 63.8787 19.5846C64.6799 18.8279 65.5285 18.1165 66.5812 17.7926C66.9189 17.6887 67.7807 17.6414 67.7807 17.2434" stroke="#FFC7C7" stroke-width="0.914712" stroke-linecap="round"/>
<path d="M57.8955 21.0151C59.5418 20.1096 61.1655 18.8898 62.9175 18.2042C64.2072 17.6996 65.5776 17.1537 66.8701 16.7229" stroke="#FFC7C7" stroke-width="0.914712" stroke-linecap="round"/>
<path d="M66.22 18.2839C66.0398 18.4441 65.8567 18.6233 65.6708 18.7753C65.4835 18.9286 65.2881 19.2063 65.1 19.3317C64.506 19.7277 64.6264 20.4458 64.3702 21.0153C64.1209 21.5693 64.1483 22.1336 63.9438 22.7062C63.755 23.235 63.6187 23.964 63.6187 24.5272" stroke="#FFC7C7" stroke-width="0.914712" stroke-linecap="round"/>
<path d="M83.9092 43.5169C84.3298 42.8924 84.6608 42.4255 84.9497 41.7754C85.0785 41.4856 85.5705 41.2571 85.8313 41.1468C86.2898 40.9528 86.7209 40.4188 87.2331 40.2724C87.512 40.1928 87.9368 40.144 88.0713 39.875" stroke="#FFC7C7" stroke-width="0.914712" stroke-linecap="round"/>
<path d="M99.2569 35.4526C98.9326 35.7409 98.9968 35.998 98.9968 36.4281C98.9968 36.9505 98.637 37.6352 98.5416 38.1696C98.4807 38.5104 98.3406 38.9999 98.1152 39.2535C97.9578 39.4306 97.9563 39.6029 97.9563 39.8243C97.9563 40.2701 97.8071 40.5274 97.6239 40.9155C97.395 41.4001 97.436 42.399 97.436 42.9387C97.436 43.2747 97.3504 43.748 97.4649 44.066C97.5384 44.2703 97.936 44.5675 97.6961 44.6874" stroke="#FFC7C7" stroke-width="0.914712" stroke-linecap="round"/>
<path d="M113.694 33.5017C113.488 33.5017 112.825 33.2754 112.791 33.5162C112.735 33.9067 112.784 34.3355 112.784 34.7301C112.784 35.8248 113.093 36.3468 114.084 36.7245C114.617 36.9275 114.774 36.4617 115.06 36.2331C115.279 36.0577 116.001 35.7506 115.681 35.3082C115.01 34.3786 114.522 33.8919 113.434 33.8919C112.906 33.8919 112.855 33.9816 113.001 34.5639C113.113 35.0118 113.324 35.973 113.889 35.973C114.661 35.973 113.292 34.8969 113.897 34.9325C114.262 34.954 115.23 35.4283 114.865 35.4527C114.572 35.4723 113.215 34.167 114.605 34.6723" stroke="#FFC7C7" stroke-width="0.914712" stroke-linecap="round"/>
<path d="M114.995 33.8919C116.724 33.8919 117.633 32.6563 119.128 32.071C119.997 31.7311 121.091 31.4207 122.019 31.4207" stroke="#FFC7C7" stroke-width="0.914712" stroke-linecap="round"/>
<path d="M115.125 36.6233C115.723 37.0549 116.362 37.2867 116.975 37.6638C117.43 37.9435 118.03 38.4628 118.507 38.6032C119.438 38.8769 120.417 39.5332 120.848 40.3952" stroke="#FFC7C7" stroke-width="0.914712" stroke-linecap="round"/>
<path d="M107.711 26.3481C107.775 26.9171 108.26 27.6236 108.492 28.1402C108.923 29.102 109.377 29.9021 109.98 30.7704C110.326 31.2682 110.649 31.7839 110.985 32.2879C111.318 32.7882 112.235 33.8391 112.784 34.0221" stroke="#FFC7C7" stroke-width="0.914712" stroke-linecap="round"/>
<path d="M110.963 27.1284C110.963 27.8733 111.396 28.3637 111.476 29.0794C111.557 29.8123 111.898 30.5206 112.032 31.2617C112.265 32.5413 112.89 34.4299 114.345 34.6723" stroke="#FFC7C7" stroke-width="0.914712" stroke-linecap="round"/>
<path d="M112.915 27.7788C113.031 29.0594 112.963 30.3381 113.052 31.623C113.149 33.031 113.734 35.1926 115.386 35.1926" stroke="#FFC7C7" stroke-width="0.914712" stroke-linecap="round"/>
<path d="M114.345 29.7297C114.397 30.2018 114.67 30.6932 114.8 31.1605C114.961 31.7391 114.831 32.3275 114.742 32.9019C114.676 33.335 114.591 33.9213 114.446 34.3254C114.364 34.5522 114.062 34.869 113.955 35.1926" stroke="#FFC7C7" stroke-width="0.914712" stroke-linecap="round"/>
<path d="M120.068 26.0879C119.744 26.1239 119.773 26.6082 119.482 26.6082C119.233 26.6082 118.862 27.2992 118.774 27.5042C118.647 27.8022 118.245 28.2445 118.052 28.5447C117.815 28.9126 117.525 29.27 117.278 29.6575C116.823 30.3727 116.463 31.036 116.137 31.8108C115.874 32.4338 115.432 33.3804 115.645 34.022" stroke="#FFC7C7" stroke-width="0.914712" stroke-linecap="round"/>
<path d="M116.816 31.8108C116.247 32.4424 116.035 33.243 115.775 34.0219" stroke="#FFC7C7" stroke-width="0.914712" stroke-linecap="round"/>
<path d="M124.49 26.0879C124.49 26.5741 124.75 26.9798 124.75 27.3886" stroke="#FFC7C7" stroke-width="0.914712" stroke-linecap="round"/>
<path d="M102.119 37.0135C104.218 35.9637 106.548 35.2832 108.882 34.9613C109.612 34.8606 110.359 34.9691 111.093 34.9324C111.38 34.9181 111.719 34.6373 112.004 34.5422" stroke="#FFC7C7" stroke-width="0.914712" stroke-linecap="round"/>
<path d="M113.044 37.2737C113.016 37.5318 112.473 38.0274 112.264 38.1552C112.009 38.3111 112.034 38.5243 111.809 38.7044C111.571 38.8947 111.374 39.2795 111.223 39.5426C111.037 39.869 110.628 40.1422 110.472 40.4965C110.21 41.0905 109.402 41.7131 109.402 42.4113C109.402 43.1267 109.402 43.8421 109.402 44.5574" stroke="#FFC7C7" stroke-width="0.914712" stroke-linecap="round"/>
<path d="M111.614 35.1926C111.614 35.6611 111.857 36.2832 112.329 36.4933C112.524 36.58 112.683 36.6815 112.849 36.8112C113.042 36.9611 113.297 36.819 113.507 36.9124C113.803 37.0439 114.326 37.0829 114.67 37.0063C115.015 36.9298 115.231 36.5268 115.516 36.4933C115.89 36.4492 116.137 34.181 115.877 33.9208C115.45 33.4942 113.372 34.0681 113.045 34.4772C112.464 35.2033 113.098 36.7187 114.15 35.9007C114.65 35.5121 114.663 34.532 114.085 34.3833C113.34 34.1916 112.526 33.9422 112.401 34.9975C112.313 35.7471 113.137 35.8864 113.724 35.8429C114.34 35.7973 114.374 34.4909 114.15 34.087C113.815 33.4847 112.823 34.3043 113.203 34.4411C113.744 34.6358 114.345 34.558 114.345 33.8919" stroke="#FFC7C7" stroke-width="0.914712" stroke-linecap="round"/>
<path d="M64.269 12.821C65.0127 13.4904 65.291 14.4929 65.931 15.1912C66.6428 15.9676 67.3346 17.1133 68.4312 17.1133" stroke="#FFC7C7" stroke-width="0.914712" stroke-linecap="round"/>
<path d="M114.345 37.6638C113.756 38.3262 114.166 39.3354 113.795 40.0773C113.526 40.6161 112.468 43.2937 113.174 43.6469" stroke="#FFC7C7" stroke-width="0.914712" stroke-linecap="round"/>
<path d="M114.865 37.2737C114.865 38.0936 114.952 38.9188 114.995 39.745C115.02 40.2107 115.002 41.6342 115.386 41.826" stroke="#FFC7C7" stroke-width="0.914712" stroke-linecap="round"/>
<path d="M115.516 37.1436C115.928 37.5974 116.278 38.1204 116.426 38.7116C116.529 39.125 116.923 39.5931 116.946 40.005C116.968 40.388 117.141 40.5754 117.214 40.9733C117.23 41.0627 117.552 41.6735 117.597 41.6959" stroke="#FFC7C7" stroke-width="0.914712" stroke-linecap="round"/>
</svg>
