<svg width="90" height="90" viewBox="0 0 90 90" fill="none" xmlns="http://www.w3.org/2000/svg">
<g clip-path="url(#clip0_794_4840)">
<g filter="url(#filter0_f_794_4840)">
<path d="M75.6279 34.9873L80.1111 76.8429" stroke="#9A726A" stroke-width="23.4375" stroke-linecap="round"/>
</g>
<g filter="url(#filter1_dd_794_4840)">
<path d="M9.99295 37.7887C10.4317 33.3956 14.0598 30.0571 18.3854 30.0571H71.8342C76.1795 30.0571 79.8161 33.4237 80.2323 37.8365L83.9842 77.4984C84.3836 81.7115 81.1351 85.3565 76.9839 85.3565H13.0164C8.85107 85.3565 5.59701 81.6834 6.0217 77.459L9.99295 37.7887Z" fill="#E4B8A4"/>
<path d="M9.99295 37.7887C10.4317 33.3956 14.0598 30.0571 18.3854 30.0571H71.8342C76.1795 30.0571 79.8161 33.4237 80.2323 37.8365L83.9842 77.4984C84.3836 81.7115 81.1351 85.3565 76.9839 85.3565H13.0164C8.85107 85.3565 5.59701 81.6834 6.0217 77.459L9.99295 37.7887Z" fill="url(#paint0_linear_794_4840)"/>
<path d="M9.99295 37.7887C10.4317 33.3956 14.0598 30.0571 18.3854 30.0571H71.8342C76.1795 30.0571 79.8161 33.4237 80.2323 37.8365L83.9842 77.4984C84.3836 81.7115 81.1351 85.3565 76.9839 85.3565H13.0164C8.85107 85.3565 5.59701 81.6834 6.0217 77.459L9.99295 37.7887Z" fill="url(#paint1_linear_794_4840)"/>
</g>
<g filter="url(#filter2_f_794_4840)">
<path d="M75.5439 37.3162L80.1114 76.843" stroke="#F4C79C" stroke-width="23.4375" stroke-linecap="round"/>
</g>
<path d="M82.4064 60.7976L83.9814 77.4982C84.3836 81.7114 81.1351 85.3564 76.9839 85.3564H13.0164C8.85107 85.3564 5.59701 81.6832 6.0217 77.4589L7.68951 60.7976H82.4064Z" fill="url(#paint2_linear_794_4840)"/>
<path d="M82.4064 60.7976L83.9814 77.4982C84.3836 81.7114 81.1351 85.3564 76.9839 85.3564H13.0164C8.85107 85.3564 5.59701 81.6832 6.0217 77.4589L7.68951 60.7976H82.4064Z" fill="url(#paint3_linear_794_4840)"/>
<path d="M82.4064 60.7976L83.9814 77.4982C84.3836 81.7114 81.1351 85.3564 76.9839 85.3564H13.0164C8.85107 85.3564 5.59701 81.6832 6.0217 77.4589L7.68951 60.7976H82.4064Z" fill="url(#paint4_linear_794_4840)"/>
<path d="M82.4064 60.7976L83.9814 77.4982C84.3836 81.7114 81.1351 85.3564 76.9839 85.3564H13.0164C8.85107 85.3564 5.59701 81.6832 6.0217 77.4589L7.68951 60.7976H82.4064Z" fill="url(#paint5_linear_794_4840)"/>
<g filter="url(#filter3_d_794_4840)">
<path d="M65.9618 31.7165V44.4852H70.1805V31.7165H65.9618ZM24.2158 44.4852V31.7165H19.9971V44.4852H24.2158ZM45.0902 10.3865C56.5793 10.3865 65.9646 19.8984 65.9646 31.7165H70.1833C70.1833 17.6455 58.9896 6.16772 45.0902 6.16772V10.3865ZM45.0902 6.16772C31.1964 6.16772 19.9971 17.6455 19.9971 31.7165H24.2158C24.2158 19.8984 33.6011 10.3865 45.0902 10.3865V6.16772Z" fill="url(#paint6_linear_794_4840)"/>
</g>
<path d="M65.9618 31.7165V44.4852H70.1805V31.7165H65.9618ZM24.2158 44.4852V31.7165H19.9971V44.4852H24.2158ZM45.0902 10.3865C56.5793 10.3865 65.9646 19.8984 65.9646 31.7165H70.1833C70.1833 17.6455 58.9896 6.16772 45.0902 6.16772V10.3865ZM45.0902 6.16772C31.1964 6.16772 19.9971 17.6455 19.9971 31.7165H24.2158C24.2158 19.8984 33.6011 10.3865 45.0902 10.3865V6.16772Z" fill="url(#paint7_radial_794_4840)"/>
<g filter="url(#filter4_f_794_4840)">
<path d="M68.1891 31.7165V44.4852H69.0328V31.7165H68.1891ZM23.0625 44.4852V31.7165H22.2188V44.4852H23.0625ZM45.6244 8.69897C58.0781 8.69897 68.1862 18.9955 68.1862 31.7165H69.0328C69.0328 18.5455 58.5591 7.85522 45.6244 7.85522V8.69897ZM45.6244 7.85522C32.6897 7.85522 22.2188 18.5455 22.2188 31.7165H23.0625C23.0625 18.9955 33.1706 8.69897 45.6244 8.69897V7.85522Z" fill="url(#paint8_linear_794_4840)"/>
</g>
<g filter="url(#filter5_f_794_4840)">
<path d="M70.3574 38.4382H63.6777C62.5128 38.4382 61.5684 39.3826 61.5684 40.5476V47.441C61.5684 48.606 62.5128 49.5504 63.6777 49.5504H70.3574C71.5224 49.5504 72.4668 48.606 72.4668 47.441V40.5476C72.4668 39.3826 71.5224 38.4382 70.3574 38.4382Z" fill="#C18F7D"/>
</g>
<g filter="url(#filter6_f_794_4840)">
<path d="M24.3027 38.4382H17.623C16.4581 38.4382 15.5137 39.3826 15.5137 40.5476V47.441C15.5137 48.606 16.4581 49.5504 17.623 49.5504H24.3027C25.4677 49.5504 26.4121 48.606 26.4121 47.441V40.5476C26.4121 39.3826 25.4677 38.4382 24.3027 38.4382Z" fill="#C18F7D"/>
</g>
<g filter="url(#filter7_d_794_4840)">
<path d="M25.5322 37.094H18.8525C17.6876 37.094 16.7432 38.0384 16.7432 39.2034V46.0968C16.7432 47.2618 17.6876 48.2062 18.8525 48.2062H25.5322C26.6972 48.2062 27.6416 47.2618 27.6416 46.0968V39.2034C27.6416 38.0384 26.6972 37.094 25.5322 37.094Z" fill="#6A4448"/>
<path d="M25.5322 37.094H18.8525C17.6876 37.094 16.7432 38.0384 16.7432 39.2034V46.0968C16.7432 47.2618 17.6876 48.2062 18.8525 48.2062H25.5322C26.6972 48.2062 27.6416 47.2618 27.6416 46.0968V39.2034C27.6416 38.0384 26.6972 37.094 25.5322 37.094Z" fill="url(#paint9_linear_794_4840)"/>
<path d="M25.5322 37.094H18.8525C17.6876 37.094 16.7432 38.0384 16.7432 39.2034V46.0968C16.7432 47.2618 17.6876 48.2062 18.8525 48.2062H25.5322C26.6972 48.2062 27.6416 47.2618 27.6416 46.0968V39.2034C27.6416 38.0384 26.6972 37.094 25.5322 37.094Z" fill="url(#paint10_linear_794_4840)"/>
<path d="M25.5322 37.094H18.8525C17.6876 37.094 16.7432 38.0384 16.7432 39.2034V46.0968C16.7432 47.2618 17.6876 48.2062 18.8525 48.2062H25.5322C26.6972 48.2062 27.6416 47.2618 27.6416 46.0968V39.2034C27.6416 38.0384 26.6972 37.094 25.5322 37.094Z" fill="url(#paint11_linear_794_4840)"/>
</g>
<path d="M71.4121 37.094H64.7324C63.5674 37.094 62.623 38.0384 62.623 39.2034V46.0968C62.623 47.2618 63.5674 48.2062 64.7324 48.2062H71.4121C72.5771 48.2062 73.5215 47.2618 73.5215 46.0968V39.2034C73.5215 38.0384 72.5771 37.094 71.4121 37.094Z" fill="#6A4448"/>
<path d="M71.4121 37.094H64.7324C63.5674 37.094 62.623 38.0384 62.623 39.2034V46.0968C62.623 47.2618 63.5674 48.2062 64.7324 48.2062H71.4121C72.5771 48.2062 73.5215 47.2618 73.5215 46.0968V39.2034C73.5215 38.0384 72.5771 37.094 71.4121 37.094Z" fill="url(#paint12_linear_794_4840)"/>
<path d="M71.4121 37.094H64.7324C63.5674 37.094 62.623 38.0384 62.623 39.2034V46.0968C62.623 47.2618 63.5674 48.2062 64.7324 48.2062H71.4121C72.5771 48.2062 73.5215 47.2618 73.5215 46.0968V39.2034C73.5215 38.0384 72.5771 37.094 71.4121 37.094Z" fill="url(#paint13_linear_794_4840)"/>
<path d="M71.4121 37.094H64.7324C63.5674 37.094 62.623 38.0384 62.623 39.2034V46.0968C62.623 47.2618 63.5674 48.2062 64.7324 48.2062H71.4121C72.5771 48.2062 73.5215 47.2618 73.5215 46.0968V39.2034C73.5215 38.0384 72.5771 37.094 71.4121 37.094Z" fill="url(#paint14_linear_794_4840)"/>
<g filter="url(#filter8_f_794_4840)">
<path d="M78.2666 63.8438L80.1116 76.8431" stroke="#966F68" stroke-width="23.4375" stroke-linecap="round"/>
</g>
<g filter="url(#filter9_f_794_4840)">
<path d="M25.791 39.3242V44.9998" stroke="#8D706D" stroke-width="7.8125" stroke-linecap="round"/>
</g>
<g filter="url(#filter10_f_794_4840)">
<path d="M71.6426 39.3242V44.9998" stroke="#8D706D" stroke-width="7.8125" stroke-linecap="round"/>
</g>
</g>
<defs>
<filter id="filter0_f_794_4840" x="48.2832" y="7.64258" width="59.1729" height="96.5452" filterUnits="userSpaceOnUse" color-interpolation-filters="sRGB">
<feFlood flood-opacity="0" result="BackgroundImageFix"/>
<feBlend mode="normal" in="SourceGraphic" in2="BackgroundImageFix" result="shape"/>
<feGaussianBlur stdDeviation="7.8125" result="effect1_foregroundBlur_794_4840"/>
</filter>
<filter id="filter1_dd_794_4840" x="-25.2656" y="-1.19287" width="171.783" height="149.049" filterUnits="userSpaceOnUse" color-interpolation-filters="sRGB">
<feFlood flood-opacity="0" result="BackgroundImageFix"/>
<feColorMatrix in="SourceAlpha" type="matrix" values="0 0 0 0 0 0 0 0 0 0 0 0 0 0 0 0 0 0 127 0" result="hardAlpha"/>
<feOffset dx="15.625" dy="15.625"/>
<feGaussianBlur stdDeviation="23.4375"/>
<feComposite in2="hardAlpha" operator="out"/>
<feColorMatrix type="matrix" values="0 0 0 0 0.741176 0 0 0 0 0.560784 0 0 0 0 0.439216 0 0 0 1 0"/>
<feBlend mode="normal" in2="BackgroundImageFix" result="effect1_dropShadow_794_4840"/>
<feColorMatrix in="SourceAlpha" type="matrix" values="0 0 0 0 0 0 0 0 0 0 0 0 0 0 0 0 0 0 127 0" result="hardAlpha"/>
<feOffset dx="3.90625" dy="3.90625"/>
<feGaussianBlur stdDeviation="7.8125"/>
<feComposite in2="hardAlpha" operator="out"/>
<feColorMatrix type="matrix" values="0 0 0 0 0.901961 0 0 0 0 0.8 0 0 0 0 0.713726 0 0 0 1 0"/>
<feBlend mode="normal" in2="effect1_dropShadow_794_4840" result="effect2_dropShadow_794_4840"/>
<feBlend mode="normal" in="SourceGraphic" in2="effect2_dropShadow_794_4840" result="shape"/>
</filter>
<filter id="filter2_f_794_4840" x="48.1992" y="9.97144" width="59.2568" height="94.2166" filterUnits="userSpaceOnUse" color-interpolation-filters="sRGB">
<feFlood flood-opacity="0" result="BackgroundImageFix"/>
<feBlend mode="normal" in="SourceGraphic" in2="BackgroundImageFix" result="shape"/>
<feGaussianBlur stdDeviation="7.8125" result="effect1_foregroundBlur_794_4840"/>
</filter>
<filter id="filter3_d_794_4840" x="12.1846" y="-5.55103" width="65.8115" height="53.9424" filterUnits="userSpaceOnUse" color-interpolation-filters="sRGB">
<feFlood flood-opacity="0" result="BackgroundImageFix"/>
<feColorMatrix in="SourceAlpha" type="matrix" values="0 0 0 0 0 0 0 0 0 0 0 0 0 0 0 0 0 0 127 0" result="hardAlpha"/>
<feOffset dy="-3.90625"/>
<feGaussianBlur stdDeviation="3.90625"/>
<feComposite in2="hardAlpha" operator="out"/>
<feColorMatrix type="matrix" values="0 0 0 0 0.494118 0 0 0 0 0.27451 0 0 0 0 0.345098 0 0 0 1 0"/>
<feBlend mode="normal" in2="BackgroundImageFix" result="effect1_dropShadow_794_4840"/>
<feBlend mode="normal" in="SourceGraphic" in2="effect1_dropShadow_794_4840" result="shape"/>
</filter>
<filter id="filter4_f_794_4840" x="15.9688" y="1.60522" width="59.3145" height="49.1299" filterUnits="userSpaceOnUse" color-interpolation-filters="sRGB">
<feFlood flood-opacity="0" result="BackgroundImageFix"/>
<feBlend mode="normal" in="SourceGraphic" in2="BackgroundImageFix" result="shape"/>
<feGaussianBlur stdDeviation="3.125" result="effect1_foregroundBlur_794_4840"/>
</filter>
<filter id="filter5_f_794_4840" x="45.9434" y="22.8132" width="42.1484" height="42.3623" filterUnits="userSpaceOnUse" color-interpolation-filters="sRGB">
<feFlood flood-opacity="0" result="BackgroundImageFix"/>
<feBlend mode="normal" in="SourceGraphic" in2="BackgroundImageFix" result="shape"/>
<feGaussianBlur stdDeviation="7.8125" result="effect1_foregroundBlur_794_4840"/>
</filter>
<filter id="filter6_f_794_4840" x="-0.111328" y="22.8132" width="42.1484" height="42.3623" filterUnits="userSpaceOnUse" color-interpolation-filters="sRGB">
<feFlood flood-opacity="0" result="BackgroundImageFix"/>
<feBlend mode="normal" in="SourceGraphic" in2="BackgroundImageFix" result="shape"/>
<feGaussianBlur stdDeviation="7.8125" result="effect1_foregroundBlur_794_4840"/>
</filter>
<filter id="filter7_d_794_4840" x="12.8369" y="30.844" width="23.3984" height="23.6123" filterUnits="userSpaceOnUse" color-interpolation-filters="sRGB">
<feFlood flood-opacity="0" result="BackgroundImageFix"/>
<feColorMatrix in="SourceAlpha" type="matrix" values="0 0 0 0 0 0 0 0 0 0 0 0 0 0 0 0 0 0 127 0" result="hardAlpha"/>
<feOffset dx="2.34375"/>
<feGaussianBlur stdDeviation="3.125"/>
<feComposite in2="hardAlpha" operator="out"/>
<feColorMatrix type="matrix" values="0 0 0 0 0.509804 0 0 0 0 0.45098 0 0 0 0 0.443137 0 0 0 1 0"/>
<feBlend mode="normal" in2="BackgroundImageFix" result="effect1_dropShadow_794_4840"/>
<feBlend mode="normal" in="SourceGraphic" in2="effect1_dropShadow_794_4840" result="shape"/>
</filter>
<filter id="filter8_f_794_4840" x="50.9209" y="36.4985" width="56.5361" height="67.6897" filterUnits="userSpaceOnUse" color-interpolation-filters="sRGB">
<feFlood flood-opacity="0" result="BackgroundImageFix"/>
<feBlend mode="normal" in="SourceGraphic" in2="BackgroundImageFix" result="shape"/>
<feGaussianBlur stdDeviation="7.8125" result="effect1_foregroundBlur_794_4840"/>
</filter>
<filter id="filter9_f_794_4840" x="14.0723" y="27.6055" width="23.4375" height="29.113" filterUnits="userSpaceOnUse" color-interpolation-filters="sRGB">
<feFlood flood-opacity="0" result="BackgroundImageFix"/>
<feBlend mode="normal" in="SourceGraphic" in2="BackgroundImageFix" result="shape"/>
<feGaussianBlur stdDeviation="3.90625" result="effect1_foregroundBlur_794_4840"/>
</filter>
<filter id="filter10_f_794_4840" x="59.9238" y="27.6055" width="23.4375" height="29.113" filterUnits="userSpaceOnUse" color-interpolation-filters="sRGB">
<feFlood flood-opacity="0" result="BackgroundImageFix"/>
<feBlend mode="normal" in="SourceGraphic" in2="BackgroundImageFix" result="shape"/>
<feGaussianBlur stdDeviation="3.90625" result="effect1_foregroundBlur_794_4840"/>
</filter>
<linearGradient id="paint0_linear_794_4840" x1="84.0179" y1="62.9493" x2="57.0404" y2="68.6474" gradientUnits="userSpaceOnUse">
<stop stop-color="#E8B585"/>
<stop offset="1" stop-color="#E8B585" stop-opacity="0"/>
</linearGradient>
<linearGradient id="paint1_linear_794_4840" x1="8.21826" y1="59.1862" x2="27.2026" y2="60.0468" gradientUnits="userSpaceOnUse">
<stop stop-color="#C18F70"/>
<stop offset="1" stop-color="#C18F70" stop-opacity="0"/>
</linearGradient>
<linearGradient id="paint2_linear_794_4840" x1="45.0001" y1="60.7976" x2="45.0001" y2="85.3564" gradientUnits="userSpaceOnUse">
<stop stop-color="#90605D"/>
<stop offset="1" stop-color="#744C50"/>
</linearGradient>
<linearGradient id="paint3_linear_794_4840" x1="5.98232" y1="74.6014" x2="16.1298" y2="75.1189" gradientUnits="userSpaceOnUse">
<stop offset="0.205" stop-color="#634743"/>
<stop offset="1" stop-color="#634743" stop-opacity="0"/>
</linearGradient>
<linearGradient id="paint4_linear_794_4840" x1="41.7911" y1="85.3564" x2="41.7911" y2="71.3754" gradientUnits="userSpaceOnUse">
<stop offset="0.154" stop-color="#683858"/>
<stop offset="1" stop-color="#724950" stop-opacity="0"/>
</linearGradient>
<linearGradient id="paint5_linear_794_4840" x1="5.98232" y1="71.1954" x2="9.8467" y2="71.6257" gradientUnits="userSpaceOnUse">
<stop stop-color="#AC9A95"/>
<stop offset="1" stop-color="#674A46" stop-opacity="0"/>
</linearGradient>
<linearGradient id="paint6_linear_794_4840" x1="30.4596" y1="34.169" x2="63.2618" y2="34.169" gradientUnits="userSpaceOnUse">
<stop stop-color="#69413D"/>
<stop offset="1" stop-color="#743F44"/>
</linearGradient>
<radialGradient id="paint7_radial_794_4840" cx="0" cy="0" r="1" gradientUnits="userSpaceOnUse" gradientTransform="translate(22.1023 38.075) rotate(-86.61) scale(11.7129 14.8716)">
<stop stop-color="#5F3D38"/>
<stop offset="1" stop-color="#5F3D38" stop-opacity="0"/>
</radialGradient>
<linearGradient id="paint8_linear_794_4840" x1="22.6434" y1="36.1209" x2="69.6656" y2="36.1209" gradientUnits="userSpaceOnUse">
<stop stop-color="#7A5354"/>
<stop offset="1" stop-color="#987772"/>
</linearGradient>
<linearGradient id="paint9_linear_794_4840" x1="16.7432" y1="44.1281" x2="19.9241" y2="44.1281" gradientUnits="userSpaceOnUse">
<stop offset="0.483" stop-color="#593B39"/>
<stop offset="1" stop-color="#593B39" stop-opacity="0"/>
</linearGradient>
<linearGradient id="paint10_linear_794_4840" x1="23.3947" y1="48.2062" x2="23.3947" y2="45.644" gradientUnits="userSpaceOnUse">
<stop offset="0.194" stop-color="#602E4C"/>
<stop offset="1" stop-color="#602E4C" stop-opacity="0"/>
</linearGradient>
<linearGradient id="paint11_linear_794_4840" x1="22.1938" y1="37.094" x2="22.1938" y2="39.4171" gradientUnits="userSpaceOnUse">
<stop offset="0.278" stop-color="#6A443D"/>
<stop offset="1" stop-color="#6A443D" stop-opacity="0"/>
</linearGradient>
<linearGradient id="paint12_linear_794_4840" x1="62.623" y1="44.1281" x2="65.8012" y2="44.1281" gradientUnits="userSpaceOnUse">
<stop offset="0.483" stop-color="#593B39"/>
<stop offset="1" stop-color="#593B39" stop-opacity="0"/>
</linearGradient>
<linearGradient id="paint13_linear_794_4840" x1="69.2746" y1="48.2062" x2="69.2746" y2="45.644" gradientUnits="userSpaceOnUse">
<stop offset="0.194" stop-color="#602E4C"/>
<stop offset="1" stop-color="#602E4C" stop-opacity="0"/>
</linearGradient>
<linearGradient id="paint14_linear_794_4840" x1="68.0709" y1="37.094" x2="68.0709" y2="39.4171" gradientUnits="userSpaceOnUse">
<stop offset="0.278" stop-color="#6A443D"/>
<stop offset="1" stop-color="#6A443D" stop-opacity="0"/>
</linearGradient>
<clipPath id="clip0_794_4840">
<rect width="90" height="90" fill="white"/>
</clipPath>
</defs>
</svg>
