<svg width="90" height="90" viewBox="0 0 90 90" fill="none" xmlns="http://www.w3.org/2000/svg">
<g clip-path="url(#clip0_794_4712)">
<g filter="url(#filter0_d_794_4712)">
<path d="M81.956 26.2914C82.2049 26.0631 82.405 25.7868 82.5443 25.4792C82.6836 25.1715 82.7592 24.8389 82.7666 24.5012C82.7739 24.1636 82.7129 23.8279 82.5871 23.5145C82.4613 23.2011 82.2734 22.9164 82.0347 22.6775C81.796 22.4386 81.5114 22.2504 81.1981 22.1244C80.8848 21.9984 80.5492 21.9371 80.2115 21.9442C79.8739 21.9512 79.5412 22.0266 79.2334 22.1656C78.9256 22.3047 78.6492 22.5046 78.4207 22.7533L62.8085 38.3627C62.5638 38.5921 62.3677 38.8685 62.2319 39.1752C62.0961 39.482 62.0233 39.8129 62.0179 40.1484C62.0125 40.4838 62.0746 40.8169 62.2005 41.1279C62.3264 41.4389 62.5135 41.7213 62.7507 41.9586C62.9879 42.1958 63.2704 42.3829 63.5814 42.5088C63.8924 42.6347 64.2255 42.6968 64.5609 42.6914C64.8964 42.686 65.2273 42.6132 65.5341 42.4774C65.8408 42.3416 66.1172 42.1455 66.3466 41.9008L81.956 26.2914Z" fill="#C3C0C9"/>
<path d="M81.956 26.2914C82.2049 26.0631 82.405 25.7868 82.5443 25.4792C82.6836 25.1715 82.7592 24.8389 82.7666 24.5012C82.7739 24.1636 82.7129 23.8279 82.5871 23.5145C82.4613 23.2011 82.2734 22.9164 82.0347 22.6775C81.796 22.4386 81.5114 22.2504 81.1981 22.1244C80.8848 21.9984 80.5492 21.9371 80.2115 21.9442C79.8739 21.9512 79.5412 22.0266 79.2334 22.1656C78.9256 22.3047 78.6492 22.5046 78.4207 22.7533L62.8085 38.3627C62.5638 38.5921 62.3677 38.8685 62.2319 39.1752C62.0961 39.482 62.0233 39.8129 62.0179 40.1484C62.0125 40.4838 62.0746 40.8169 62.2005 41.1279C62.3264 41.4389 62.5135 41.7213 62.7507 41.9586C62.9879 42.1958 63.2704 42.3829 63.5814 42.5088C63.8924 42.6347 64.2255 42.6968 64.5609 42.6914C64.8964 42.686 65.2273 42.6132 65.5341 42.4774C65.8408 42.3416 66.1172 42.1455 66.3466 41.9008L81.956 26.2914Z" fill="url(#paint0_linear_794_4712)"/>
<path d="M81.956 26.2914C82.2049 26.0631 82.405 25.7868 82.5443 25.4792C82.6836 25.1715 82.7592 24.8389 82.7666 24.5012C82.7739 24.1636 82.7129 23.8279 82.5871 23.5145C82.4613 23.2011 82.2734 22.9164 82.0347 22.6775C81.796 22.4386 81.5114 22.2504 81.1981 22.1244C80.8848 21.9984 80.5492 21.9371 80.2115 21.9442C79.8739 21.9512 79.5412 22.0266 79.2334 22.1656C78.9256 22.3047 78.6492 22.5046 78.4207 22.7533L62.8085 38.3627C62.5638 38.5921 62.3677 38.8685 62.2319 39.1752C62.0961 39.482 62.0233 39.8129 62.0179 40.1484C62.0125 40.4838 62.0746 40.8169 62.2005 41.1279C62.3264 41.4389 62.5135 41.7213 62.7507 41.9586C62.9879 42.1958 63.2704 42.3829 63.5814 42.5088C63.8924 42.6347 64.2255 42.6968 64.5609 42.6914C64.8964 42.686 65.2273 42.6132 65.5341 42.4774C65.8408 42.3416 66.1172 42.1455 66.3466 41.9008L81.956 26.2914Z" fill="url(#paint1_radial_794_4712)"/>
</g>
<g filter="url(#filter1_d_794_4712)">
<path d="M24.1816 52.425L35.4738 63.72L19.9966 79.4138C19.6562 79.7573 19.2328 80.0073 18.7676 80.1394L5.75415 83.8688C5.56227 83.9238 5.35922 83.9267 5.16583 83.8773C4.97245 83.8279 4.79569 83.7279 4.6537 83.5876C4.5117 83.4473 4.40959 83.2718 4.35782 83.079C4.30606 82.8863 4.30652 82.6832 4.35915 82.4907L7.86071 69.6544C7.98687 69.1925 8.22889 68.7704 8.56383 68.4282L24.1816 52.425Z" fill="#B9B4C1"/>
</g>
<path d="M24.1816 52.425L35.4738 63.72L19.9966 79.4138C19.6562 79.7573 19.2328 80.0073 18.7676 80.1394L5.75415 83.8688C5.56227 83.9238 5.35922 83.9267 5.16583 83.8773C4.97245 83.8279 4.79569 83.7279 4.6537 83.5876C4.5117 83.4473 4.40959 83.2718 4.35782 83.079C4.30606 82.8863 4.30652 82.6832 4.35915 82.4907L7.86071 69.6544C7.98687 69.1925 8.22889 68.7704 8.56383 68.4282L24.1816 52.425Z" fill="url(#paint2_linear_794_4712)"/>
<path d="M24.1816 52.425L35.4738 63.72L19.9966 79.4138C19.6562 79.7573 19.2328 80.0073 18.7676 80.1394L5.75415 83.8688C5.56227 83.9238 5.35922 83.9267 5.16583 83.8773C4.97245 83.8279 4.79569 83.7279 4.6537 83.5876C4.5117 83.4473 4.40959 83.2718 4.35782 83.079C4.30606 82.8863 4.30652 82.6832 4.35915 82.4907L7.86071 69.6544C7.98687 69.1925 8.22889 68.7704 8.56383 68.4282L24.1816 52.425Z" fill="url(#paint3_linear_794_4712)"/>
<path d="M24.1816 52.425L35.4738 63.72L19.9966 79.4138C19.6562 79.7573 19.2328 80.0073 18.7676 80.1394L5.75415 83.8688C5.56227 83.9238 5.35922 83.9267 5.16583 83.8773C4.97245 83.8279 4.79569 83.7279 4.6537 83.5876C4.5117 83.4473 4.40959 83.2718 4.35782 83.079C4.30606 82.8863 4.30652 82.6832 4.35915 82.4907L7.86071 69.6544C7.98687 69.1925 8.22889 68.7704 8.56383 68.4282L24.1816 52.425Z" fill="url(#paint4_radial_794_4712)"/>
<path d="M14.8416 76.1148C16.3591 76.1148 17.5894 74.8845 17.5894 73.367C17.5894 71.8494 16.3591 70.6191 14.8416 70.6191C13.324 70.6191 12.0938 71.8494 12.0938 73.367C12.0938 74.8845 13.324 76.1148 14.8416 76.1148Z" fill="url(#paint5_radial_794_4712)"/>
<path d="M14.8416 76.1148C16.3591 76.1148 17.5894 74.8845 17.5894 73.367C17.5894 71.8494 16.3591 70.6191 14.8416 70.6191C13.324 70.6191 12.0938 71.8494 12.0938 73.367C12.0938 74.8845 13.324 76.1148 14.8416 76.1148Z" fill="url(#paint6_radial_794_4712)"/>
<path d="M64.7599 10.1954C66.5451 8.49027 68.9266 7.55133 71.395 7.57947C73.8635 7.60761 76.223 8.60058 77.9688 10.346C79.7146 12.0914 80.708 14.4507 80.7367 16.9192C80.7654 19.3876 79.8269 21.7693 78.1221 23.5548L30.5431 71.1367C30.0156 71.6639 29.3004 71.9601 28.5546 71.9601C27.8089 71.9601 27.0936 71.6639 26.5662 71.1367L17.1809 61.7514C16.6536 61.2239 16.3574 60.5087 16.3574 59.7629C16.3574 59.0172 16.6536 58.3019 17.1809 57.7745L64.7599 10.1954Z" fill="url(#paint7_linear_794_4712)"/>
<path d="M64.7599 10.1954C66.5451 8.49027 68.9266 7.55133 71.395 7.57947C73.8635 7.60761 76.223 8.60058 77.9688 10.346C79.7146 12.0914 80.708 14.4507 80.7367 16.9192C80.7654 19.3876 79.8269 21.7693 78.1221 23.5548L30.5431 71.1367C30.0156 71.6639 29.3004 71.9601 28.5546 71.9601C27.8089 71.9601 27.0936 71.6639 26.5662 71.1367L17.1809 61.7514C16.6536 61.2239 16.3574 60.5087 16.3574 59.7629C16.3574 59.0172 16.6536 58.3019 17.1809 57.7745L64.7599 10.1954Z" fill="url(#paint8_linear_794_4712)"/>
<path d="M64.7599 10.1954C66.5451 8.49027 68.9266 7.55133 71.395 7.57947C73.8635 7.60761 76.223 8.60058 77.9688 10.346C79.7146 12.0914 80.708 14.4507 80.7367 16.9192C80.7654 19.3876 79.8269 21.7693 78.1221 23.5548L30.5431 71.1367C30.0156 71.6639 29.3004 71.9601 28.5546 71.9601C27.8089 71.9601 27.0936 71.6639 26.5662 71.1367L17.1809 61.7514C16.6536 61.2239 16.3574 60.5087 16.3574 59.7629C16.3574 59.0172 16.6536 58.3019 17.1809 57.7745L64.7599 10.1954Z" fill="url(#paint9_linear_794_4712)"/>
<path d="M64.7599 10.1954C66.5451 8.49027 68.9266 7.55133 71.395 7.57947C73.8635 7.60761 76.223 8.60058 77.9688 10.346C79.7146 12.0914 80.708 14.4507 80.7367 16.9192C80.7654 19.3876 79.8269 21.7693 78.1221 23.5548L30.5431 71.1367C30.0156 71.6639 29.3004 71.9601 28.5546 71.9601C27.8089 71.9601 27.0936 71.6639 26.5662 71.1367L17.1809 61.7514C16.6536 61.2239 16.3574 60.5087 16.3574 59.7629C16.3574 59.0172 16.6536 58.3019 17.1809 57.7745L64.7599 10.1954Z" fill="url(#paint10_linear_794_4712)"/>
<g filter="url(#filter2_f_794_4712)">
<path d="M74.2159 12.9377C74.3813 12.7582 74.5813 12.614 74.8038 12.5138C75.0263 12.4136 75.2668 12.3593 75.5108 12.3544C75.7548 12.3494 75.9973 12.3938 76.2237 12.4849C76.4501 12.576 76.6558 12.7119 76.8284 12.8845C77.001 13.0571 77.1369 13.2628 77.228 13.4892C77.3191 13.7156 77.3635 13.9581 77.3585 14.2021C77.3535 14.4461 77.2993 14.6866 77.1991 14.9091C77.0989 15.1316 76.9547 15.3316 76.7752 15.497L26.634 65.6439C26.5687 65.7094 26.4911 65.7613 26.4057 65.7968C26.3202 65.8322 26.2287 65.8505 26.1362 65.8505C26.0437 65.8505 25.9521 65.8322 25.8667 65.7968C25.7813 65.7613 25.7037 65.7094 25.6384 65.6439L24.0718 64.0773C24.0063 64.012 23.9544 63.9344 23.9189 63.849C23.8835 63.7636 23.8652 63.672 23.8652 63.5795C23.8652 63.487 23.8835 63.3955 23.9189 63.31C23.9544 63.2246 24.0063 63.147 24.0718 63.0817L74.2159 12.9377Z" fill="url(#paint11_linear_794_4712)"/>
</g>
<g filter="url(#filter3_d_794_4712)">
<path d="M37.6031 36.2363C37.814 36.0259 38.0997 35.9077 38.3976 35.9077C38.6955 35.9077 38.9813 36.0259 39.1922 36.2363L52.2366 49.2806C52.3411 49.3851 52.4241 49.5092 52.4807 49.6458C52.5374 49.7823 52.5665 49.9287 52.5665 50.0766C52.5665 50.2244 52.5374 50.3708 52.4807 50.5074C52.4241 50.6439 52.3411 50.768 52.2366 50.8725L49.649 53.4544C49.4382 53.6648 49.1524 53.7829 48.8545 53.7829C48.5566 53.7829 48.2709 53.6648 48.06 53.4544L35.0184 40.4128C34.9138 40.3083 34.8308 40.1843 34.7742 40.0477C34.7176 39.9111 34.6885 39.7647 34.6885 39.6169C34.6885 39.469 34.7176 39.3226 34.7742 39.1861C34.8308 39.0495 34.9138 38.9254 35.0184 38.8209L37.6031 36.2363Z" fill="url(#paint12_linear_794_4712)"/>
<path d="M37.6031 36.2363C37.814 36.0259 38.0997 35.9077 38.3976 35.9077C38.6955 35.9077 38.9813 36.0259 39.1922 36.2363L52.2366 49.2806C52.3411 49.3851 52.4241 49.5092 52.4807 49.6458C52.5374 49.7823 52.5665 49.9287 52.5665 50.0766C52.5665 50.2244 52.5374 50.3708 52.4807 50.5074C52.4241 50.6439 52.3411 50.768 52.2366 50.8725L49.649 53.4544C49.4382 53.6648 49.1524 53.7829 48.8545 53.7829C48.5566 53.7829 48.2709 53.6648 48.06 53.4544L35.0184 40.4128C34.9138 40.3083 34.8308 40.1843 34.7742 40.0477C34.7176 39.9111 34.6885 39.7647 34.6885 39.6169C34.6885 39.469 34.7176 39.3226 34.7742 39.1861C34.8308 39.0495 34.9138 38.9254 35.0184 38.8209L37.6031 36.2363Z" fill="url(#paint13_radial_794_4712)"/>
</g>
<g filter="url(#filter4_d_794_4712)">
<path d="M65.9697 8.53038C66.2334 8.26675 66.591 8.11865 66.9639 8.11865C67.3368 8.11865 67.6944 8.26675 67.9581 8.53038L79.8944 20.4694C80.158 20.7332 80.3061 21.0908 80.3061 21.4637C80.3061 21.8366 80.158 22.1942 79.8944 22.4579L77.0256 25.3266C76.9733 25.3794 76.9111 25.4212 76.8426 25.4498C76.774 25.4783 76.7005 25.493 76.6263 25.493C76.552 25.493 76.4785 25.4783 76.4099 25.4498C76.3414 25.4212 76.2792 25.3794 76.2269 25.3266L63.0981 12.1979C62.9934 12.0925 62.9346 11.9499 62.9346 11.8013C62.9346 11.6527 62.9934 11.5101 63.0981 11.4048L65.9697 8.53038Z" fill="url(#paint14_linear_794_4712)"/>
<path d="M65.9697 8.53038C66.2334 8.26675 66.591 8.11865 66.9639 8.11865C67.3368 8.11865 67.6944 8.26675 67.9581 8.53038L79.8944 20.4694C80.158 20.7332 80.3061 21.0908 80.3061 21.4637C80.3061 21.8366 80.158 22.1942 79.8944 22.4579L77.0256 25.3266C76.9733 25.3794 76.9111 25.4212 76.8426 25.4498C76.774 25.4783 76.7005 25.493 76.6263 25.493C76.552 25.493 76.4785 25.4783 76.4099 25.4498C76.3414 25.4212 76.2792 25.3794 76.2269 25.3266L63.0981 12.1979C62.9934 12.0925 62.9346 11.9499 62.9346 11.8013C62.9346 11.6527 62.9934 11.5101 63.0981 11.4048L65.9697 8.53038Z" fill="url(#paint15_radial_794_4712)"/>
</g>
</g>
<defs>
<filter id="filter0_d_794_4712" x="56.5488" y="10.2249" width="36.375" height="36.373" filterUnits="userSpaceOnUse" color-interpolation-filters="sRGB">
<feFlood flood-opacity="0" result="BackgroundImageFix"/>
<feColorMatrix in="SourceAlpha" type="matrix" values="0 0 0 0 0 0 0 0 0 0 0 0 0 0 0 0 0 0 127 0" result="hardAlpha"/>
<feOffset dx="2.34375" dy="-3.90625"/>
<feGaussianBlur stdDeviation="3.90625"/>
<feComposite in2="hardAlpha" operator="out"/>
<feColorMatrix type="matrix" values="0 0 0 0 0.556863 0 0 0 0 0.470588 0 0 0 0 0.643137 0 0 0 1 0"/>
<feBlend mode="normal" in2="BackgroundImageFix" result="effect1_dropShadow_794_4712"/>
<feBlend mode="normal" in="SourceGraphic" in2="effect1_dropShadow_794_4712" result="shape"/>
</filter>
<filter id="filter1_d_794_4712" x="4.31934" y="44.6125" width="62.4043" height="62.7373" filterUnits="userSpaceOnUse" color-interpolation-filters="sRGB">
<feFlood flood-opacity="0" result="BackgroundImageFix"/>
<feColorMatrix in="SourceAlpha" type="matrix" values="0 0 0 0 0 0 0 0 0 0 0 0 0 0 0 0 0 0 127 0" result="hardAlpha"/>
<feOffset dx="15.625" dy="7.8125"/>
<feGaussianBlur stdDeviation="7.8125"/>
<feComposite in2="hardAlpha" operator="out"/>
<feColorMatrix type="matrix" values="0 0 0 0 0.654902 0 0 0 0 0.647059 0 0 0 0 0.662745 0 0 0 1 0"/>
<feBlend mode="normal" in2="BackgroundImageFix" result="effect1_dropShadow_794_4712"/>
<feBlend mode="normal" in="SourceGraphic" in2="effect1_dropShadow_794_4712" result="shape"/>
</filter>
<filter id="filter2_f_794_4712" x="0.427734" y="-11.0835" width="100.369" height="100.372" filterUnits="userSpaceOnUse" color-interpolation-filters="sRGB">
<feFlood flood-opacity="0" result="BackgroundImageFix"/>
<feBlend mode="normal" in="SourceGraphic" in2="BackgroundImageFix" result="shape"/>
<feGaussianBlur stdDeviation="11.7188" result="effect1_foregroundBlur_794_4712"/>
</filter>
<filter id="filter3_d_794_4712" x="25.3135" y="24.189" width="36.6279" height="36.6252" filterUnits="userSpaceOnUse" color-interpolation-filters="sRGB">
<feFlood flood-opacity="0" result="BackgroundImageFix"/>
<feColorMatrix in="SourceAlpha" type="matrix" values="0 0 0 0 0 0 0 0 0 0 0 0 0 0 0 0 0 0 127 0" result="hardAlpha"/>
<feOffset dy="-2.34375"/>
<feGaussianBlur stdDeviation="4.6875"/>
<feComposite in2="hardAlpha" operator="out"/>
<feColorMatrix type="matrix" values="0 0 0 0 0.6 0 0 0 0 0.541176 0 0 0 0 0.67451 0 0 0 1 0"/>
<feBlend mode="normal" in2="BackgroundImageFix" result="effect1_dropShadow_794_4712"/>
<feBlend mode="normal" in="SourceGraphic" in2="effect1_dropShadow_794_4712" result="shape"/>
</filter>
<filter id="filter4_d_794_4712" x="55.9033" y="-3.6001" width="36.1211" height="36.1243" filterUnits="userSpaceOnUse" color-interpolation-filters="sRGB">
<feFlood flood-opacity="0" result="BackgroundImageFix"/>
<feColorMatrix in="SourceAlpha" type="matrix" values="0 0 0 0 0 0 0 0 0 0 0 0 0 0 0 0 0 0 127 0" result="hardAlpha"/>
<feOffset dx="2.34375" dy="-2.34375"/>
<feGaussianBlur stdDeviation="4.6875"/>
<feComposite in2="hardAlpha" operator="out"/>
<feColorMatrix type="matrix" values="0 0 0 0 0.615686 0 0 0 0 0.615686 0 0 0 0 0.619608 0 0 0 1 0"/>
<feBlend mode="normal" in2="BackgroundImageFix" result="effect1_dropShadow_794_4712"/>
<feBlend mode="normal" in="SourceGraphic" in2="effect1_dropShadow_794_4712" result="shape"/>
</filter>
<linearGradient id="paint0_linear_794_4712" x1="68.5207" y1="31.6408" x2="70.9816" y2="34.1889" gradientUnits="userSpaceOnUse">
<stop offset="0.334" stop-color="#A7A7B6"/>
<stop offset="1" stop-color="#A7A7B6" stop-opacity="0"/>
</linearGradient>
<radialGradient id="paint1_radial_794_4712" cx="0" cy="0" r="1" gradientUnits="userSpaceOnUse" gradientTransform="translate(81.8782 22.7625) rotate(135) scale(2.73451 2.17519)">
<stop stop-color="#E3E2E5"/>
<stop offset="1" stop-color="#E3E2E5" stop-opacity="0"/>
</radialGradient>
<linearGradient id="paint2_linear_794_4712" x1="14.4673" y1="82.0913" x2="13.151" y2="77.8725" gradientUnits="userSpaceOnUse">
<stop offset="0.117" stop-color="#957BAF"/>
<stop offset="1" stop-color="#B5AAC2" stop-opacity="0"/>
</linearGradient>
<linearGradient id="paint3_linear_794_4712" x1="29.936" y1="73.3022" x2="24.5304" y2="70.2675" gradientUnits="userSpaceOnUse">
<stop offset="0.349" stop-color="#9A86B1"/>
<stop offset="1" stop-color="#9A86B1" stop-opacity="0"/>
</linearGradient>
<radialGradient id="paint4_radial_794_4712" cx="0" cy="0" r="1" gradientUnits="userSpaceOnUse" gradientTransform="translate(26.5074 68.9963) rotate(136.292) scale(4.1339 14.719)">
<stop offset="0.311" stop-color="#7A738E"/>
<stop offset="1" stop-color="#7A738E" stop-opacity="0"/>
</radialGradient>
<radialGradient id="paint5_radial_794_4712" cx="0" cy="0" r="1" gradientUnits="userSpaceOnUse" gradientTransform="translate(14.1601 74.1344) rotate(-31.328) scale(2.36652)">
<stop stop-color="#A9A8AB"/>
<stop offset="1" stop-color="#7C7B7E"/>
</radialGradient>
<radialGradient id="paint6_radial_794_4712" cx="0" cy="0" r="1" gradientUnits="userSpaceOnUse" gradientTransform="translate(14.1187 75.7182) rotate(-76.8094) scale(5.77743 4.77331)">
<stop offset="0.547" stop-color="#645D6B" stop-opacity="0"/>
<stop offset="0.93" stop-color="#645D6B"/>
</radialGradient>
<linearGradient id="paint7_linear_794_4712" x1="77.5737" y1="8.96356" x2="19.7403" y2="65.0392" gradientUnits="userSpaceOnUse">
<stop stop-color="#3A81C6"/>
<stop offset="1" stop-color="#3270B0"/>
</linearGradient>
<linearGradient id="paint8_linear_794_4712" x1="37.4084" y1="35.5951" x2="44.5268" y2="42.8907" gradientUnits="userSpaceOnUse">
<stop stop-color="#3F70AB"/>
<stop offset="1" stop-color="#3F70AB" stop-opacity="0"/>
</linearGradient>
<linearGradient id="paint9_linear_794_4712" x1="56.1171" y1="47.402" x2="52.489" y2="43.4111" gradientUnits="userSpaceOnUse">
<stop offset="0.161" stop-color="#456AB9"/>
<stop offset="1" stop-color="#3677B8" stop-opacity="0"/>
</linearGradient>
<linearGradient id="paint10_linear_794_4712" x1="21.7624" y1="66.5776" x2="25.1909" y2="62.8426" gradientUnits="userSpaceOnUse">
<stop stop-color="#3752AE"/>
<stop offset="1" stop-color="#3372B3" stop-opacity="0"/>
</linearGradient>
<linearGradient id="paint11_linear_794_4712" x1="76.7752" y1="12.9377" x2="24.8565" y2="64.8592" gradientUnits="userSpaceOnUse">
<stop stop-color="#6D9EDE"/>
<stop offset="1" stop-color="#477EC2"/>
</linearGradient>
<linearGradient id="paint12_linear_794_4712" x1="36.5315" y1="38.0925" x2="51.4012" y2="51.6319" gradientUnits="userSpaceOnUse">
<stop stop-color="#AFAEB0"/>
<stop offset="1" stop-color="#C0B9C8"/>
</linearGradient>
<radialGradient id="paint13_radial_794_4712" cx="0" cy="0" r="1" gradientUnits="userSpaceOnUse" gradientTransform="translate(47.1716 42.4458) rotate(136.637) scale(5.98601 8.991)">
<stop stop-color="#D7D5DB"/>
<stop offset="1" stop-color="#D7D5DB" stop-opacity="0"/>
</radialGradient>
<linearGradient id="paint14_linear_794_4712" x1="64.7266" y1="10.2432" x2="79.1772" y2="23.4029" gradientUnits="userSpaceOnUse">
<stop stop-color="#AFAEB0"/>
<stop offset="1" stop-color="#C0B9C8"/>
</linearGradient>
<radialGradient id="paint15_radial_794_4712" cx="0" cy="0" r="1" gradientUnits="userSpaceOnUse" gradientTransform="translate(75.0657 14.4703) rotate(135.361) scale(6.90801 10.3758)">
<stop offset="0.143" stop-color="#D7D5DB"/>
<stop offset="1" stop-color="#D7D5DB" stop-opacity="0"/>
</radialGradient>
<clipPath id="clip0_794_4712">
<rect width="90" height="90" fill="white"/>
</clipPath>
</defs>
</svg>
