<svg width="90" height="90" viewBox="0 0 90 90" fill="none" xmlns="http://www.w3.org/2000/svg">
<g clip-path="url(#clip0_794_4658)">
<path d="M46.2319 73.6001L43.5938 84.3748H51.48C60.6938 84.3748 68.2509 77.217 68.7291 68.3998C68.7381 68.2841 68.7228 68.1678 68.6844 68.0583C68.6459 67.9487 68.585 67.8484 68.5057 67.7638C68.4263 67.6791 68.3301 67.6119 68.2233 67.5664C68.1165 67.521 68.0014 67.4983 67.8853 67.4998L58.0247 67.528C55.7218 67.5533 53.4566 68.1154 51.409 69.1694C49.3613 70.2235 47.5905 71.7406 46.2319 73.6001Z" fill="url(#paint0_radial_794_4658)"/>
<path d="M46.2319 73.6001L43.5938 84.3748H51.48C60.6938 84.3748 68.2509 77.217 68.7291 68.3998C68.7381 68.2841 68.7228 68.1678 68.6844 68.0583C68.6459 67.9487 68.585 67.8484 68.5057 67.7638C68.4263 67.6791 68.3301 67.6119 68.2233 67.5664C68.1165 67.521 68.0014 67.4983 67.8853 67.4998L58.0247 67.528C55.7218 67.5533 53.4566 68.1154 51.409 69.1694C49.3613 70.2235 47.5905 71.7406 46.2319 73.6001Z" fill="url(#paint1_radial_794_4658)"/>
<path d="M46.2319 73.6001L43.5938 84.3748H51.48C60.6938 84.3748 68.2509 77.217 68.7291 68.3998C68.7381 68.2841 68.7228 68.1678 68.6844 68.0583C68.6459 67.9487 68.585 67.8484 68.5057 67.7638C68.4263 67.6791 68.3301 67.6119 68.2233 67.5664C68.1165 67.521 68.0014 67.4983 67.8853 67.4998L58.0247 67.528C55.7218 67.5533 53.4566 68.1154 51.409 69.1694C49.3613 70.2235 47.5905 71.7406 46.2319 73.6001Z" fill="url(#paint2_linear_794_4658)"/>
<path d="M46.2319 73.6001L43.5938 84.3748H51.48C60.6938 84.3748 68.2509 77.217 68.7291 68.3998C68.7381 68.2841 68.7228 68.1678 68.6844 68.0583C68.6459 67.9487 68.585 67.8484 68.5057 67.7638C68.4263 67.6791 68.3301 67.6119 68.2233 67.5664C68.1165 67.521 68.0014 67.4983 67.8853 67.4998L58.0247 67.528C55.7218 67.5533 53.4566 68.1154 51.409 69.1694C49.3613 70.2235 47.5905 71.7406 46.2319 73.6001Z" fill="url(#paint3_linear_794_4658)"/>
<path d="M46.2319 73.6001L43.5938 84.3748H51.48C60.6938 84.3748 68.2509 77.217 68.7291 68.3998C68.7381 68.2841 68.7228 68.1678 68.6844 68.0583C68.6459 67.9487 68.585 67.8484 68.5057 67.7638C68.4263 67.6791 68.3301 67.6119 68.2233 67.5664C68.1165 67.521 68.0014 67.4983 67.8853 67.4998L58.0247 67.528C55.7218 67.5533 53.4566 68.1154 51.409 69.1694C49.3613 70.2235 47.5905 71.7406 46.2319 73.6001Z" fill="url(#paint4_radial_794_4658)"/>
<path d="M46.2319 73.6001L43.5938 84.3748H51.48C60.6938 84.3748 68.2509 77.217 68.7291 68.3998C68.7381 68.2841 68.7228 68.1678 68.6844 68.0583C68.6459 67.9487 68.585 67.8484 68.5057 67.7638C68.4263 67.6791 68.3301 67.6119 68.2233 67.5664C68.1165 67.521 68.0014 67.4983 67.8853 67.4998L58.0247 67.528C55.7218 67.5533 53.4566 68.1154 51.409 69.1694C49.3613 70.2235 47.5905 71.7406 46.2319 73.6001Z" fill="url(#paint5_radial_794_4658)"/>
<path d="M46.2319 73.6001L43.5938 84.3748H51.48C60.6938 84.3748 68.2509 77.217 68.7291 68.3998C68.7381 68.2841 68.7228 68.1678 68.6844 68.0583C68.6459 67.9487 68.585 67.8484 68.5057 67.7638C68.4263 67.6791 68.3301 67.6119 68.2233 67.5664C68.1165 67.521 68.0014 67.4983 67.8853 67.4998L58.0247 67.528C55.7218 67.5533 53.4566 68.1154 51.409 69.1694C49.3613 70.2235 47.5905 71.7406 46.2319 73.6001Z" fill="url(#paint6_radial_794_4658)"/>
<path d="M46.2319 73.6001L43.5938 84.3748H51.48C60.6938 84.3748 68.2509 77.217 68.7291 68.3998C68.7381 68.2841 68.7228 68.1678 68.6844 68.0583C68.6459 67.9487 68.585 67.8484 68.5057 67.7638C68.4263 67.6791 68.3301 67.6119 68.2233 67.5664C68.1165 67.521 68.0014 67.4983 67.8853 67.4998L58.0247 67.528C55.7218 67.5533 53.4566 68.1154 51.409 69.1694C49.3613 70.2235 47.5905 71.7406 46.2319 73.6001Z" fill="url(#paint7_radial_794_4658)"/>
<path d="M46.2318 83.8124C46.2318 83.9615 46.1726 84.1046 46.0671 84.2101C45.9616 84.3156 45.8185 84.3749 45.6693 84.3749H41.1693C41.0201 84.3749 40.8771 84.3156 40.7716 84.2101C40.6661 84.1046 40.6068 83.9615 40.6068 83.8124V76.2327C40.6066 76.1014 40.5695 75.9728 40.5 75.8614C40.4304 75.7501 40.331 75.6604 40.2131 75.6027L36.81 73.9124C36.639 73.8285 36.495 73.6984 36.3943 73.5368C36.2936 73.3753 36.2402 73.1887 36.2402 72.9983C36.2402 72.8079 36.2936 72.6213 36.3943 72.4598C36.495 72.2982 36.639 72.1681 36.81 72.0842L40.2131 70.3939C40.331 70.3361 40.4304 70.2465 40.5 70.1352C40.5695 70.0238 40.6066 69.8952 40.6068 69.7639V51.2717H46.2318V55.8983C46.2316 56.029 46.2678 56.1572 46.3363 56.2685C46.4049 56.3798 46.5031 56.4697 46.62 56.5283L49.9978 58.2186C50.7571 58.5842 50.7571 59.6811 49.9978 60.0467L46.6256 61.6836C46.5072 61.7416 46.4076 61.8317 46.338 61.9435C46.2683 62.0554 46.2316 62.1846 46.2318 62.3164V83.8124Z" fill="url(#paint8_linear_794_4658)"/>
<path d="M46.2318 83.8124C46.2318 83.9615 46.1726 84.1046 46.0671 84.2101C45.9616 84.3156 45.8185 84.3749 45.6693 84.3749H41.1693C41.0201 84.3749 40.8771 84.3156 40.7716 84.2101C40.6661 84.1046 40.6068 83.9615 40.6068 83.8124V76.2327C40.6066 76.1014 40.5695 75.9728 40.5 75.8614C40.4304 75.7501 40.331 75.6604 40.2131 75.6027L36.81 73.9124C36.639 73.8285 36.495 73.6984 36.3943 73.5368C36.2936 73.3753 36.2402 73.1887 36.2402 72.9983C36.2402 72.8079 36.2936 72.6213 36.3943 72.4598C36.495 72.2982 36.639 72.1681 36.81 72.0842L40.2131 70.3939C40.331 70.3361 40.4304 70.2465 40.5 70.1352C40.5695 70.0238 40.6066 69.8952 40.6068 69.7639V51.2717H46.2318V55.8983C46.2316 56.029 46.2678 56.1572 46.3363 56.2685C46.4049 56.3798 46.5031 56.4697 46.62 56.5283L49.9978 58.2186C50.7571 58.5842 50.7571 59.6811 49.9978 60.0467L46.6256 61.6836C46.5072 61.7416 46.4076 61.8317 46.338 61.9435C46.2683 62.0554 46.2316 62.1846 46.2318 62.3164V83.8124Z" fill="url(#paint9_radial_794_4658)"/>
<path d="M46.2318 83.8124C46.2318 83.9615 46.1726 84.1046 46.0671 84.2101C45.9616 84.3156 45.8185 84.3749 45.6693 84.3749H41.1693C41.0201 84.3749 40.8771 84.3156 40.7716 84.2101C40.6661 84.1046 40.6068 83.9615 40.6068 83.8124V76.2327C40.6066 76.1014 40.5695 75.9728 40.5 75.8614C40.4304 75.7501 40.331 75.6604 40.2131 75.6027L36.81 73.9124C36.639 73.8285 36.495 73.6984 36.3943 73.5368C36.2936 73.3753 36.2402 73.1887 36.2402 72.9983C36.2402 72.8079 36.2936 72.6213 36.3943 72.4598C36.495 72.2982 36.639 72.1681 36.81 72.0842L40.2131 70.3939C40.331 70.3361 40.4304 70.2465 40.5 70.1352C40.5695 70.0238 40.6066 69.8952 40.6068 69.7639V51.2717H46.2318V55.8983C46.2316 56.029 46.2678 56.1572 46.3363 56.2685C46.4049 56.3798 46.5031 56.4697 46.62 56.5283L49.9978 58.2186C50.7571 58.5842 50.7571 59.6811 49.9978 60.0467L46.6256 61.6836C46.5072 61.7416 46.4076 61.8317 46.338 61.9435C46.2683 62.0554 46.2316 62.1846 46.2318 62.3164V83.8124Z" fill="url(#paint10_radial_794_4658)"/>
<path d="M46.2318 83.8124C46.2318 83.9615 46.1726 84.1046 46.0671 84.2101C45.9616 84.3156 45.8185 84.3749 45.6693 84.3749H41.1693C41.0201 84.3749 40.8771 84.3156 40.7716 84.2101C40.6661 84.1046 40.6068 83.9615 40.6068 83.8124V76.2327C40.6066 76.1014 40.5695 75.9728 40.5 75.8614C40.4304 75.7501 40.331 75.6604 40.2131 75.6027L36.81 73.9124C36.639 73.8285 36.495 73.6984 36.3943 73.5368C36.2936 73.3753 36.2402 73.1887 36.2402 72.9983C36.2402 72.8079 36.2936 72.6213 36.3943 72.4598C36.495 72.2982 36.639 72.1681 36.81 72.0842L40.2131 70.3939C40.331 70.3361 40.4304 70.2465 40.5 70.1352C40.5695 70.0238 40.6066 69.8952 40.6068 69.7639V51.2717H46.2318V55.8983C46.2316 56.029 46.2678 56.1572 46.3363 56.2685C46.4049 56.3798 46.5031 56.4697 46.62 56.5283L49.9978 58.2186C50.7571 58.5842 50.7571 59.6811 49.9978 60.0467L46.6256 61.6836C46.5072 61.7416 46.4076 61.8317 46.338 61.9435C46.2683 62.0554 46.2316 62.1846 46.2318 62.3164V83.8124Z" fill="url(#paint11_radial_794_4658)"/>
<path d="M46.2318 83.8124C46.2318 83.9615 46.1726 84.1046 46.0671 84.2101C45.9616 84.3156 45.8185 84.3749 45.6693 84.3749H41.1693C41.0201 84.3749 40.8771 84.3156 40.7716 84.2101C40.6661 84.1046 40.6068 83.9615 40.6068 83.8124V76.2327C40.6066 76.1014 40.5695 75.9728 40.5 75.8614C40.4304 75.7501 40.331 75.6604 40.2131 75.6027L36.81 73.9124C36.639 73.8285 36.495 73.6984 36.3943 73.5368C36.2936 73.3753 36.2402 73.1887 36.2402 72.9983C36.2402 72.8079 36.2936 72.6213 36.3943 72.4598C36.495 72.2982 36.639 72.1681 36.81 72.0842L40.2131 70.3939C40.331 70.3361 40.4304 70.2465 40.5 70.1352C40.5695 70.0238 40.6066 69.8952 40.6068 69.7639V51.2717H46.2318V55.8983C46.2316 56.029 46.2678 56.1572 46.3363 56.2685C46.4049 56.3798 46.5031 56.4697 46.62 56.5283L49.9978 58.2186C50.7571 58.5842 50.7571 59.6811 49.9978 60.0467L46.6256 61.6836C46.5072 61.7416 46.4076 61.8317 46.338 61.9435C46.2683 62.0554 46.2316 62.1846 46.2318 62.3164V83.8124Z" fill="url(#paint12_radial_794_4658)"/>
<path d="M46.2318 83.8124C46.2318 83.9615 46.1726 84.1046 46.0671 84.2101C45.9616 84.3156 45.8185 84.3749 45.6693 84.3749H41.1693C41.0201 84.3749 40.8771 84.3156 40.7716 84.2101C40.6661 84.1046 40.6068 83.9615 40.6068 83.8124V76.2327C40.6066 76.1014 40.5695 75.9728 40.5 75.8614C40.4304 75.7501 40.331 75.6604 40.2131 75.6027L36.81 73.9124C36.639 73.8285 36.495 73.6984 36.3943 73.5368C36.2936 73.3753 36.2402 73.1887 36.2402 72.9983C36.2402 72.8079 36.2936 72.6213 36.3943 72.4598C36.495 72.2982 36.639 72.1681 36.81 72.0842L40.2131 70.3939C40.331 70.3361 40.4304 70.2465 40.5 70.1352C40.5695 70.0238 40.6066 69.8952 40.6068 69.7639V51.2717H46.2318V55.8983C46.2316 56.029 46.2678 56.1572 46.3363 56.2685C46.4049 56.3798 46.5031 56.4697 46.62 56.5283L49.9978 58.2186C50.7571 58.5842 50.7571 59.6811 49.9978 60.0467L46.6256 61.6836C46.5072 61.7416 46.4076 61.8317 46.338 61.9435C46.2683 62.0554 46.2316 62.1846 46.2318 62.3164V83.8124Z" fill="url(#paint13_radial_794_4658)"/>
<path d="M46.2318 83.8124C46.2318 83.9615 46.1726 84.1046 46.0671 84.2101C45.9616 84.3156 45.8185 84.3749 45.6693 84.3749H41.1693C41.0201 84.3749 40.8771 84.3156 40.7716 84.2101C40.6661 84.1046 40.6068 83.9615 40.6068 83.8124V76.2327C40.6066 76.1014 40.5695 75.9728 40.5 75.8614C40.4304 75.7501 40.331 75.6604 40.2131 75.6027L36.81 73.9124C36.639 73.8285 36.495 73.6984 36.3943 73.5368C36.2936 73.3753 36.2402 73.1887 36.2402 72.9983C36.2402 72.8079 36.2936 72.6213 36.3943 72.4598C36.495 72.2982 36.639 72.1681 36.81 72.0842L40.2131 70.3939C40.331 70.3361 40.4304 70.2465 40.5 70.1352C40.5695 70.0238 40.6066 69.8952 40.6068 69.7639V51.2717H46.2318V55.8983C46.2316 56.029 46.2678 56.1572 46.3363 56.2685C46.4049 56.3798 46.5031 56.4697 46.62 56.5283L49.9978 58.2186C50.7571 58.5842 50.7571 59.6811 49.9978 60.0467L46.6256 61.6836C46.5072 61.7416 46.4076 61.8317 46.338 61.9435C46.2683 62.0554 46.2316 62.1846 46.2318 62.3164V83.8124Z" fill="url(#paint14_linear_794_4658)"/>
<g filter="url(#filter0_f_794_4658)">
<path d="M43.04 52.47H45.0004V83.1009H43.04V52.47Z" fill="url(#paint15_linear_794_4658)"/>
</g>
<path d="M31.5281 5.82177C42.6319 4.92177 44.8312 13.7755 44.8312 20.8124V26.8058H29.5312V7.79333C29.5312 6.65427 30.3863 5.86396 31.5225 5.82458L31.5281 5.82177Z" fill="#C42A3D"/>
<path d="M31.5281 5.82177C42.6319 4.92177 44.8312 13.7755 44.8312 20.8124V26.8058H29.5312V7.79333C29.5312 6.65427 30.3863 5.86396 31.5225 5.82458L31.5281 5.82177Z" fill="url(#paint16_linear_794_4658)"/>
<path d="M31.5281 5.82177C42.6319 4.92177 44.8312 13.7755 44.8312 20.8124V26.8058H29.5312V7.79333C29.5312 6.65427 30.3863 5.86396 31.5225 5.82458L31.5281 5.82177Z" fill="url(#paint17_radial_794_4658)"/>
<path d="M31.5281 5.82177C42.6319 4.92177 44.8312 13.7755 44.8312 20.8124V26.8058H29.5312V7.79333C29.5312 6.65427 30.3863 5.86396 31.5225 5.82458L31.5281 5.82177Z" fill="url(#paint18_linear_794_4658)"/>
<path d="M31.5281 5.82177C42.6319 4.92177 44.8312 13.7755 44.8312 20.8124V26.8058H29.5312V7.79333C29.5312 6.65427 30.3863 5.86396 31.5225 5.82458L31.5281 5.82177Z" fill="url(#paint19_radial_794_4658)"/>
<g filter="url(#filter1_d_794_4658)">
<path d="M55.4486 5.82177C44.3449 4.92177 42.1455 13.7755 42.1455 20.8124V26.8058H57.4427V7.79333C57.4427 6.65427 56.5849 5.86396 55.4486 5.82458V5.82177Z" fill="#D4505F"/>
<path d="M55.4486 5.82177C44.3449 4.92177 42.1455 13.7755 42.1455 20.8124V26.8058H57.4427V7.79333C57.4427 6.65427 56.5849 5.86396 55.4486 5.82458V5.82177Z" fill="url(#paint20_linear_794_4658)"/>
<path d="M55.4486 5.82177C44.3449 4.92177 42.1455 13.7755 42.1455 20.8124V26.8058H57.4427V7.79333C57.4427 6.65427 56.5849 5.86396 55.4486 5.82458V5.82177Z" fill="url(#paint21_linear_794_4658)"/>
</g>
<g filter="url(#filter2_d_794_4658)">
<path d="M60.7255 23.5294L62.8855 15.1144C62.9493 14.8652 62.9554 14.6047 62.9032 14.3528C62.851 14.1009 62.7419 13.8643 62.5842 13.661C62.4265 13.4577 62.2245 13.2932 61.9935 13.18C61.7625 13.0668 61.5087 13.0079 61.2514 13.0078H55.1989C53.4327 13.0078 51.6495 13.2806 50.1448 14.2003C44.9783 17.3644 39.6486 24.5278 38.203 38.1488C37.002 49.455 33.8942 52.8666 38.203 53.3925H49.768C51.911 53.3923 54.0243 52.8906 55.9387 51.9275C57.8532 50.9644 59.5157 49.5667 60.7932 47.8461C62.0708 46.1254 62.9279 44.1297 63.2961 42.0185C63.6643 39.9074 63.5333 37.7393 62.9136 35.6878L60.838 28.8253C60.3173 27.1034 60.2784 25.2718 60.7255 23.5294Z" fill="#EB4A49"/>
<path d="M60.7255 23.5294L62.8855 15.1144C62.9493 14.8652 62.9554 14.6047 62.9032 14.3528C62.851 14.1009 62.7419 13.8643 62.5842 13.661C62.4265 13.4577 62.2245 13.2932 61.9935 13.18C61.7625 13.0668 61.5087 13.0079 61.2514 13.0078H55.1989C53.4327 13.0078 51.6495 13.2806 50.1448 14.2003C44.9783 17.3644 39.6486 24.5278 38.203 38.1488C37.002 49.455 33.8942 52.8666 38.203 53.3925H49.768C51.911 53.3923 54.0243 52.8906 55.9387 51.9275C57.8532 50.9644 59.5157 49.5667 60.7932 47.8461C62.0708 46.1254 62.9279 44.1297 63.2961 42.0185C63.6643 39.9074 63.5333 37.7393 62.9136 35.6878L60.838 28.8253C60.3173 27.1034 60.2784 25.2718 60.7255 23.5294Z" fill="url(#paint22_radial_794_4658)"/>
<path d="M60.7255 23.5294L62.8855 15.1144C62.9493 14.8652 62.9554 14.6047 62.9032 14.3528C62.851 14.1009 62.7419 13.8643 62.5842 13.661C62.4265 13.4577 62.2245 13.2932 61.9935 13.18C61.7625 13.0668 61.5087 13.0079 61.2514 13.0078H55.1989C53.4327 13.0078 51.6495 13.2806 50.1448 14.2003C44.9783 17.3644 39.6486 24.5278 38.203 38.1488C37.002 49.455 33.8942 52.8666 38.203 53.3925H49.768C51.911 53.3923 54.0243 52.8906 55.9387 51.9275C57.8532 50.9644 59.5157 49.5667 60.7932 47.8461C62.0708 46.1254 62.9279 44.1297 63.2961 42.0185C63.6643 39.9074 63.5333 37.7393 62.9136 35.6878L60.838 28.8253C60.3173 27.1034 60.2784 25.2718 60.7255 23.5294Z" fill="url(#paint23_linear_794_4658)"/>
<path d="M60.7255 23.5294L62.8855 15.1144C62.9493 14.8652 62.9554 14.6047 62.9032 14.3528C62.851 14.1009 62.7419 13.8643 62.5842 13.661C62.4265 13.4577 62.2245 13.2932 61.9935 13.18C61.7625 13.0668 61.5087 13.0079 61.2514 13.0078H55.1989C53.4327 13.0078 51.6495 13.2806 50.1448 14.2003C44.9783 17.3644 39.6486 24.5278 38.203 38.1488C37.002 49.455 33.8942 52.8666 38.203 53.3925H49.768C51.911 53.3923 54.0243 52.8906 55.9387 51.9275C57.8532 50.9644 59.5157 49.5667 60.7932 47.8461C62.0708 46.1254 62.9279 44.1297 63.2961 42.0185C63.6643 39.9074 63.5333 37.7393 62.9136 35.6878L60.838 28.8253C60.3173 27.1034 60.2784 25.2718 60.7255 23.5294Z" fill="url(#paint24_linear_794_4658)"/>
</g>
<g filter="url(#filter3_f_794_4658)">
<path d="M58.6577 25.8018H44.3674C43.4421 32.5349 42.6236 43.9339 51.8318 44.6371C60.739 45.3177 61.4224 37.4652 60.0443 33.4602C58.6577 29.4327 58.5874 26.8227 58.6577 25.8018Z" fill="url(#paint25_linear_794_4658)"/>
</g>
<g filter="url(#filter4_d_794_4658)">
<path d="M26.0834 23.5294L23.9234 15.1144C23.8595 14.8652 23.8535 14.6047 23.9057 14.3528C23.9579 14.1009 24.067 13.8643 24.2247 13.661C24.3824 13.4577 24.5844 13.2932 24.8154 13.18C25.0464 13.0668 25.3002 13.0079 25.5575 13.0078H31.61C33.3734 13.0078 35.1594 13.2806 36.6641 14.2003C41.8306 17.3644 47.1603 24.5278 48.6059 38.1488C49.8069 49.455 43.1131 52.8666 38.8072 53.3925H37.0409C34.8979 53.3923 32.7846 52.8906 30.8702 51.9275C28.9557 50.9644 27.2932 49.5667 26.0157 47.8461C24.7381 46.1254 23.881 44.1297 23.5128 42.0185C23.1446 39.9074 23.2756 37.7393 23.8953 35.6878L25.9709 28.8253C26.4916 27.1034 26.5305 25.2718 26.0834 23.5294Z" fill="#D33939"/>
<path d="M26.0834 23.5294L23.9234 15.1144C23.8595 14.8652 23.8535 14.6047 23.9057 14.3528C23.9579 14.1009 24.067 13.8643 24.2247 13.661C24.3824 13.4577 24.5844 13.2932 24.8154 13.18C25.0464 13.0668 25.3002 13.0079 25.5575 13.0078H31.61C33.3734 13.0078 35.1594 13.2806 36.6641 14.2003C41.8306 17.3644 47.1603 24.5278 48.6059 38.1488C49.8069 49.455 43.1131 52.8666 38.8072 53.3925H37.0409C34.8979 53.3923 32.7846 52.8906 30.8702 51.9275C28.9557 50.9644 27.2932 49.5667 26.0157 47.8461C24.7381 46.1254 23.881 44.1297 23.5128 42.0185C23.1446 39.9074 23.2756 37.7393 23.8953 35.6878L25.9709 28.8253C26.4916 27.1034 26.5305 25.2718 26.0834 23.5294Z" fill="url(#paint26_linear_794_4658)"/>
<path d="M26.0834 23.5294L23.9234 15.1144C23.8595 14.8652 23.8535 14.6047 23.9057 14.3528C23.9579 14.1009 24.067 13.8643 24.2247 13.661C24.3824 13.4577 24.5844 13.2932 24.8154 13.18C25.0464 13.0668 25.3002 13.0079 25.5575 13.0078H31.61C33.3734 13.0078 35.1594 13.2806 36.6641 14.2003C41.8306 17.3644 47.1603 24.5278 48.6059 38.1488C49.8069 49.455 43.1131 52.8666 38.8072 53.3925H37.0409C34.8979 53.3923 32.7846 52.8906 30.8702 51.9275C28.9557 50.9644 27.2932 49.5667 26.0157 47.8461C24.7381 46.1254 23.881 44.1297 23.5128 42.0185C23.1446 39.9074 23.2756 37.7393 23.8953 35.6878L25.9709 28.8253C26.4916 27.1034 26.5305 25.2718 26.0834 23.5294Z" fill="url(#paint27_radial_794_4658)"/>
<path d="M26.0834 23.5294L23.9234 15.1144C23.8595 14.8652 23.8535 14.6047 23.9057 14.3528C23.9579 14.1009 24.067 13.8643 24.2247 13.661C24.3824 13.4577 24.5844 13.2932 24.8154 13.18C25.0464 13.0668 25.3002 13.0079 25.5575 13.0078H31.61C33.3734 13.0078 35.1594 13.2806 36.6641 14.2003C41.8306 17.3644 47.1603 24.5278 48.6059 38.1488C49.8069 49.455 43.1131 52.8666 38.8072 53.3925H37.0409C34.8979 53.3923 32.7846 52.8906 30.8702 51.9275C28.9557 50.9644 27.2932 49.5667 26.0157 47.8461C24.7381 46.1254 23.881 44.1297 23.5128 42.0185C23.1446 39.9074 23.2756 37.7393 23.8953 35.6878L25.9709 28.8253C26.4916 27.1034 26.5305 25.2718 26.0834 23.5294Z" fill="url(#paint28_radial_794_4658)"/>
</g>
<path d="M26.0834 23.5294L23.9234 15.1144C23.8595 14.8652 23.8535 14.6047 23.9057 14.3528C23.9579 14.1009 24.067 13.8643 24.2247 13.661C24.3824 13.4577 24.5844 13.2932 24.8154 13.18C25.0464 13.0668 25.3002 13.0079 25.5575 13.0078H31.61C33.3734 13.0078 35.1594 13.2806 36.6641 14.2003C41.8306 17.3644 47.1603 24.5278 48.6059 38.1488C49.8069 49.455 43.1131 52.8666 38.8072 53.3925H37.0409C34.8979 53.3923 32.7846 52.8906 30.8702 51.9275C28.9557 50.9644 27.2932 49.5667 26.0157 47.8461C24.7381 46.1254 23.881 44.1297 23.5128 42.0185C23.1446 39.9074 23.2756 37.7393 23.8953 35.6878L25.9709 28.8253C26.4916 27.1034 26.5305 25.2718 26.0834 23.5294Z" fill="url(#paint29_radial_794_4658)"/>
<g filter="url(#filter5_f_794_4658)">
<path d="M49.2188 7.5656C51.4553 6.61452 53.9229 6.34545 56.3119 6.79216" stroke="url(#paint30_linear_794_4658)" stroke-width="3.90625" stroke-linecap="round"/>
</g>
<g filter="url(#filter6_f_794_4658)">
<path d="M35.8594 6.85669C37.3106 7.23638 40.5619 8.69325 41.9681 11.4692" stroke="url(#paint31_radial_794_4658)" stroke-width="3.90625" stroke-linecap="round"/>
</g>
</g>
<defs>
<filter id="filter0_f_794_4658" x="27.415" y="36.845" width="33.21" height="61.8809" filterUnits="userSpaceOnUse" color-interpolation-filters="sRGB">
<feFlood flood-opacity="0" result="BackgroundImageFix"/>
<feBlend mode="normal" in="SourceGraphic" in2="BackgroundImageFix" result="shape"/>
<feGaussianBlur stdDeviation="7.8125" result="effect1_foregroundBlur_794_4658"/>
</filter>
<filter id="filter1_d_794_4658" x="36.6768" y="0.289551" width="30.9219" height="36.6726" filterUnits="userSpaceOnUse" color-interpolation-filters="sRGB">
<feFlood flood-opacity="0" result="BackgroundImageFix"/>
<feColorMatrix in="SourceAlpha" type="matrix" values="0 0 0 0 0 0 0 0 0 0 0 0 0 0 0 0 0 0 127 0" result="hardAlpha"/>
<feOffset dx="2.34375" dy="2.34375"/>
<feGaussianBlur stdDeviation="3.90625"/>
<feComposite in2="hardAlpha" operator="out"/>
<feColorMatrix type="matrix" values="0 0 0 0 0.694118 0 0 0 0 0.121569 0 0 0 0 0.184314 0 0 0 0.5 0"/>
<feBlend mode="normal" in2="BackgroundImageFix" result="effect1_dropShadow_794_4658"/>
<feBlend mode="normal" in="SourceGraphic" in2="effect1_dropShadow_794_4658" result="shape"/>
</filter>
<filter id="filter2_d_794_4658" x="32.0859" y="9.10156" width="43.1328" height="56.0098" filterUnits="userSpaceOnUse" color-interpolation-filters="sRGB">
<feFlood flood-opacity="0" result="BackgroundImageFix"/>
<feColorMatrix in="SourceAlpha" type="matrix" values="0 0 0 0 0 0 0 0 0 0 0 0 0 0 0 0 0 0 127 0" result="hardAlpha"/>
<feOffset dx="3.90625" dy="3.90625"/>
<feGaussianBlur stdDeviation="3.90625"/>
<feComposite in2="hardAlpha" operator="out"/>
<feColorMatrix type="matrix" values="0 0 0 0 0.886275 0 0 0 0 0.164706 0 0 0 0 0.156863 0 0 0 1 0"/>
<feBlend mode="normal" in2="BackgroundImageFix" result="effect1_dropShadow_794_4658"/>
<feBlend mode="normal" in="SourceGraphic" in2="effect1_dropShadow_794_4658" result="shape"/>
</filter>
<filter id="filter3_f_794_4658" x="20.3936" y="2.36426" width="63.6396" height="65.752" filterUnits="userSpaceOnUse" color-interpolation-filters="sRGB">
<feFlood flood-opacity="0" result="BackgroundImageFix"/>
<feBlend mode="normal" in="SourceGraphic" in2="BackgroundImageFix" result="shape"/>
<feGaussianBlur stdDeviation="11.7188" result="effect1_foregroundBlur_794_4658"/>
</filter>
<filter id="filter4_d_794_4658" x="13.9336" y="5.97656" width="41.0645" height="56.0098" filterUnits="userSpaceOnUse" color-interpolation-filters="sRGB">
<feFlood flood-opacity="0" result="BackgroundImageFix"/>
<feColorMatrix in="SourceAlpha" type="matrix" values="0 0 0 0 0 0 0 0 0 0 0 0 0 0 0 0 0 0 127 0" result="hardAlpha"/>
<feOffset dx="-1.5625" dy="0.78125"/>
<feGaussianBlur stdDeviation="3.90625"/>
<feComposite in2="hardAlpha" operator="out"/>
<feColorMatrix type="matrix" values="0 0 0 0 0.968627 0 0 0 0 0.403922 0 0 0 0 0.388235 0 0 0 1 0"/>
<feBlend mode="normal" in2="BackgroundImageFix" result="effect1_dropShadow_794_4658"/>
<feBlend mode="normal" in="SourceGraphic" in2="effect1_dropShadow_794_4658" result="shape"/>
</filter>
<filter id="filter5_f_794_4658" x="43.3584" y="0.722656" width="18.8135" height="12.7029" filterUnits="userSpaceOnUse" color-interpolation-filters="sRGB">
<feFlood flood-opacity="0" result="BackgroundImageFix"/>
<feBlend mode="normal" in="SourceGraphic" in2="BackgroundImageFix" result="shape"/>
<feGaussianBlur stdDeviation="1.95312" result="effect1_foregroundBlur_794_4658"/>
</filter>
<filter id="filter6_f_794_4658" x="30" y="0.996826" width="17.8281" height="16.3323" filterUnits="userSpaceOnUse" color-interpolation-filters="sRGB">
<feFlood flood-opacity="0" result="BackgroundImageFix"/>
<feBlend mode="normal" in="SourceGraphic" in2="BackgroundImageFix" result="shape"/>
<feGaussianBlur stdDeviation="1.95312" result="effect1_foregroundBlur_794_4658"/>
</filter>
<radialGradient id="paint0_radial_794_4658" cx="0" cy="0" r="1" gradientUnits="userSpaceOnUse" gradientTransform="translate(65.3917 70.6651) rotate(140.575) scale(28.7865 26.8263)">
<stop stop-color="#94C852"/>
<stop offset="1" stop-color="#6F967C"/>
</radialGradient>
<radialGradient id="paint1_radial_794_4658" cx="0" cy="0" r="1" gradientUnits="userSpaceOnUse" gradientTransform="translate(47.1094 86.8358) rotate(-45.7848) scale(18.1489 13.8201)">
<stop stop-color="#5D807A"/>
<stop offset="1" stop-color="#5D807A" stop-opacity="0"/>
</radialGradient>
<linearGradient id="paint2_linear_794_4658" x1="51.7669" y1="85.5167" x2="51.7669" y2="82.8814" gradientUnits="userSpaceOnUse">
<stop stop-color="#707290"/>
<stop offset="1" stop-color="#707290" stop-opacity="0"/>
</linearGradient>
<linearGradient id="paint3_linear_794_4658" x1="56.1628" y1="67.4998" x2="56.1628" y2="69.9833" gradientUnits="userSpaceOnUse">
<stop stop-color="#89C146"/>
<stop offset="1" stop-color="#89C146" stop-opacity="0"/>
</linearGradient>
<radialGradient id="paint4_radial_794_4658" cx="0" cy="0" r="1" gradientUnits="userSpaceOnUse" gradientTransform="translate(60.9708 86.4996) rotate(-134.074) scale(20.5632 29.6463)">
<stop offset="0.739" stop-color="#5C9948" stop-opacity="0"/>
<stop offset="1" stop-color="#5C9948"/>
</radialGradient>
<radialGradient id="paint5_radial_794_4658" cx="0" cy="0" r="1" gradientUnits="userSpaceOnUse" gradientTransform="translate(52.6472 65.7645) rotate(37.781) scale(18.7934 29.2022)">
<stop offset="0.816" stop-color="#5C9948" stop-opacity="0"/>
<stop offset="1" stop-color="#5C9948"/>
</radialGradient>
<radialGradient id="paint6_radial_794_4658" cx="0" cy="0" r="1" gradientUnits="userSpaceOnUse" gradientTransform="translate(44.5612 76.9273) rotate(-46.2284) scale(7.9723 1.32659)">
<stop stop-color="#489041"/>
<stop offset="1" stop-color="#489041" stop-opacity="0"/>
</radialGradient>
<radialGradient id="paint7_radial_794_4658" cx="0" cy="0" r="1" gradientUnits="userSpaceOnUse" gradientTransform="translate(68.7275 68.0922) rotate(142.381) scale(6.04749 1.00465)">
<stop offset="0.17" stop-color="#A1D460"/>
<stop offset="0.982" stop-color="#A1D460" stop-opacity="0"/>
</radialGradient>
<linearGradient id="paint8_linear_794_4658" x1="43.4025" y1="60.9524" x2="43.4025" y2="84.3749" gradientUnits="userSpaceOnUse">
<stop stop-color="#7EA242"/>
<stop offset="1" stop-color="#639262"/>
</linearGradient>
<radialGradient id="paint9_radial_794_4658" cx="0" cy="0" r="1" gradientUnits="userSpaceOnUse" gradientTransform="translate(39.2426 76.0685) rotate(-51.582) scale(3.25313 6.11092)">
<stop stop-color="#60826D"/>
<stop offset="1" stop-color="#60826D" stop-opacity="0"/>
</radialGradient>
<radialGradient id="paint10_radial_794_4658" cx="0" cy="0" r="1" gradientUnits="userSpaceOnUse" gradientTransform="translate(51.1537 58.9977) rotate(180) scale(5.75685 2.5049)">
<stop stop-color="#87A837"/>
<stop offset="1" stop-color="#87A837" stop-opacity="0"/>
</radialGradient>
<radialGradient id="paint11_radial_794_4658" cx="0" cy="0" r="1" gradientUnits="userSpaceOnUse" gradientTransform="translate(51.1537 58.9977) rotate(180) scale(3.3838 0.527344)">
<stop stop-color="#99B35D"/>
<stop offset="1" stop-color="#99B35D" stop-opacity="0"/>
</radialGradient>
<radialGradient id="paint12_radial_794_4658" cx="0" cy="0" r="1" gradientUnits="userSpaceOnUse" gradientTransform="translate(47.9632 56.4987) rotate(146.753) scale(3.05536 3.22765)">
<stop stop-color="#778823"/>
<stop offset="1" stop-color="#839624" stop-opacity="0"/>
</radialGradient>
<radialGradient id="paint13_radial_794_4658" cx="0" cy="0" r="1" gradientUnits="userSpaceOnUse" gradientTransform="translate(46.4274 53.148) rotate(118.04) scale(2.9594 3.61963)">
<stop stop-color="#738B32"/>
<stop offset="1" stop-color="#738B32" stop-opacity="0"/>
</radialGradient>
<linearGradient id="paint14_linear_794_4658" x1="43.4025" y1="83.1458" x2="43.4025" y2="84.7489" gradientUnits="userSpaceOnUse">
<stop stop-color="#65797D" stop-opacity="0"/>
<stop offset="1" stop-color="#65797D"/>
</linearGradient>
<linearGradient id="paint15_linear_794_4658" x1="44.0188" y1="52.47" x2="44.0188" y2="82.3725" gradientUnits="userSpaceOnUse">
<stop stop-color="#98B858"/>
<stop offset="1" stop-color="#85AD78"/>
</linearGradient>
<linearGradient id="paint16_linear_794_4658" x1="43.5122" y1="17.2686" x2="37.1812" y2="17.2686" gradientUnits="userSpaceOnUse">
<stop stop-color="#AC1322"/>
<stop offset="1" stop-color="#AC1322" stop-opacity="0"/>
</linearGradient>
<radialGradient id="paint17_radial_794_4658" cx="0" cy="0" r="1" gradientUnits="userSpaceOnUse" gradientTransform="translate(44.1225 20.8293) rotate(-171.703) scale(4.26337 11.2527)">
<stop stop-color="#9F0510"/>
<stop offset="1" stop-color="#9F0510" stop-opacity="0"/>
</radialGradient>
<linearGradient id="paint18_linear_794_4658" x1="28.3022" y1="11.5143" x2="33.5756" y2="11.5143" gradientUnits="userSpaceOnUse">
<stop stop-color="#C7676B"/>
<stop offset="1" stop-color="#C7676B" stop-opacity="0"/>
</linearGradient>
<radialGradient id="paint19_radial_794_4658" cx="0" cy="0" r="1" gradientUnits="userSpaceOnUse" gradientTransform="translate(39.1556 17.0493) rotate(-90) scale(12.1289 3.18946)">
<stop stop-color="#BB3B4B"/>
<stop offset="1" stop-color="#BB3B4B" stop-opacity="0"/>
</radialGradient>
<linearGradient id="paint20_linear_794_4658" x1="44.4743" y1="15.6711" x2="52.5799" y2="15.6711" gradientUnits="userSpaceOnUse">
<stop stop-color="#B01E2E"/>
<stop offset="1" stop-color="#B01E2E" stop-opacity="0"/>
</linearGradient>
<linearGradient id="paint21_linear_794_4658" x1="60.4718" y1="15.6711" x2="56.5258" y2="15.6711" gradientUnits="userSpaceOnUse">
<stop stop-color="#B01E2E"/>
<stop offset="1" stop-color="#B01E2E" stop-opacity="0"/>
</linearGradient>
<radialGradient id="paint22_radial_794_4658" cx="0" cy="0" r="1" gradientUnits="userSpaceOnUse" gradientTransform="translate(45.6167 40.6941) scale(6.50391 28.4766)">
<stop stop-color="#DF2C28"/>
<stop offset="1" stop-color="#DF2C28" stop-opacity="0"/>
</radialGradient>
<linearGradient id="paint23_linear_794_4658" x1="59.938" y1="53.9578" x2="59.938" y2="30.7069" gradientUnits="userSpaceOnUse">
<stop stop-color="#CB4151"/>
<stop offset="1" stop-color="#CB4151" stop-opacity="0"/>
</linearGradient>
<linearGradient id="paint24_linear_794_4658" x1="49.7483" y1="13.9641" x2="49.7483" y2="18.7622" gradientUnits="userSpaceOnUse">
<stop stop-color="#F86560"/>
<stop offset="1" stop-color="#F86560" stop-opacity="0"/>
</linearGradient>
<linearGradient id="paint25_linear_794_4658" x1="52.2115" y1="25.8018" x2="52.2115" y2="59.6108" gradientUnits="userSpaceOnUse">
<stop stop-color="#F56563"/>
<stop offset="1" stop-color="#F56563" stop-opacity="0"/>
</linearGradient>
<linearGradient id="paint26_linear_794_4658" x1="40.43" y1="55.3725" x2="40.43" y2="36.2109" gradientUnits="userSpaceOnUse">
<stop stop-color="#CE2F5C"/>
<stop offset="1" stop-color="#CE2F5C" stop-opacity="0"/>
</linearGradient>
<radialGradient id="paint27_radial_794_4658" cx="0" cy="0" r="1" gradientUnits="userSpaceOnUse" gradientTransform="translate(23.3075 26.0156) scale(9.03608 23.0273)">
<stop stop-color="#D0716F"/>
<stop offset="1" stop-color="#D0716F" stop-opacity="0"/>
</radialGradient>
<radialGradient id="paint28_radial_794_4658" cx="0" cy="0" r="1" gradientUnits="userSpaceOnUse" gradientTransform="translate(45.529 16.1719) rotate(153.452) scale(10.6191 19.0237)">
<stop stop-color="#F03954"/>
<stop offset="1" stop-color="#F03954" stop-opacity="0"/>
</radialGradient>
<radialGradient id="paint29_radial_794_4658" cx="0" cy="0" r="1" gradientUnits="userSpaceOnUse" gradientTransform="translate(47.7256 50.0091) rotate(-119.691) scale(11.5338 20.1281)">
<stop stop-color="#E42E5E"/>
<stop offset="1" stop-color="#E42E5E" stop-opacity="0"/>
</radialGradient>
<linearGradient id="paint30_linear_794_4658" x1="56.4187" y1="6.87091" x2="50.2594" y2="7.77654" gradientUnits="userSpaceOnUse">
<stop stop-color="#EE6372"/>
<stop offset="1" stop-color="#DD5C6A" stop-opacity="0"/>
</linearGradient>
<radialGradient id="paint31_radial_794_4658" cx="0" cy="0" r="1" gradientUnits="userSpaceOnUse" gradientTransform="translate(39.463 7.38176) rotate(90.69) scale(3.64773 6.26656)">
<stop stop-color="#D55E6C"/>
<stop offset="1" stop-color="#D55E6C" stop-opacity="0"/>
</radialGradient>
<clipPath id="clip0_794_4658">
<rect width="90" height="90" fill="white"/>
</clipPath>
</defs>
</svg>
