<svg width="90" height="90" viewBox="0 0 90 90" fill="none" xmlns="http://www.w3.org/2000/svg">
<g clip-path="url(#clip0_794_4878)">
<g filter="url(#filter0_d_794_4878)">
<path d="M17.2069 74.4046L31.4016 60.21L40.4297 69.2409C40.9589 69.7685 41.3117 70.4471 41.4396 71.1833C41.5674 71.9196 41.4641 72.6774 41.1438 73.3525C40.8235 74.0277 40.3019 74.587 39.6508 74.9537C38.9996 75.3204 38.2509 75.4764 37.5075 75.4003L34.47 75.0909C34.1144 75.0549 33.7551 75.0973 33.4177 75.2152C33.0802 75.3332 32.7727 75.5237 32.5168 75.7734C32.261 76.023 32.063 76.3258 31.9369 76.6603C31.8108 76.9948 31.7596 77.3529 31.7869 77.7093L32.0232 80.7243C32.0771 81.4201 31.9165 82.1157 31.563 82.7174C31.2095 83.3192 30.6802 83.7981 30.0462 84.0898C29.4122 84.3816 28.7041 84.472 28.0171 84.349C27.3302 84.226 26.6975 83.8954 26.2041 83.4018L17.2069 74.4046Z" fill="url(#paint0_linear_794_4878)"/>
</g>
<g filter="url(#filter1_d_794_4878)">
<path d="M46.1166 34.2336L55.6987 43.813L19.3078 80.2011C18.0311 81.4419 16.3173 82.1303 14.537 82.1175C12.7567 82.1046 11.053 81.3916 9.79429 80.1325C8.53558 78.8734 7.82303 77.1695 7.81071 75.3892C7.79839 73.6089 8.48728 71.8953 9.72844 70.619L46.1166 34.2336Z" fill="url(#paint1_linear_794_4878)"/>
</g>
<g filter="url(#filter2_d_794_4878)">
<path fill-rule="evenodd" clip-rule="evenodd" d="M61.5436 50.625C64.5078 50.6582 67.4492 50.1031 70.1974 48.9917C72.9456 47.8803 75.446 46.2348 77.5539 44.1504C79.6618 42.066 81.3352 39.5841 82.4773 36.8486C83.6194 34.113 84.2075 31.178 84.2075 28.2136C84.2075 25.2492 83.6194 22.3142 82.4773 19.5786C81.3352 16.843 79.6618 14.3612 77.5539 12.2768C75.446 10.1924 72.9456 8.54691 70.1974 7.43553C67.4492 6.32414 64.5078 5.76898 61.5436 5.80219C55.6432 5.86829 50.0069 8.25859 45.8579 12.4544C41.7088 16.6501 39.3818 22.3128 39.3818 28.2136C39.3818 34.1144 41.7088 39.7771 45.8579 43.9728C50.0069 48.1686 55.6432 50.5589 61.5436 50.625ZM61.5436 39.375C63.0242 39.3985 64.4948 39.1272 65.8695 38.5768C67.2443 38.0265 68.4958 37.2081 69.5512 36.1693C70.6066 35.1305 71.4447 33.8922 72.0168 32.5263C72.5889 31.1605 72.8836 29.6944 72.8836 28.2136C72.8836 26.7328 72.5889 25.2667 72.0168 23.9009C71.4447 22.535 70.6066 21.2967 69.5512 20.2579C68.4958 19.2191 67.2443 18.4007 65.8695 17.8504C64.4948 17.3 63.0242 17.0287 61.5436 17.0522C58.6141 17.0987 55.8203 18.2951 53.7651 20.3832C51.7098 22.4713 50.558 25.2837 50.558 28.2136C50.558 31.1435 51.7098 33.9559 53.7651 36.044C55.8203 38.1321 58.6141 39.3285 61.5436 39.375Z" fill="url(#paint2_linear_794_4878)"/>
</g>
<path d="M48.0908 50.7968L38.869 41.5751C38.0299 40.7359 36.6694 40.7359 35.8302 41.5751C34.9911 42.4142 34.9911 43.7747 35.8302 44.6139L45.052 53.8356C45.8911 54.6748 47.2516 54.6748 48.0908 53.8356C48.9299 52.9965 48.9299 51.636 48.0908 50.7968Z" fill="url(#paint3_linear_794_4878)"/>
<path d="M48.0908 50.7968L38.869 41.5751C38.0299 40.7359 36.6694 40.7359 35.8302 41.5751C34.9911 42.4142 34.9911 43.7747 35.8302 44.6139L45.052 53.8356C45.8911 54.6748 47.2516 54.6748 48.0908 53.8356C48.9299 52.9965 48.9299 51.636 48.0908 50.7968Z" fill="url(#paint4_radial_794_4878)"/>
<path d="M48.0908 50.7968L38.869 41.5751C38.0299 40.7359 36.6694 40.7359 35.8302 41.5751C34.9911 42.4142 34.9911 43.7747 35.8302 44.6139L45.052 53.8356C45.8911 54.6748 47.2516 54.6748 48.0908 53.8356C48.9299 52.9965 48.9299 51.636 48.0908 50.7968Z" fill="url(#paint5_linear_794_4878)"/>
<path d="M51.1308 47.7612L41.909 38.5394C41.0699 37.7003 39.7094 37.7003 38.8703 38.5394C38.0311 39.3786 38.0311 40.7391 38.8703 41.5782L48.092 50.8C48.9312 51.6391 50.2917 51.6391 51.1308 50.8C51.97 49.9608 51.97 48.6003 51.1308 47.7612Z" fill="url(#paint6_linear_794_4878)"/>
<path d="M51.1308 47.7612L41.909 38.5394C41.0699 37.7003 39.7094 37.7003 38.8703 38.5394C38.0311 39.3786 38.0311 40.7391 38.8703 41.5782L48.092 50.8C48.9312 51.6391 50.2917 51.6391 51.1308 50.8C51.97 49.9608 51.97 48.6003 51.1308 47.7612Z" fill="url(#paint7_radial_794_4878)"/>
<path d="M51.1308 47.7612L41.909 38.5394C41.0699 37.7003 39.7094 37.7003 38.8703 38.5394C38.0311 39.3786 38.0311 40.7391 38.8703 41.5782L48.092 50.8C48.9312 51.6391 50.2917 51.6391 51.1308 50.8C51.97 49.9608 51.97 48.6003 51.1308 47.7612Z" fill="url(#paint8_linear_794_4878)"/>
<g filter="url(#filter3_f_794_4878)">
<path d="M62.7441 44.7552C72.5438 44.7552 80.4881 36.8109 80.4881 27.0112C80.4881 17.2114 72.5438 9.26709 62.7441 9.26709C52.9443 9.26709 45 17.2114 45 27.0112C45 36.8109 52.9443 44.7552 62.7441 44.7552Z" stroke="url(#paint9_linear_794_4878)" stroke-width="19.5312"/>
<path d="M62.7441 44.7552C72.5438 44.7552 80.4881 36.8109 80.4881 27.0112C80.4881 17.2114 72.5438 9.26709 62.7441 9.26709C52.9443 9.26709 45 17.2114 45 27.0112C45 36.8109 52.9443 44.7552 62.7441 44.7552Z" stroke="url(#paint10_linear_794_4878)" stroke-width="19.5312"/>
</g>
</g>
<defs>
<filter id="filter0_d_794_4878" x="9.39453" y="50.0537" width="39.9111" height="39.8174" filterUnits="userSpaceOnUse" color-interpolation-filters="sRGB">
<feFlood flood-opacity="0" result="BackgroundImageFix"/>
<feColorMatrix in="SourceAlpha" type="matrix" values="0 0 0 0 0 0 0 0 0 0 0 0 0 0 0 0 0 0 127 0" result="hardAlpha"/>
<feOffset dy="-2.34375"/>
<feGaussianBlur stdDeviation="3.90625"/>
<feComposite in2="hardAlpha" operator="out"/>
<feColorMatrix type="matrix" values="0 0 0 0 0.839216 0 0 0 0 0.592157 0 0 0 0 0.34902 0 0 0 1 0"/>
<feBlend mode="normal" in2="BackgroundImageFix" result="effect1_dropShadow_794_4878"/>
<feBlend mode="normal" in="SourceGraphic" in2="effect1_dropShadow_794_4878" result="shape"/>
</filter>
<filter id="filter1_d_794_4878" x="-15.627" y="2.98364" width="94.7637" height="94.759" filterUnits="userSpaceOnUse" color-interpolation-filters="sRGB">
<feFlood flood-opacity="0" result="BackgroundImageFix"/>
<feColorMatrix in="SourceAlpha" type="matrix" values="0 0 0 0 0 0 0 0 0 0 0 0 0 0 0 0 0 0 127 0" result="hardAlpha"/>
<feOffset dy="-7.8125"/>
<feGaussianBlur stdDeviation="11.7188"/>
<feComposite in2="hardAlpha" operator="out"/>
<feColorMatrix type="matrix" values="0 0 0 0 0.85098 0 0 0 0 0.541176 0 0 0 0 0.34902 0 0 0 1 0"/>
<feBlend mode="normal" in2="BackgroundImageFix" result="effect1_dropShadow_794_4878"/>
<feBlend mode="normal" in="SourceGraphic" in2="effect1_dropShadow_794_4878" result="shape"/>
</filter>
<filter id="filter2_d_794_4878" x="23.7568" y="-16.0742" width="76.0752" height="76.0757" filterUnits="userSpaceOnUse" color-interpolation-filters="sRGB">
<feFlood flood-opacity="0" result="BackgroundImageFix"/>
<feColorMatrix in="SourceAlpha" type="matrix" values="0 0 0 0 0 0 0 0 0 0 0 0 0 0 0 0 0 0 127 0" result="hardAlpha"/>
<feOffset dy="-6.25"/>
<feGaussianBlur stdDeviation="7.8125"/>
<feComposite in2="hardAlpha" operator="out"/>
<feColorMatrix type="matrix" values="0 0 0 0 0.815686 0 0 0 0 0.505882 0 0 0 0 0.337255 0 0 0 1 0"/>
<feBlend mode="normal" in2="BackgroundImageFix" result="effect1_dropShadow_794_4878"/>
<feBlend mode="normal" in="SourceGraphic" in2="effect1_dropShadow_794_4878" result="shape"/>
</filter>
<filter id="filter3_f_794_4878" x="15.7031" y="-20.0298" width="94.082" height="94.0818" filterUnits="userSpaceOnUse" color-interpolation-filters="sRGB">
<feFlood flood-opacity="0" result="BackgroundImageFix"/>
<feBlend mode="normal" in="SourceGraphic" in2="BackgroundImageFix" result="shape"/>
<feGaussianBlur stdDeviation="9.76562" result="effect1_foregroundBlur_794_4878"/>
</filter>
<linearGradient id="paint0_linear_794_4878" x1="32.715" y1="78.3984" x2="27.09" y2="72.3065" gradientUnits="userSpaceOnUse">
<stop stop-color="#F4B954"/>
<stop offset="0.908" stop-color="#ECA84F"/>
</linearGradient>
<linearGradient id="paint1_linear_794_4878" x1="22.6069" y1="59.1496" x2="31.7222" y2="68.0286" gradientUnits="userSpaceOnUse">
<stop stop-color="#F7C250"/>
<stop offset="1" stop-color="#F8AB54"/>
</linearGradient>
<linearGradient id="paint2_linear_794_4878" x1="61.5436" y1="7.91156" x2="61.5436" y2="50.625" gradientUnits="userSpaceOnUse">
<stop stop-color="#F8CF4D"/>
<stop offset="1" stop-color="#ED9953"/>
</linearGradient>
<linearGradient id="paint3_linear_794_4878" x1="37.2343" y1="43.3808" x2="45.581" y2="51.9066" gradientUnits="userSpaceOnUse">
<stop stop-color="#F6BF4E"/>
<stop offset="1" stop-color="#EA994D"/>
</linearGradient>
<radialGradient id="paint4_radial_794_4878" cx="0" cy="0" r="1" gradientUnits="userSpaceOnUse" gradientTransform="translate(43.4729 47.7063) rotate(137.756) scale(0.920105 5.32975)">
<stop stop-color="#FCBC66"/>
<stop offset="1" stop-color="#FCBC66" stop-opacity="0"/>
</radialGradient>
<linearGradient id="paint5_linear_794_4878" x1="40.6609" y1="50.2798" x2="41.9595" y2="48.9612" gradientUnits="userSpaceOnUse">
<stop offset="0.186" stop-color="#E29226"/>
<stop offset="1" stop-color="#EC9B4F" stop-opacity="0"/>
</linearGradient>
<linearGradient id="paint6_linear_794_4878" x1="40.2723" y1="40.3432" x2="48.623" y2="48.8689" gradientUnits="userSpaceOnUse">
<stop stop-color="#F6BF4E"/>
<stop offset="1" stop-color="#EA994D"/>
</linearGradient>
<radialGradient id="paint7_radial_794_4878" cx="0" cy="0" r="1" gradientUnits="userSpaceOnUse" gradientTransform="translate(46.513 44.6667) rotate(137.756) scale(0.920105 5.32975)">
<stop stop-color="#FBB865"/>
<stop offset="1" stop-color="#FBB865" stop-opacity="0"/>
</radialGradient>
<linearGradient id="paint8_linear_794_4878" x1="43.7009" y1="47.2441" x2="45.0015" y2="45.9236" gradientUnits="userSpaceOnUse">
<stop offset="0.186" stop-color="#E29226"/>
<stop offset="1" stop-color="#E29226" stop-opacity="0"/>
</linearGradient>
<linearGradient id="paint9_linear_794_4878" x1="76.8375" y1="12.088" x2="60.3788" y2="26.0408" gradientUnits="userSpaceOnUse">
<stop stop-color="#FFDD67"/>
<stop offset="1" stop-color="#FFDD67" stop-opacity="0"/>
</linearGradient>
<linearGradient id="paint10_linear_794_4878" x1="49.59" y1="39.3749" x2="53.4572" y2="33.224" gradientUnits="userSpaceOnUse">
<stop stop-color="#FEB765"/>
<stop offset="1" stop-color="#FEB765" stop-opacity="0"/>
</linearGradient>
<clipPath id="clip0_794_4878">
<rect width="90" height="90" fill="white"/>
</clipPath>
</defs>
</svg>
