<svg width="90" height="90" viewBox="0 0 90 90" fill="none" xmlns="http://www.w3.org/2000/svg">
<g clip-path="url(#clip0_794_4737)">
<path d="M22.4572 61.4952C19.3634 58.4014 14.3572 58.4014 11.3478 61.3546L7.63532 65.0389C7.43845 65.2358 7.46657 65.5171 7.66345 65.7139C11.2634 68.9483 16.8603 68.8921 20.3197 65.4327L22.9916 62.7608C23.1884 62.5639 23.1884 62.2264 22.9916 62.0296L22.4572 61.4952Z" fill="#5A794C"/>
<path d="M22.4572 61.4952C19.3634 58.4014 14.3572 58.4014 11.3478 61.3546L7.63532 65.0389C7.43845 65.2358 7.46657 65.5171 7.66345 65.7139C11.2634 68.9483 16.8603 68.8921 20.3197 65.4327L22.9916 62.7608C23.1884 62.5639 23.1884 62.2264 22.9916 62.0296L22.4572 61.4952Z" fill="url(#paint0_linear_794_4737)"/>
<path d="M22.4572 61.4952C19.3634 58.4014 14.3572 58.4014 11.3478 61.3546L7.63532 65.0389C7.43845 65.2358 7.46657 65.5171 7.66345 65.7139C11.2634 68.9483 16.8603 68.8921 20.3197 65.4327L22.9916 62.7608C23.1884 62.5639 23.1884 62.2264 22.9916 62.0296L22.4572 61.4952Z" fill="url(#paint1_linear_794_4737)"/>
<path d="M22.4572 61.4952C19.3634 58.4014 14.3572 58.4014 11.3478 61.3546L7.63532 65.0389C7.43845 65.2358 7.46657 65.5171 7.66345 65.7139C11.2634 68.9483 16.8603 68.8921 20.3197 65.4327L22.9916 62.7608C23.1884 62.5639 23.1884 62.2264 22.9916 62.0296L22.4572 61.4952Z" fill="url(#paint2_radial_794_4737)"/>
<path d="M27.7445 60.0608C23.3852 60.0608 19.8414 63.6046 19.7852 67.7952V73.0265C19.7852 73.2796 20.0102 73.5046 20.2633 73.4765C25.1008 73.2233 29.0102 69.2296 29.0102 64.3077V60.539C29.0102 60.2577 28.7852 60.0327 28.5039 60.0327H27.7445V60.0608Z" fill="#7DA952"/>
<path d="M27.7445 60.0608C23.3852 60.0608 19.8414 63.6046 19.7852 67.7952V73.0265C19.7852 73.2796 20.0102 73.5046 20.2633 73.4765C25.1008 73.2233 29.0102 69.2296 29.0102 64.3077V60.539C29.0102 60.2577 28.7852 60.0327 28.5039 60.0327H27.7445V60.0608Z" fill="url(#paint3_radial_794_4737)"/>
<path d="M27.7445 60.0608C23.3852 60.0608 19.8414 63.6046 19.7852 67.7952V73.0265C19.7852 73.2796 20.0102 73.5046 20.2633 73.4765C25.1008 73.2233 29.0102 69.2296 29.0102 64.3077V60.539C29.0102 60.2577 28.7852 60.0327 28.5039 60.0327H27.7445V60.0608Z" fill="url(#paint4_linear_794_4737)"/>
<path d="M27.7445 60.0608C23.3852 60.0608 19.8414 63.6046 19.7852 67.7952V73.0265C19.7852 73.2796 20.0102 73.5046 20.2633 73.4765C25.1008 73.2233 29.0102 69.2296 29.0102 64.3077V60.539C29.0102 60.2577 28.7852 60.0327 28.5039 60.0327H27.7445V60.0608Z" fill="url(#paint5_radial_794_4737)"/>
<path d="M60.6507 23.1045C57.5569 20.0108 57.5569 15.0045 60.5101 11.9952L64.1945 8.28267C64.3913 8.11392 64.6726 8.11392 64.8694 8.3108C68.1038 11.9108 68.0476 17.5077 64.5882 20.967L61.9163 23.6389C61.7194 23.8358 61.3819 23.8358 61.1851 23.6389L60.6507 23.1045Z" fill="#6BB958"/>
<path d="M60.6507 23.1045C57.5569 20.0108 57.5569 15.0045 60.5101 11.9952L64.1945 8.28267C64.3913 8.11392 64.6726 8.11392 64.8694 8.3108C68.1038 11.9108 68.0476 17.5077 64.5882 20.967L61.9163 23.6389C61.7194 23.8358 61.3819 23.8358 61.1851 23.6389L60.6507 23.1045Z" fill="url(#paint6_linear_794_4737)"/>
<path d="M60.6507 23.1045C57.5569 20.0108 57.5569 15.0045 60.5101 11.9952L64.1945 8.28267C64.3913 8.11392 64.6726 8.11392 64.8694 8.3108C68.1038 11.9108 68.0476 17.5077 64.5882 20.967L61.9163 23.6389C61.7194 23.8358 61.3819 23.8358 61.1851 23.6389L60.6507 23.1045Z" fill="url(#paint7_radial_794_4737)"/>
<path d="M59.2166 28.3922C59.2166 24.0329 62.7604 20.4891 66.951 20.4329H72.1822C72.4354 20.4329 72.6604 20.6579 72.6322 20.911C72.3791 25.7485 68.3854 29.6579 63.4635 29.6579H59.6947C59.5605 29.6579 59.4317 29.6045 59.3368 29.5096C59.2418 29.4146 59.1885 29.2859 59.1885 29.1516V28.3922H59.2166Z" fill="url(#paint8_radial_794_4737)"/>
<path d="M59.2166 28.3922C59.2166 24.0329 62.7604 20.4891 66.951 20.4329H72.1822C72.4354 20.4329 72.6604 20.6579 72.6322 20.911C72.3791 25.7485 68.3854 29.6579 63.4635 29.6579H59.6947C59.5605 29.6579 59.4317 29.6045 59.3368 29.5096C59.2418 29.4146 59.1885 29.2859 59.1885 29.1516V28.3922H59.2166Z" fill="url(#paint9_radial_794_4737)"/>
<path d="M59.2166 28.3922C59.2166 24.0329 62.7604 20.4891 66.951 20.4329H72.1822C72.4354 20.4329 72.6604 20.6579 72.6322 20.911C72.3791 25.7485 68.3854 29.6579 63.4635 29.6579H59.6947C59.5605 29.6579 59.4317 29.6045 59.3368 29.5096C59.2418 29.4146 59.1885 29.2859 59.1885 29.1516V28.3922H59.2166Z" fill="url(#paint10_radial_794_4737)"/>
<path d="M59.2166 28.3922C59.2166 24.0329 62.7604 20.4891 66.951 20.4329H72.1822C72.4354 20.4329 72.6604 20.6579 72.6322 20.911C72.3791 25.7485 68.3854 29.6579 63.4635 29.6579H59.6947C59.5605 29.6579 59.4317 29.6045 59.3368 29.5096C59.2418 29.4146 59.1885 29.2859 59.1885 29.1516V28.3922H59.2166Z" fill="url(#paint11_radial_794_4737)"/>
<path d="M59.2166 28.3922C59.2166 24.0329 62.7604 20.4891 66.951 20.4329H72.1822C72.4354 20.4329 72.6604 20.6579 72.6322 20.911C72.3791 25.7485 68.3854 29.6579 63.4635 29.6579H59.6947C59.5605 29.6579 59.4317 29.6045 59.3368 29.5096C59.2418 29.4146 59.1885 29.2859 59.1885 29.1516V28.3922H59.2166Z" fill="url(#paint12_radial_794_4737)"/>
<path d="M24.8764 54.5201L39.0514 40.0358L53.2264 25.5514C56.517 22.2045 61.692 23.1326 62.5639 27.2389L66.2764 44.9576L70.5795 65.4889C70.6077 65.6858 70.7764 65.8264 70.9733 65.8545L75.642 66.7545L82.842 68.1608C84.5014 68.4983 84.9233 70.5795 83.5733 71.9295L77.7795 77.7233L71.9858 83.517C70.6358 84.867 68.5545 84.4451 68.217 82.7858L66.8108 75.5858L65.9389 71.142C65.9108 70.9451 65.742 70.8045 65.5452 70.7483L44.7045 66.9795L26.817 63.7451C22.6827 63.0139 21.5858 57.8951 24.8764 54.5201Z" fill="url(#paint13_linear_794_4737)"/>
<path d="M24.8764 54.5201L39.0514 40.0358L53.2264 25.5514C56.517 22.2045 61.692 23.1326 62.5639 27.2389L66.2764 44.9576L70.5795 65.4889C70.6077 65.6858 70.7764 65.8264 70.9733 65.8545L75.642 66.7545L82.842 68.1608C84.5014 68.4983 84.9233 70.5795 83.5733 71.9295L77.7795 77.7233L71.9858 83.517C70.6358 84.867 68.5545 84.4451 68.217 82.7858L66.8108 75.5858L65.9389 71.142C65.9108 70.9451 65.742 70.8045 65.5452 70.7483L44.7045 66.9795L26.817 63.7451C22.6827 63.0139 21.5858 57.8951 24.8764 54.5201Z" fill="url(#paint14_radial_794_4737)"/>
<path d="M24.8764 54.5201L39.0514 40.0358L53.2264 25.5514C56.517 22.2045 61.692 23.1326 62.5639 27.2389L66.2764 44.9576L70.5795 65.4889C70.6077 65.6858 70.7764 65.8264 70.9733 65.8545L75.642 66.7545L82.842 68.1608C84.5014 68.4983 84.9233 70.5795 83.5733 71.9295L77.7795 77.7233L71.9858 83.517C70.6358 84.867 68.5545 84.4451 68.217 82.7858L66.8108 75.5858L65.9389 71.142C65.9108 70.9451 65.742 70.8045 65.5452 70.7483L44.7045 66.9795L26.817 63.7451C22.6827 63.0139 21.5858 57.8951 24.8764 54.5201Z" fill="url(#paint15_radial_794_4737)"/>
<path d="M24.8764 54.5201L39.0514 40.0358L53.2264 25.5514C56.517 22.2045 61.692 23.1326 62.5639 27.2389L66.2764 44.9576L70.5795 65.4889C70.6077 65.6858 70.7764 65.8264 70.9733 65.8545L75.642 66.7545L82.842 68.1608C84.5014 68.4983 84.9233 70.5795 83.5733 71.9295L77.7795 77.7233L71.9858 83.517C70.6358 84.867 68.5545 84.4451 68.217 82.7858L66.8108 75.5858L65.9389 71.142C65.9108 70.9451 65.742 70.8045 65.5452 70.7483L44.7045 66.9795L26.817 63.7451C22.6827 63.0139 21.5858 57.8951 24.8764 54.5201Z" fill="url(#paint16_linear_794_4737)"/>
<path d="M24.8764 54.5201L39.0514 40.0358L53.2264 25.5514C56.517 22.2045 61.692 23.1326 62.5639 27.2389L66.2764 44.9576L70.5795 65.4889C70.6077 65.6858 70.7764 65.8264 70.9733 65.8545L75.642 66.7545L82.842 68.1608C84.5014 68.4983 84.9233 70.5795 83.5733 71.9295L77.7795 77.7233L71.9858 83.517C70.6358 84.867 68.5545 84.4451 68.217 82.7858L66.8108 75.5858L65.9389 71.142C65.9108 70.9451 65.742 70.8045 65.5452 70.7483L44.7045 66.9795L26.817 63.7451C22.6827 63.0139 21.5858 57.8951 24.8764 54.5201Z" fill="url(#paint17_linear_794_4737)"/>
<g filter="url(#filter0_f_794_4737)">
<path d="M69.9609 68.5208L59.4141 27.5652L48.8672 33.2774L68.9062 68.5208H69.9609Z" fill="#9FE37D"/>
</g>
<path d="M72.3599 66.1218L75.6421 66.7546L82.8421 68.1609C84.5014 68.4984 84.9233 70.5796 83.5733 71.9296L71.9858 83.5171C70.6358 84.8671 68.5546 84.4453 68.2171 82.7859L66.1611 72.2671L72.3599 66.1218Z" fill="url(#paint18_linear_794_4737)"/>
<path d="M72.3599 66.1218L75.6421 66.7546L82.8421 68.1609C84.5014 68.4984 84.9233 70.5796 83.5733 71.9296L71.9858 83.5171C70.6358 84.8671 68.5546 84.4453 68.2171 82.7859L66.1611 72.2671L72.3599 66.1218Z" fill="url(#paint19_linear_794_4737)"/>
<path d="M72.3599 66.1218L75.6421 66.7546L82.8421 68.1609C84.5014 68.4984 84.9233 70.5796 83.5733 71.9296L71.9858 83.5171C70.6358 84.8671 68.5546 84.4453 68.2171 82.7859L66.1611 72.2671L72.3599 66.1218Z" fill="url(#paint20_linear_794_4737)"/>
<path d="M66.5063 74.0334L65.9382 71.1421C65.9263 71.0616 65.8911 70.9863 65.8369 70.9256L70.9079 65.8406C70.9291 65.8467 70.9507 65.8514 70.9725 65.8546L74.086 66.4537L66.5063 74.0334Z" fill="url(#paint21_linear_794_4737)"/>
<path d="M66.5063 74.0334L65.9382 71.1421C65.9263 71.0616 65.8911 70.9863 65.8369 70.9256L70.9079 65.8406C70.9291 65.8467 70.9507 65.8514 70.9725 65.8546L74.086 66.4537L66.5063 74.0334Z" fill="url(#paint22_linear_794_4737)"/>
<path d="M28.4196 60.5895L33.8477 47.5395L26.0008 44.277C21.1742 42.2801 15.7524 42.2801 10.9258 44.277C10.0539 44.6426 9.60394 45.6551 9.96956 46.5551C11.9383 51.4489 15.7914 55.3301 20.6571 57.3551L28.4196 60.5895Z" fill="url(#paint23_radial_794_4737)"/>
<path d="M28.4196 60.5895L33.8477 47.5395L26.0008 44.277C21.1742 42.2801 15.7524 42.2801 10.9258 44.277C10.0539 44.6426 9.60394 45.6551 9.96956 46.5551C11.9383 51.4489 15.7914 55.3301 20.6571 57.3551L28.4196 60.5895Z" fill="url(#paint24_radial_794_4737)"/>
<path d="M28.4196 60.5895L33.8477 47.5395L26.0008 44.277C21.1742 42.2801 15.7524 42.2801 10.9258 44.277C10.0539 44.6426 9.60394 45.6551 9.96956 46.5551C11.9383 51.4489 15.7914 55.3301 20.6571 57.3551L28.4196 60.5895Z" fill="url(#paint25_radial_794_4737)"/>
<g filter="url(#filter1_dd_794_4737)">
<path d="M6.65111 57.3553C5.89173 57.0459 5.44173 56.2865 5.69486 55.6959C7.43861 51.4209 15.2011 50.3522 21.9792 51.2803C23.1605 51.449 23.6386 50.2678 22.6824 49.5365C17.2542 45.4022 12.5574 39.1865 14.3292 34.9397C14.5824 34.3209 15.4261 34.0959 16.2136 34.4053L24.2855 37.7522V37.724C24.7917 37.949 25.298 38.174 25.7761 38.4272C27.1542 39.1303 29.6292 40.4803 30.7261 41.4084C35.3386 45.3459 36.1542 50.4928 34.1855 55.3022C32.3292 59.7459 28.7292 62.7553 23.2449 62.7272C21.023 62.7553 17.423 61.8272 15.0886 60.8709L6.65111 57.3553Z" fill="url(#paint26_linear_794_4737)"/>
<path d="M6.65111 57.3553C5.89173 57.0459 5.44173 56.2865 5.69486 55.6959C7.43861 51.4209 15.2011 50.3522 21.9792 51.2803C23.1605 51.449 23.6386 50.2678 22.6824 49.5365C17.2542 45.4022 12.5574 39.1865 14.3292 34.9397C14.5824 34.3209 15.4261 34.0959 16.2136 34.4053L24.2855 37.7522V37.724C24.7917 37.949 25.298 38.174 25.7761 38.4272C27.1542 39.1303 29.6292 40.4803 30.7261 41.4084C35.3386 45.3459 36.1542 50.4928 34.1855 55.3022C32.3292 59.7459 28.7292 62.7553 23.2449 62.7272C21.023 62.7553 17.423 61.8272 15.0886 60.8709L6.65111 57.3553Z" fill="url(#paint27_linear_794_4737)"/>
<path d="M6.65111 57.3553C5.89173 57.0459 5.44173 56.2865 5.69486 55.6959C7.43861 51.4209 15.2011 50.3522 21.9792 51.2803C23.1605 51.449 23.6386 50.2678 22.6824 49.5365C17.2542 45.4022 12.5574 39.1865 14.3292 34.9397C14.5824 34.3209 15.4261 34.0959 16.2136 34.4053L24.2855 37.7522V37.724C24.7917 37.949 25.298 38.174 25.7761 38.4272C27.1542 39.1303 29.6292 40.4803 30.7261 41.4084C35.3386 45.3459 36.1542 50.4928 34.1855 55.3022C32.3292 59.7459 28.7292 62.7553 23.2449 62.7272C21.023 62.7553 17.423 61.8272 15.0886 60.8709L6.65111 57.3553Z" fill="url(#paint28_radial_794_4737)"/>
<path d="M6.65111 57.3553C5.89173 57.0459 5.44173 56.2865 5.69486 55.6959C7.43861 51.4209 15.2011 50.3522 21.9792 51.2803C23.1605 51.449 23.6386 50.2678 22.6824 49.5365C17.2542 45.4022 12.5574 39.1865 14.3292 34.9397C14.5824 34.3209 15.4261 34.0959 16.2136 34.4053L24.2855 37.7522V37.724C24.7917 37.949 25.298 38.174 25.7761 38.4272C27.1542 39.1303 29.6292 40.4803 30.7261 41.4084C35.3386 45.3459 36.1542 50.4928 34.1855 55.3022C32.3292 59.7459 28.7292 62.7553 23.2449 62.7272C21.023 62.7553 17.423 61.8272 15.0886 60.8709L6.65111 57.3553Z" fill="url(#paint29_radial_794_4737)"/>
</g>
<g filter="url(#filter2_f_794_4737)">
<path d="M16.3486 36.8804L25.3121 40.486" stroke="url(#paint30_linear_794_4737)" stroke-width="6.25" stroke-linecap="round"/>
</g>
<path d="M61.4948 28.4764L48.4448 33.9046L45.1823 26.0577C43.1853 21.2311 43.1853 15.8093 45.1823 10.9827C45.5479 10.1108 46.5604 9.66082 47.4604 10.0264C52.3542 11.9952 56.2354 15.8483 58.2604 20.7139L61.4948 28.4764Z" fill="#BD256A"/>
<path d="M61.4948 28.4764L48.4448 33.9046L45.1823 26.0577C43.1853 21.2311 43.1853 15.8093 45.1823 10.9827C45.5479 10.1108 46.5604 9.66082 47.4604 10.0264C52.3542 11.9952 56.2354 15.8483 58.2604 20.7139L61.4948 28.4764Z" fill="url(#paint31_radial_794_4737)"/>
<path d="M61.4948 28.4764L48.4448 33.9046L45.1823 26.0577C43.1853 21.2311 43.1853 15.8093 45.1823 10.9827C45.5479 10.1108 46.5604 9.66082 47.4604 10.0264C52.3542 11.9952 56.2354 15.8483 58.2604 20.7139L61.4948 28.4764Z" fill="url(#paint32_radial_794_4737)"/>
<path d="M61.4948 28.4764L48.4448 33.9046L45.1823 26.0577C43.1853 21.2311 43.1853 15.8093 45.1823 10.9827C45.5479 10.1108 46.5604 9.66082 47.4604 10.0264C52.3542 11.9952 56.2354 15.8483 58.2604 20.7139L61.4948 28.4764Z" fill="url(#paint33_radial_794_4737)"/>
<g filter="url(#filter3_d_794_4737)">
<path d="M58.2608 6.70775C57.9514 5.94837 57.1921 5.49837 56.6014 5.7515C52.3264 7.49525 51.2577 15.2577 52.1858 22.0359C52.3546 23.2171 51.1733 23.6952 50.4421 22.739C46.3077 17.3109 40.0921 12.614 35.8452 14.3859C35.2264 14.639 35.0014 15.4827 35.3108 16.2702L38.6577 24.3421H38.6296C38.8546 24.8484 39.0796 25.3546 39.3327 25.8327C40.0358 27.2109 41.3858 29.6859 42.3139 30.7827C46.2514 35.3952 51.3983 36.2109 56.2077 34.2421C60.6514 32.3859 63.6608 28.7859 63.6327 23.3015C63.6608 21.0796 62.7327 17.4796 61.7764 15.1452L58.2608 6.70775Z" fill="url(#paint34_linear_794_4737)"/>
</g>
<g filter="url(#filter4_dd_794_4737)">
<path d="M58.2608 6.70775C57.9514 5.94837 57.1921 5.49837 56.6014 5.7515C52.3264 7.49525 51.2577 15.2577 52.1858 22.0359C52.3546 23.2171 51.1733 23.6952 50.4421 22.739C46.3077 17.3109 40.0921 12.614 35.8452 14.3859C35.2264 14.639 35.0014 15.4827 35.3108 16.2702L38.6577 24.3421H38.6296C38.8546 24.8484 39.0796 25.3546 39.3327 25.8327C40.0358 27.2109 41.3858 29.6859 42.3139 30.7827C46.2514 35.3952 51.3983 36.2109 56.2077 34.2421C60.6514 32.3859 63.6608 28.7859 63.6327 23.3015C63.6608 21.0796 62.7327 17.4796 61.7764 15.1452L58.2608 6.70775Z" fill="url(#paint35_linear_794_4737)"/>
<path d="M58.2608 6.70775C57.9514 5.94837 57.1921 5.49837 56.6014 5.7515C52.3264 7.49525 51.2577 15.2577 52.1858 22.0359C52.3546 23.2171 51.1733 23.6952 50.4421 22.739C46.3077 17.3109 40.0921 12.614 35.8452 14.3859C35.2264 14.639 35.0014 15.4827 35.3108 16.2702L38.6577 24.3421H38.6296C38.8546 24.8484 39.0796 25.3546 39.3327 25.8327C40.0358 27.2109 41.3858 29.6859 42.3139 30.7827C46.2514 35.3952 51.3983 36.2109 56.2077 34.2421C60.6514 32.3859 63.6608 28.7859 63.6327 23.3015C63.6608 21.0796 62.7327 17.4796 61.7764 15.1452L58.2608 6.70775Z" fill="url(#paint36_linear_794_4737)"/>
<path d="M58.2608 6.70775C57.9514 5.94837 57.1921 5.49837 56.6014 5.7515C52.3264 7.49525 51.2577 15.2577 52.1858 22.0359C52.3546 23.2171 51.1733 23.6952 50.4421 22.739C46.3077 17.3109 40.0921 12.614 35.8452 14.3859C35.2264 14.639 35.0014 15.4827 35.3108 16.2702L38.6577 24.3421H38.6296C38.8546 24.8484 39.0796 25.3546 39.3327 25.8327C40.0358 27.2109 41.3858 29.6859 42.3139 30.7827C46.2514 35.3952 51.3983 36.2109 56.2077 34.2421C60.6514 32.3859 63.6608 28.7859 63.6327 23.3015C63.6608 21.0796 62.7327 17.4796 61.7764 15.1452L58.2608 6.70775Z" fill="url(#paint37_radial_794_4737)"/>
<path d="M58.2608 6.70775C57.9514 5.94837 57.1921 5.49837 56.6014 5.7515C52.3264 7.49525 51.2577 15.2577 52.1858 22.0359C52.3546 23.2171 51.1733 23.6952 50.4421 22.739C46.3077 17.3109 40.0921 12.614 35.8452 14.3859C35.2264 14.639 35.0014 15.4827 35.3108 16.2702L38.6577 24.3421H38.6296C38.8546 24.8484 39.0796 25.3546 39.3327 25.8327C40.0358 27.2109 41.3858 29.6859 42.3139 30.7827C46.2514 35.3952 51.3983 36.2109 56.2077 34.2421C60.6514 32.3859 63.6608 28.7859 63.6327 23.3015C63.6608 21.0796 62.7327 17.4796 61.7764 15.1452L58.2608 6.70775Z" fill="url(#paint38_radial_794_4737)"/>
</g>
<g filter="url(#filter5_dd_794_4737)">
<path d="M23.4698 45.0985C21.6979 42.286 22.7104 38.5735 25.6635 37.0829L28.3354 35.7329L26.1416 33.9047C23.6385 31.7954 23.4416 28.0266 25.6916 25.6641C27.9979 23.2735 31.851 23.386 34.0166 25.8891L35.7885 27.9422L37.026 25.2704C38.4323 22.261 42.0885 21.1079 44.9573 22.7672C47.7698 24.3985 48.6135 28.111 46.7854 30.811L45.351 32.9204L48.6135 33.2016C51.9041 33.4829 54.2666 36.5204 53.676 39.7829C53.5381 40.5425 53.2459 41.2658 52.8174 41.908C52.389 42.5503 51.8334 43.0979 51.185 43.517C50.5366 43.9361 49.8091 44.2178 49.0476 44.3446C48.286 44.4715 47.5065 44.4409 46.7573 44.2547L44.3948 43.7485L45.126 45.9141C46.0541 49.036 44.1135 52.2985 40.9354 53.0016C37.701 53.7047 34.551 51.4829 34.1573 48.1922L33.7354 44.986L31.5416 46.5891C28.926 48.5579 25.2135 47.8547 23.4698 45.0985Z" fill="url(#paint39_linear_794_4737)"/>
</g>
<path d="M23.4698 45.0985C21.6979 42.286 22.7104 38.5735 25.6635 37.0829L28.3354 35.7329L26.1416 33.9047C23.6385 31.7954 23.4416 28.0266 25.6916 25.6641C27.9979 23.2735 31.851 23.386 34.0166 25.8891L35.7885 27.9422L37.026 25.2704C38.4323 22.261 42.0885 21.1079 44.9573 22.7672C47.7698 24.3985 48.6135 28.111 46.7854 30.811L45.351 32.9204L48.6135 33.2016C51.9041 33.4829 54.2666 36.5204 53.676 39.7829C53.5381 40.5425 53.2459 41.2658 52.8174 41.908C52.389 42.5503 51.8334 43.0979 51.185 43.517C50.5366 43.9361 49.8091 44.2178 49.0476 44.3446C48.286 44.4715 47.5065 44.4409 46.7573 44.2547L44.3948 43.7485L45.126 45.9141C46.0541 49.036 44.1135 52.2985 40.9354 53.0016C37.701 53.7047 34.551 51.4829 34.1573 48.1922L33.7354 44.986L31.5416 46.5891C28.926 48.5579 25.2135 47.8547 23.4698 45.0985Z" fill="url(#paint40_radial_794_4737)"/>
<path d="M23.4698 45.0985C21.6979 42.286 22.7104 38.5735 25.6635 37.0829L28.3354 35.7329L26.1416 33.9047C23.6385 31.7954 23.4416 28.0266 25.6916 25.6641C27.9979 23.2735 31.851 23.386 34.0166 25.8891L35.7885 27.9422L37.026 25.2704C38.4323 22.261 42.0885 21.1079 44.9573 22.7672C47.7698 24.3985 48.6135 28.111 46.7854 30.811L45.351 32.9204L48.6135 33.2016C51.9041 33.4829 54.2666 36.5204 53.676 39.7829C53.5381 40.5425 53.2459 41.2658 52.8174 41.908C52.389 42.5503 51.8334 43.0979 51.185 43.517C50.5366 43.9361 49.8091 44.2178 49.0476 44.3446C48.286 44.4715 47.5065 44.4409 46.7573 44.2547L44.3948 43.7485L45.126 45.9141C46.0541 49.036 44.1135 52.2985 40.9354 53.0016C37.701 53.7047 34.551 51.4829 34.1573 48.1922L33.7354 44.986L31.5416 46.5891C28.926 48.5579 25.2135 47.8547 23.4698 45.0985Z" fill="url(#paint41_radial_794_4737)"/>
<path d="M23.4698 45.0985C21.6979 42.286 22.7104 38.5735 25.6635 37.0829L28.3354 35.7329L26.1416 33.9047C23.6385 31.7954 23.4416 28.0266 25.6916 25.6641C27.9979 23.2735 31.851 23.386 34.0166 25.8891L35.7885 27.9422L37.026 25.2704C38.4323 22.261 42.0885 21.1079 44.9573 22.7672C47.7698 24.3985 48.6135 28.111 46.7854 30.811L45.351 32.9204L48.6135 33.2016C51.9041 33.4829 54.2666 36.5204 53.676 39.7829C53.5381 40.5425 53.2459 41.2658 52.8174 41.908C52.389 42.5503 51.8334 43.0979 51.185 43.517C50.5366 43.9361 49.8091 44.2178 49.0476 44.3446C48.286 44.4715 47.5065 44.4409 46.7573 44.2547L44.3948 43.7485L45.126 45.9141C46.0541 49.036 44.1135 52.2985 40.9354 53.0016C37.701 53.7047 34.551 51.4829 34.1573 48.1922L33.7354 44.986L31.5416 46.5891C28.926 48.5579 25.2135 47.8547 23.4698 45.0985Z" fill="url(#paint42_radial_794_4737)"/>
<path d="M23.4698 45.0985C21.6979 42.286 22.7104 38.5735 25.6635 37.0829L28.3354 35.7329L26.1416 33.9047C23.6385 31.7954 23.4416 28.0266 25.6916 25.6641C27.9979 23.2735 31.851 23.386 34.0166 25.8891L35.7885 27.9422L37.026 25.2704C38.4323 22.261 42.0885 21.1079 44.9573 22.7672C47.7698 24.3985 48.6135 28.111 46.7854 30.811L45.351 32.9204L48.6135 33.2016C51.9041 33.4829 54.2666 36.5204 53.676 39.7829C53.5381 40.5425 53.2459 41.2658 52.8174 41.908C52.389 42.5503 51.8334 43.0979 51.185 43.517C50.5366 43.9361 49.8091 44.2178 49.0476 44.3446C48.286 44.4715 47.5065 44.4409 46.7573 44.2547L44.3948 43.7485L45.126 45.9141C46.0541 49.036 44.1135 52.2985 40.9354 53.0016C37.701 53.7047 34.551 51.4829 34.1573 48.1922L33.7354 44.986L31.5416 46.5891C28.926 48.5579 25.2135 47.8547 23.4698 45.0985Z" fill="url(#paint43_radial_794_4737)"/>
<path d="M23.4698 45.0985C21.6979 42.286 22.7104 38.5735 25.6635 37.0829L28.3354 35.7329L26.1416 33.9047C23.6385 31.7954 23.4416 28.0266 25.6916 25.6641C27.9979 23.2735 31.851 23.386 34.0166 25.8891L35.7885 27.9422L37.026 25.2704C38.4323 22.261 42.0885 21.1079 44.9573 22.7672C47.7698 24.3985 48.6135 28.111 46.7854 30.811L45.351 32.9204L48.6135 33.2016C51.9041 33.4829 54.2666 36.5204 53.676 39.7829C53.5381 40.5425 53.2459 41.2658 52.8174 41.908C52.389 42.5503 51.8334 43.0979 51.185 43.517C50.5366 43.9361 49.8091 44.2178 49.0476 44.3446C48.286 44.4715 47.5065 44.4409 46.7573 44.2547L44.3948 43.7485L45.126 45.9141C46.0541 49.036 44.1135 52.2985 40.9354 53.0016C37.701 53.7047 34.551 51.4829 34.1573 48.1922L33.7354 44.986L31.5416 46.5891C28.926 48.5579 25.2135 47.8547 23.4698 45.0985Z" fill="url(#paint44_radial_794_4737)"/>
<g filter="url(#filter6_f_794_4737)">
<path d="M82.8503 70.1663L71.5469 81.6159" stroke="url(#paint45_linear_794_4737)" stroke-width="7.8125" stroke-linecap="round"/>
</g>
<g filter="url(#filter7_f_794_4737)">
<path d="M63.4717 12.3102L64.9482 9.05615C68.1939 14.6249 65.7751 18.9702 64.0201 20.3202C65.4657 16.8777 64.0736 13.4127 63.4717 12.3102Z" fill="#85C781"/>
</g>
<g filter="url(#filter8_f_794_4737)">
<path d="M64.5999 11.5451L65.258 9.45825C68.1127 15.4911 65.7755 18.9701 64.0205 20.3201C65.8964 16.7539 65.2018 12.6476 64.5999 11.5451Z" fill="url(#paint46_linear_794_4737)"/>
</g>
<g filter="url(#filter9_f_794_4737)">
<path d="M21.3574 72.5202C26.3834 70.9396 27.7277 66.853 27.7727 65.0052L26.4987 64.5215C26.4987 68.9512 23.0702 71.7018 21.3574 72.5202Z" fill="url(#paint47_linear_794_4737)"/>
</g>
<g filter="url(#filter10_f_794_4737)">
<path d="M57.3124 7.91992L61.4749 18.8324C62.7518 22.559 63.0864 29.5762 55.833 32.7993" stroke="url(#paint48_linear_794_4737)" stroke-width="6.25" stroke-linecap="round"/>
</g>
<g filter="url(#filter11_f_794_4737)">
<path d="M38.3027 15.6375C40.3502 15.9412 42.2205 16.6921 44.5802 18.7593C48.5037 22.199 50.4021 24.885 50.6074 25.3096" stroke="url(#paint49_linear_794_4737)" stroke-width="6.25" stroke-linecap="round"/>
</g>
<g filter="url(#filter12_f_794_4737)">
<path d="M28.5186 59.6446C29.9417 58.8233 32.9061 55.9714 33.3982 51.1199" stroke="url(#paint50_linear_794_4737)" stroke-width="6.25" stroke-linecap="round"/>
</g>
<g filter="url(#filter13_f_794_4737)">
<path d="M8.38086 55.8955C8.99117 55.3301 10.8362 54.0955 13.3449 53.6736" stroke="url(#paint51_linear_794_4737)" stroke-width="6.25" stroke-linecap="round"/>
</g>
<g filter="url(#filter14_f_794_4737)">
<path d="M41.7929 34.903L45.8344 28.8843L46.0988 30.8165L43.77 34.2871L41.79 34.9058L41.7929 34.903Z" fill="#FFF95E"/>
</g>
<g filter="url(#filter15_f_794_4737)">
<path d="M42.0744 39.8137L44.6056 46.6087H43.3288L41.4219 41.7797L42.0744 39.8137Z" fill="#FFF95E"/>
</g>
<g filter="url(#filter16_f_794_4737)">
<path d="M36.3371 31.8235L30.7627 25.2957H32.9564L36.0783 29.2782L36.3371 31.8235Z" fill="#FFF95E"/>
</g>
<g filter="url(#filter17_f_794_4737)">
<path d="M37.8643 41.9175C40.7696 40.9388 42.3643 37.8872 41.4249 35.1057C40.4883 32.3241 37.3721 30.8644 34.4639 31.8432C31.5586 32.8275 29.9639 35.8735 30.9033 38.6579C31.8399 41.4394 34.9561 42.8963 37.8643 41.9175Z" fill="#C48429"/>
</g>
<g filter="url(#filter18_f_794_4737)">
<path d="M38.2073 40.9219C38.8626 40.9376 39.5144 40.8221 40.1244 40.5821C40.7344 40.3422 41.2903 39.9826 41.7593 39.5247C42.2284 39.0668 42.6011 38.5197 42.8555 37.9156C43.11 37.3115 43.2411 36.6626 43.2411 36.0071C43.2411 35.3516 43.11 34.7027 42.8555 34.0986C42.6011 33.4945 42.2284 32.9474 41.7593 32.4894C41.2903 32.0315 40.7344 31.672 40.1244 31.432C39.5144 31.1921 38.8626 31.0765 38.2073 31.0922C36.9034 31.0922 35.6529 31.6102 34.731 32.5322C33.809 33.4541 33.291 34.7046 33.291 36.0085C33.291 37.3123 33.809 38.5628 34.731 39.4848C35.6529 40.4068 36.9034 40.9219 38.2073 40.9219Z" fill="#FFF158"/>
</g>
<g filter="url(#filter19_d_794_4737)">
<path d="M37.2375 41.7233C38.6473 41.7233 39.9993 41.1633 40.9962 40.1664C41.9931 39.1695 42.5531 37.8175 42.5531 36.4077C42.5531 34.9979 41.9931 33.6458 40.9962 32.649C39.9993 31.6521 38.6473 31.092 37.2375 31.092C35.8277 31.092 34.4757 31.6521 33.4788 32.649C32.4819 33.6458 31.9219 34.9979 31.9219 36.4077C31.9219 37.8175 32.4819 39.1695 33.4788 40.1664C34.4757 41.1633 35.8277 41.7233 37.2375 41.7233Z" fill="url(#paint52_radial_794_4737)"/>
<path d="M37.2375 41.7233C38.6473 41.7233 39.9993 41.1633 40.9962 40.1664C41.9931 39.1695 42.5531 37.8175 42.5531 36.4077C42.5531 34.9979 41.9931 33.6458 40.9962 32.649C39.9993 31.6521 38.6473 31.092 37.2375 31.092C35.8277 31.092 34.4757 31.6521 33.4788 32.649C32.4819 33.6458 31.9219 34.9979 31.9219 36.4077C31.9219 37.8175 32.4819 39.1695 33.4788 40.1664C34.4757 41.1633 35.8277 41.7233 37.2375 41.7233Z" fill="url(#paint53_radial_794_4737)"/>
</g>
</g>
<defs>
<filter id="filter0_f_794_4737" x="17.6172" y="-3.68481" width="83.5938" height="103.456" filterUnits="userSpaceOnUse" color-interpolation-filters="sRGB">
<feFlood flood-opacity="0" result="BackgroundImageFix"/>
<feBlend mode="normal" in="SourceGraphic" in2="BackgroundImageFix" result="shape"/>
<feGaussianBlur stdDeviation="15.625" result="effect1_foregroundBlur_794_4737"/>
</filter>
<filter id="filter1_dd_794_4737" x="-13.126" y="12.3923" width="67.0645" height="67.5229" filterUnits="userSpaceOnUse" color-interpolation-filters="sRGB">
<feFlood flood-opacity="0" result="BackgroundImageFix"/>
<feColorMatrix in="SourceAlpha" type="matrix" values="0 0 0 0 0 0 0 0 0 0 0 0 0 0 0 0 0 0 127 0" result="hardAlpha"/>
<feOffset dx="-3.125" dy="-6.25"/>
<feGaussianBlur stdDeviation="7.8125"/>
<feComposite in2="hardAlpha" operator="out"/>
<feColorMatrix type="matrix" values="0 0 0 0 0.737255 0 0 0 0 0.211765 0 0 0 0 0.623529 0 0 0 1 0"/>
<feBlend mode="normal" in2="BackgroundImageFix" result="effect1_dropShadow_794_4737"/>
<feColorMatrix in="SourceAlpha" type="matrix" values="0 0 0 0 0 0 0 0 0 0 0 0 0 0 0 0 0 0 127 0" result="hardAlpha"/>
<feOffset dx="3.125" dy="1.5625"/>
<feGaussianBlur stdDeviation="7.8125"/>
<feComposite in2="hardAlpha" operator="out"/>
<feColorMatrix type="matrix" values="0 0 0 0 0.647059 0 0 0 0 0.027451 0 0 0 0 0.34902 0 0 0 1 0"/>
<feBlend mode="normal" in2="effect1_dropShadow_794_4737" result="effect2_dropShadow_794_4737"/>
<feBlend mode="normal" in="SourceGraphic" in2="effect2_dropShadow_794_4737" result="shape"/>
</filter>
<filter id="filter2_f_794_4737" x="5.41016" y="25.9421" width="30.8398" height="25.4822" filterUnits="userSpaceOnUse" color-interpolation-filters="sRGB">
<feFlood flood-opacity="0" result="BackgroundImageFix"/>
<feBlend mode="normal" in="SourceGraphic" in2="BackgroundImageFix" result="shape"/>
<feGaussianBlur stdDeviation="3.90625" result="effect1_foregroundBlur_794_4737"/>
</filter>
<filter id="filter3_d_794_4737" x="28.1416" y="-4.47559" width="36.2734" height="39.7209" filterUnits="userSpaceOnUse" color-interpolation-filters="sRGB">
<feFlood flood-opacity="0" result="BackgroundImageFix"/>
<feColorMatrix in="SourceAlpha" type="matrix" values="0 0 0 0 0 0 0 0 0 0 0 0 0 0 0 0 0 0 127 0" result="hardAlpha"/>
<feOffset dx="-3.125" dy="-6.25"/>
<feGaussianBlur stdDeviation="1.95312"/>
<feComposite in2="hardAlpha" operator="out"/>
<feColorMatrix type="matrix" values="0 0 0 0 0.85098 0 0 0 0 0.4 0 0 0 0 0.643137 0 0 0 1 0"/>
<feBlend mode="normal" in2="BackgroundImageFix" result="effect1_dropShadow_794_4737"/>
<feBlend mode="normal" in="SourceGraphic" in2="effect1_dropShadow_794_4737" result="shape"/>
</filter>
<filter id="filter4_dd_794_4737" x="24.2354" y="-8.38184" width="50.3359" height="57.6897" filterUnits="userSpaceOnUse" color-interpolation-filters="sRGB">
<feFlood flood-opacity="0" result="BackgroundImageFix"/>
<feColorMatrix in="SourceAlpha" type="matrix" values="0 0 0 0 0 0 0 0 0 0 0 0 0 0 0 0 0 0 127 0" result="hardAlpha"/>
<feOffset dx="-3.125" dy="-6.25"/>
<feGaussianBlur stdDeviation="3.90625"/>
<feComposite in2="hardAlpha" operator="out"/>
<feColorMatrix type="matrix" values="0 0 0 0 0.807843 0 0 0 0 0.215686 0 0 0 0 0.494118 0 0 0 0.5 0"/>
<feBlend mode="normal" in2="BackgroundImageFix" result="effect1_dropShadow_794_4737"/>
<feColorMatrix in="SourceAlpha" type="matrix" values="0 0 0 0 0 0 0 0 0 0 0 0 0 0 0 0 0 0 127 0" result="hardAlpha"/>
<feOffset dx="3.125" dy="6.25"/>
<feGaussianBlur stdDeviation="3.90625"/>
<feComposite in2="hardAlpha" operator="out"/>
<feColorMatrix type="matrix" values="0 0 0 0 0.825 0 0 0 0 0.244062 0 0 0 0 0.56974 0 0 0 1 0"/>
<feBlend mode="normal" in2="effect1_dropShadow_794_4737" result="effect2_dropShadow_794_4737"/>
<feBlend mode="normal" in="SourceGraphic" in2="effect2_dropShadow_794_4737" result="shape"/>
</filter>
<filter id="filter5_dd_794_4737" x="3.06348" y="1.69385" width="74.1406" height="67.8442" filterUnits="userSpaceOnUse" color-interpolation-filters="sRGB">
<feFlood flood-opacity="0" result="BackgroundImageFix"/>
<feColorMatrix in="SourceAlpha" type="matrix" values="0 0 0 0 0 0 0 0 0 0 0 0 0 0 0 0 0 0 127 0" result="hardAlpha"/>
<feOffset dx="7.8125" dy="-4.6875"/>
<feGaussianBlur stdDeviation="7.8125"/>
<feComposite in2="hardAlpha" operator="out"/>
<feColorMatrix type="matrix" values="0 0 0 0 0.741176 0 0 0 0 0.509804 0 0 0 0 0.160784 0 0 0 1 0"/>
<feBlend mode="normal" in2="BackgroundImageFix" result="effect1_dropShadow_794_4737"/>
<feColorMatrix in="SourceAlpha" type="matrix" values="0 0 0 0 0 0 0 0 0 0 0 0 0 0 0 0 0 0 127 0" result="hardAlpha"/>
<feOffset dx="-7.8125" dy="4.6875"/>
<feGaussianBlur stdDeviation="5.85938"/>
<feComposite in2="hardAlpha" operator="out"/>
<feColorMatrix type="matrix" values="0 0 0 0 1 0 0 0 0 1 0 0 0 0 0.435294 0 0 0 1 0"/>
<feBlend mode="normal" in2="effect1_dropShadow_794_4737" result="effect2_dropShadow_794_4737"/>
<feBlend mode="normal" in="SourceGraphic" in2="effect2_dropShadow_794_4737" result="shape"/>
</filter>
<filter id="filter6_f_794_4737" x="59.8281" y="58.4475" width="34.7412" height="34.8872" filterUnits="userSpaceOnUse" color-interpolation-filters="sRGB">
<feFlood flood-opacity="0" result="BackgroundImageFix"/>
<feBlend mode="normal" in="SourceGraphic" in2="BackgroundImageFix" result="shape"/>
<feGaussianBlur stdDeviation="3.90625" result="effect1_foregroundBlur_794_4737"/>
</filter>
<filter id="filter7_f_794_4737" x="55.6592" y="1.24365" width="18.7002" height="26.8892" filterUnits="userSpaceOnUse" color-interpolation-filters="sRGB">
<feFlood flood-opacity="0" result="BackgroundImageFix"/>
<feBlend mode="normal" in="SourceGraphic" in2="BackgroundImageFix" result="shape"/>
<feGaussianBlur stdDeviation="3.90625" result="effect1_foregroundBlur_794_4737"/>
</filter>
<filter id="filter8_f_794_4737" x="56.208" y="1.64575" width="18.2012" height="26.4868" filterUnits="userSpaceOnUse" color-interpolation-filters="sRGB">
<feFlood flood-opacity="0" result="BackgroundImageFix"/>
<feBlend mode="normal" in="SourceGraphic" in2="BackgroundImageFix" result="shape"/>
<feGaussianBlur stdDeviation="3.90625" result="effect1_foregroundBlur_794_4737"/>
</filter>
<filter id="filter9_f_794_4737" x="13.5449" y="56.709" width="22.04" height="23.6238" filterUnits="userSpaceOnUse" color-interpolation-filters="sRGB">
<feFlood flood-opacity="0" result="BackgroundImageFix"/>
<feBlend mode="normal" in="SourceGraphic" in2="BackgroundImageFix" result="shape"/>
<feGaussianBlur stdDeviation="3.90625" result="effect1_foregroundBlur_794_4737"/>
</filter>
<filter id="filter10_f_794_4737" x="46.457" y="-1.45581" width="25.1113" height="43.6309" filterUnits="userSpaceOnUse" color-interpolation-filters="sRGB">
<feFlood flood-opacity="0" result="BackgroundImageFix"/>
<feBlend mode="normal" in="SourceGraphic" in2="BackgroundImageFix" result="shape"/>
<feGaussianBlur stdDeviation="3.125" result="effect1_foregroundBlur_794_4737"/>
</filter>
<filter id="filter11_f_794_4737" x="25.8027" y="3.13696" width="37.3057" height="34.6733" filterUnits="userSpaceOnUse" color-interpolation-filters="sRGB">
<feFlood flood-opacity="0" result="BackgroundImageFix"/>
<feBlend mode="normal" in="SourceGraphic" in2="BackgroundImageFix" result="shape"/>
<feGaussianBlur stdDeviation="4.6875" result="effect1_foregroundBlur_794_4737"/>
</filter>
<filter id="filter12_f_794_4737" x="17.5801" y="40.1821" width="26.7559" height="30.4004" filterUnits="userSpaceOnUse" color-interpolation-filters="sRGB">
<feFlood flood-opacity="0" result="BackgroundImageFix"/>
<feBlend mode="normal" in="SourceGraphic" in2="BackgroundImageFix" result="shape"/>
<feGaussianBlur stdDeviation="3.90625" result="effect1_foregroundBlur_794_4737"/>
</filter>
<filter id="filter13_f_794_4737" x="-2.55664" y="42.7356" width="26.8398" height="24.0974" filterUnits="userSpaceOnUse" color-interpolation-filters="sRGB">
<feFlood flood-opacity="0" result="BackgroundImageFix"/>
<feBlend mode="normal" in="SourceGraphic" in2="BackgroundImageFix" result="shape"/>
<feGaussianBlur stdDeviation="3.90625" result="effect1_foregroundBlur_794_4737"/>
</filter>
<filter id="filter14_f_794_4737" x="33.9775" y="21.0718" width="19.9336" height="21.6465" filterUnits="userSpaceOnUse" color-interpolation-filters="sRGB">
<feFlood flood-opacity="0" result="BackgroundImageFix"/>
<feBlend mode="normal" in="SourceGraphic" in2="BackgroundImageFix" result="shape"/>
<feGaussianBlur stdDeviation="3.90625" result="effect1_foregroundBlur_794_4737"/>
</filter>
<filter id="filter15_f_794_4737" x="33.6094" y="32.0012" width="18.8086" height="22.4199" filterUnits="userSpaceOnUse" color-interpolation-filters="sRGB">
<feFlood flood-opacity="0" result="BackgroundImageFix"/>
<feBlend mode="normal" in="SourceGraphic" in2="BackgroundImageFix" result="shape"/>
<feGaussianBlur stdDeviation="3.90625" result="effect1_foregroundBlur_794_4737"/>
</filter>
<filter id="filter16_f_794_4737" x="22.9502" y="17.4832" width="21.1992" height="22.1528" filterUnits="userSpaceOnUse" color-interpolation-filters="sRGB">
<feFlood flood-opacity="0" result="BackgroundImageFix"/>
<feBlend mode="normal" in="SourceGraphic" in2="BackgroundImageFix" result="shape"/>
<feGaussianBlur stdDeviation="3.90625" result="effect1_foregroundBlur_794_4737"/>
</filter>
<filter id="filter17_f_794_4737" x="22.8213" y="23.7263" width="26.6855" height="26.3083" filterUnits="userSpaceOnUse" color-interpolation-filters="sRGB">
<feFlood flood-opacity="0" result="BackgroundImageFix"/>
<feBlend mode="normal" in="SourceGraphic" in2="BackgroundImageFix" result="shape"/>
<feGaussianBlur stdDeviation="3.90625" result="effect1_foregroundBlur_794_4737"/>
</filter>
<filter id="filter18_f_794_4737" x="25.4785" y="23.2783" width="25.5752" height="25.4575" filterUnits="userSpaceOnUse" color-interpolation-filters="sRGB">
<feFlood flood-opacity="0" result="BackgroundImageFix"/>
<feBlend mode="normal" in="SourceGraphic" in2="BackgroundImageFix" result="shape"/>
<feGaussianBlur stdDeviation="3.90625" result="effect1_foregroundBlur_794_4737"/>
</filter>
<filter id="filter19_d_794_4737" x="24.1094" y="23.2795" width="26.2559" height="26.2563" filterUnits="userSpaceOnUse" color-interpolation-filters="sRGB">
<feFlood flood-opacity="0" result="BackgroundImageFix"/>
<feColorMatrix in="SourceAlpha" type="matrix" values="0 0 0 0 0 0 0 0 0 0 0 0 0 0 0 0 0 0 127 0" result="hardAlpha"/>
<feOffset/>
<feGaussianBlur stdDeviation="3.90625"/>
<feComposite in2="hardAlpha" operator="out"/>
<feColorMatrix type="matrix" values="0 0 0 0 0.788235 0 0 0 0 0.407843 0 0 0 0 0.0705882 0 0 0 0.5 0"/>
<feBlend mode="normal" in2="BackgroundImageFix" result="effect1_dropShadow_794_4737"/>
<feBlend mode="normal" in="SourceGraphic" in2="effect1_dropShadow_794_4737" result="shape"/>
</filter>
<linearGradient id="paint0_linear_794_4737" x1="11.2494" y1="61.4024" x2="13.8875" y2="63.8633" gradientUnits="userSpaceOnUse">
<stop stop-color="#3D6A4A"/>
<stop offset="1" stop-color="#3D6A4A" stop-opacity="0"/>
</linearGradient>
<linearGradient id="paint1_linear_794_4737" x1="21.7513" y1="63.3374" x2="16.3906" y2="67.2046" gradientUnits="userSpaceOnUse">
<stop stop-color="#3D6A4A"/>
<stop offset="1" stop-color="#3D6A4A" stop-opacity="0"/>
</linearGradient>
<radialGradient id="paint2_radial_794_4737" cx="0" cy="0" r="1" gradientUnits="userSpaceOnUse" gradientTransform="translate(21.3122 64.0862) rotate(119.495) scale(4.99837 3.86055)">
<stop stop-color="#47723C"/>
<stop offset="1" stop-color="#47723C" stop-opacity="0"/>
</radialGradient>
<radialGradient id="paint3_radial_794_4737" cx="0" cy="0" r="1" gradientUnits="userSpaceOnUse" gradientTransform="translate(17.1836 64.963) rotate(3.14113) scale(14.4357 18.5789)">
<stop offset="0.675" stop-color="#1F5433" stop-opacity="0"/>
<stop offset="1" stop-color="#1F5433"/>
</radialGradient>
<linearGradient id="paint4_linear_794_4737" x1="18.8964" y1="69.9721" x2="21.4445" y2="69.9271" gradientUnits="userSpaceOnUse">
<stop stop-color="#56873B"/>
<stop offset="1" stop-color="#56873B" stop-opacity="0"/>
</linearGradient>
<radialGradient id="paint5_radial_794_4737" cx="0" cy="0" r="1" gradientUnits="userSpaceOnUse" gradientTransform="translate(24.7408 60.8315) rotate(50.4169) scale(7.24151 16.1991)">
<stop stop-color="#1F5433"/>
<stop offset="1" stop-color="#1F5433" stop-opacity="0"/>
</radialGradient>
<linearGradient id="paint6_linear_794_4737" x1="61.5226" y1="10.7774" x2="63.9723" y2="13.0611" gradientUnits="userSpaceOnUse">
<stop stop-color="#408051"/>
<stop offset="1" stop-color="#408051" stop-opacity="0"/>
</linearGradient>
<radialGradient id="paint7_radial_794_4737" cx="0" cy="0" r="1" gradientUnits="userSpaceOnUse" gradientTransform="translate(59.5173 9.00549) rotate(55.8673) scale(12.5814 15.6181)">
<stop offset="0.696" stop-color="#5DB02D" stop-opacity="0"/>
<stop offset="1" stop-color="#5DB02D"/>
</radialGradient>
<radialGradient id="paint8_radial_794_4737" cx="0" cy="0" r="1" gradientUnits="userSpaceOnUse" gradientTransform="translate(70.6662 28.0916) rotate(-134.64) scale(9.88175 39.3522)">
<stop stop-color="#81CF5F"/>
<stop offset="1" stop-color="#38924A"/>
</radialGradient>
<radialGradient id="paint9_radial_794_4737" cx="0" cy="0" r="1" gradientUnits="userSpaceOnUse" gradientTransform="translate(72.635 24.4013) rotate(124.365) scale(10.9669 6.74073)">
<stop stop-color="#9AE268"/>
<stop offset="1" stop-color="#9AE268" stop-opacity="0"/>
</radialGradient>
<radialGradient id="paint10_radial_794_4737" cx="0" cy="0" r="1" gradientUnits="userSpaceOnUse" gradientTransform="translate(72.9922 20.4329) rotate(142.589) scale(4.86869 0.59734)">
<stop stop-color="#A6EB6E"/>
<stop offset="1" stop-color="#A6EB6E" stop-opacity="0"/>
</radialGradient>
<radialGradient id="paint11_radial_794_4737" cx="0" cy="0" r="1" gradientUnits="userSpaceOnUse" gradientTransform="translate(68.4219 30.1585) rotate(-112.448) scale(10.1278 14.7072)">
<stop offset="0.891" stop-color="#338E48" stop-opacity="0"/>
<stop offset="1" stop-color="#338E48"/>
</radialGradient>
<radialGradient id="paint12_radial_794_4737" cx="0" cy="0" r="1" gradientUnits="userSpaceOnUse" gradientTransform="translate(63.4129 19.3894) rotate(49.6805) scale(10.6629 11.5534)">
<stop offset="0.891" stop-color="#6FB26E" stop-opacity="0"/>
<stop offset="1" stop-color="#6FB26E"/>
</radialGradient>
<linearGradient id="paint13_linear_794_4737" x1="87.2745" y1="47.6098" x2="63.6861" y2="81.222" gradientUnits="userSpaceOnUse">
<stop stop-color="#99DE6A"/>
<stop offset="1" stop-color="#579F54"/>
</linearGradient>
<radialGradient id="paint14_radial_794_4737" cx="0" cy="0" r="1" gradientUnits="userSpaceOnUse" gradientTransform="translate(33.4855 48.9233) rotate(69.6236) scale(16.4076 16.2982)">
<stop stop-color="#497254"/>
<stop offset="1" stop-color="#497254" stop-opacity="0"/>
</radialGradient>
<radialGradient id="paint15_radial_794_4737" cx="0" cy="0" r="1" gradientUnits="userSpaceOnUse" gradientTransform="translate(41.3099 38.8123) rotate(47.2906) scale(12.4396 12.3566)">
<stop stop-color="#497254"/>
<stop offset="1" stop-color="#497254" stop-opacity="0"/>
</radialGradient>
<linearGradient id="paint16_linear_794_4737" x1="47.1092" y1="76.6967" x2="60.3674" y2="56.7645" gradientUnits="userSpaceOnUse">
<stop stop-color="#3D6553"/>
<stop offset="1" stop-color="#3D6553" stop-opacity="0"/>
</linearGradient>
<linearGradient id="paint17_linear_794_4737" x1="45.5708" y1="67.8626" x2="45.9674" y2="65.6211" gradientUnits="userSpaceOnUse">
<stop stop-color="#52687A"/>
<stop offset="1" stop-color="#52687A" stop-opacity="0"/>
</linearGradient>
<linearGradient id="paint18_linear_794_4737" x1="85.2355" y1="73.3331" x2="72.6439" y2="82.8843" gradientUnits="userSpaceOnUse">
<stop stop-color="#99DE6A"/>
<stop offset="1" stop-color="#579F54"/>
</linearGradient>
<linearGradient id="paint19_linear_794_4737" x1="61.0818" y1="80.9296" x2="74.1346" y2="76.9584" gradientUnits="userSpaceOnUse">
<stop offset="0.304" stop-color="#3D6553"/>
<stop offset="1" stop-color="#3D6553" stop-opacity="0"/>
</linearGradient>
<linearGradient id="paint20_linear_794_4737" x1="75.268" y1="82.7465" x2="73.3668" y2="80.8312" gradientUnits="userSpaceOnUse">
<stop stop-color="#3D6553"/>
<stop offset="1" stop-color="#3D6553" stop-opacity="0"/>
</linearGradient>
<linearGradient id="paint21_linear_794_4737" x1="74.3982" y1="66.2371" x2="66.4444" y2="74.0334" gradientUnits="userSpaceOnUse">
<stop stop-color="#33A0F4"/>
<stop offset="1" stop-color="#2D41B2"/>
</linearGradient>
<linearGradient id="paint22_linear_794_4737" x1="70.3116" y1="66.1696" x2="70.7278" y2="66.6534" gradientUnits="userSpaceOnUse">
<stop stop-color="#4BB1FF"/>
<stop offset="1" stop-color="#4BB1FF" stop-opacity="0"/>
</linearGradient>
<radialGradient id="paint23_radial_794_4737" cx="0" cy="0" r="1" gradientUnits="userSpaceOnUse" gradientTransform="translate(24.0827 51.6851) rotate(-153.371) scale(13.0765 3.77274)">
<stop stop-color="#AA2359"/>
<stop offset="1" stop-color="#A20F52"/>
</radialGradient>
<radialGradient id="paint24_radial_794_4737" cx="0" cy="0" r="1" gradientUnits="userSpaceOnUse" gradientTransform="translate(18.3677 43.0564) rotate(174.201) scale(5.65393 2.76638)">
<stop stop-color="#A04E64"/>
<stop offset="1" stop-color="#A04E64" stop-opacity="0"/>
</radialGradient>
<radialGradient id="paint25_radial_794_4737" cx="0" cy="0" r="1" gradientUnits="userSpaceOnUse" gradientTransform="translate(20.7414 47.7561) rotate(124.743) scale(3.31575 12.2892)">
<stop stop-color="#87083C"/>
<stop offset="1" stop-color="#9E124B" stop-opacity="0"/>
</radialGradient>
<linearGradient id="paint26_linear_794_4737" x1="5.62454" y1="44.5922" x2="34.5174" y2="57.1359" gradientUnits="userSpaceOnUse">
<stop stop-color="#B33E81"/>
<stop offset="1" stop-color="#D15AAB"/>
</linearGradient>
<linearGradient id="paint27_linear_794_4737" x1="24.2574" y1="37.6509" x2="22.4124" y2="41.4281" gradientUnits="userSpaceOnUse">
<stop stop-color="#B1437C"/>
<stop offset="1" stop-color="#B1437C" stop-opacity="0"/>
</linearGradient>
<radialGradient id="paint28_radial_794_4737" cx="0" cy="0" r="1" gradientUnits="userSpaceOnUse" gradientTransform="translate(34.0126 44.7697) rotate(125.266) scale(4.5668 4.74398)">
<stop stop-color="#B1437C"/>
<stop offset="1" stop-color="#B1437C" stop-opacity="0"/>
</radialGradient>
<radialGradient id="paint29_radial_794_4737" cx="0" cy="0" r="1" gradientUnits="userSpaceOnUse" gradientTransform="translate(33.9802 57.4397) rotate(-153.163) scale(12.2957 12.7727)">
<stop stop-color="#D365AF"/>
<stop offset="1" stop-color="#D365AF" stop-opacity="0"/>
</radialGradient>
<linearGradient id="paint30_linear_794_4737" x1="24.8733" y1="40.486" x2="13.6993" y2="38.8857" gradientUnits="userSpaceOnUse">
<stop stop-color="#D46FB0"/>
<stop offset="1" stop-color="#D46FB0" stop-opacity="0"/>
</linearGradient>
<radialGradient id="paint31_radial_794_4737" cx="0" cy="0" r="1" gradientUnits="userSpaceOnUse" gradientTransform="translate(52.821 22.5983) rotate(-100.605) scale(10.5066 2.30241)">
<stop stop-color="#AE1050"/>
<stop offset="1" stop-color="#AE1050" stop-opacity="0"/>
</radialGradient>
<radialGradient id="paint32_radial_794_4737" cx="0" cy="0" r="1" gradientUnits="userSpaceOnUse" gradientTransform="translate(53.3948 14.383) rotate(-141.995) scale(5.10306 1.63402)">
<stop stop-color="#BD506E"/>
<stop offset="1" stop-color="#BD506E" stop-opacity="0"/>
</radialGradient>
<radialGradient id="paint33_radial_794_4737" cx="0" cy="0" r="1" gradientUnits="userSpaceOnUse" gradientTransform="translate(50.9339 24.6205) rotate(-98.763) scale(11.2495 4.56294)">
<stop stop-color="#C33167"/>
<stop offset="1" stop-color="#C33167" stop-opacity="0"/>
</radialGradient>
<linearGradient id="paint34_linear_794_4737" x1="34.1014" y1="15.6993" x2="63.6327" y2="27.8296" gradientUnits="userSpaceOnUse">
<stop stop-color="#CE5699"/>
<stop offset="1" stop-color="#E95DB4"/>
</linearGradient>
<linearGradient id="paint35_linear_794_4737" x1="34.1014" y1="15.6993" x2="63.6327" y2="27.8296" gradientUnits="userSpaceOnUse">
<stop stop-color="#CE5699"/>
<stop offset="1" stop-color="#E95DB4"/>
</linearGradient>
<linearGradient id="paint36_linear_794_4737" x1="39.3833" y1="31.8937" x2="48.3805" y2="28.2656" gradientUnits="userSpaceOnUse">
<stop stop-color="#B43A73"/>
<stop offset="1" stop-color="#B43A73" stop-opacity="0"/>
</linearGradient>
<radialGradient id="paint37_radial_794_4737" cx="0" cy="0" r="1" gradientUnits="userSpaceOnUse" gradientTransform="translate(44.9549 32.6615) rotate(-12.2955) scale(3.5082 3.3772)">
<stop stop-color="#B43A73"/>
<stop offset="1" stop-color="#B43A73" stop-opacity="0"/>
</radialGradient>
<radialGradient id="paint38_radial_794_4737" cx="0" cy="0" r="1" gradientUnits="userSpaceOnUse" gradientTransform="translate(50.4505 14.7318) rotate(7.76517) scale(7.80595 15.4892)">
<stop stop-color="#CA418C"/>
<stop offset="1" stop-color="#CA418C" stop-opacity="0"/>
</radialGradient>
<linearGradient id="paint39_linear_794_4737" x1="43.1882" y1="22.981" x2="30.9116" y2="51.5841" gradientUnits="userSpaceOnUse">
<stop stop-color="#FFD43F"/>
<stop offset="1" stop-color="#FEC640"/>
</linearGradient>
<radialGradient id="paint40_radial_794_4737" cx="0" cy="0" r="1" gradientUnits="userSpaceOnUse" gradientTransform="translate(38.1817 56.6548) rotate(-84.584) scale(8.91678 13.0417)">
<stop stop-color="#D28660"/>
<stop offset="1" stop-color="#D28660" stop-opacity="0"/>
</radialGradient>
<radialGradient id="paint41_radial_794_4737" cx="0" cy="0" r="1" gradientUnits="userSpaceOnUse" gradientTransform="translate(50.7116 45.0563) rotate(-75.4258) scale(4.54064 19.5048)">
<stop stop-color="#EAA34E"/>
<stop offset="0.364" stop-color="#EAA34E" stop-opacity="0"/>
</radialGradient>
<radialGradient id="paint42_radial_794_4737" cx="0" cy="0" r="1" gradientUnits="userSpaceOnUse" gradientTransform="translate(46.9774 43.8121) rotate(-73.301) scale(1.37641 5.68243)">
<stop stop-color="#F2AD4B"/>
<stop offset="1" stop-color="#F2AD4B" stop-opacity="0"/>
</radialGradient>
<radialGradient id="paint43_radial_794_4737" cx="0" cy="0" r="1" gradientUnits="userSpaceOnUse" gradientTransform="translate(36.8713 24.3) rotate(17.7002) scale(2.16805 5.82812)">
<stop stop-color="#CBA22E"/>
<stop offset="1" stop-color="#CBA22E" stop-opacity="0"/>
</radialGradient>
<radialGradient id="paint44_radial_794_4737" cx="0" cy="0" r="1" gradientUnits="userSpaceOnUse" gradientTransform="translate(34.7169 46.1419) rotate(-3.01279) scale(1.67223 4.49524)">
<stop stop-color="#CBA22E"/>
<stop offset="1" stop-color="#CBA22E" stop-opacity="0"/>
</radialGradient>
<linearGradient id="paint45_linear_794_4737" x1="83.1456" y1="70.8553" x2="73.0713" y2="80.19" gradientUnits="userSpaceOnUse">
<stop stop-color="#AAE78E"/>
<stop offset="1" stop-color="#AAE78E" stop-opacity="0"/>
</linearGradient>
<linearGradient id="paint46_linear_794_4737" x1="65.1989" y1="9.59044" x2="65.1989" y2="17.9858" gradientUnits="userSpaceOnUse">
<stop stop-color="#8FEA89"/>
<stop offset="1" stop-color="#8FEA89" stop-opacity="0"/>
</linearGradient>
<linearGradient id="paint47_linear_794_4737" x1="27.2018" y1="64.5215" x2="22.8959" y2="72.5202" gradientUnits="userSpaceOnUse">
<stop stop-color="#8BBA74"/>
<stop offset="1" stop-color="#8BBA74" stop-opacity="0"/>
</linearGradient>
<linearGradient id="paint48_linear_794_4737" x1="59.0139" y1="7.91992" x2="58.2518" y2="40.2862" gradientUnits="userSpaceOnUse">
<stop stop-color="#F089C1"/>
<stop offset="1" stop-color="#F089C1" stop-opacity="0"/>
</linearGradient>
<linearGradient id="paint49_linear_794_4737" x1="50.0871" y1="22.424" x2="61.0362" y2="32.0962" gradientUnits="userSpaceOnUse">
<stop stop-color="#F089C1"/>
<stop offset="1" stop-color="#F089C1" stop-opacity="0"/>
</linearGradient>
<linearGradient id="paint50_linear_794_4737" x1="30.9598" y1="51.1199" x2="30.8417" y2="62.2152" gradientUnits="userSpaceOnUse">
<stop stop-color="#D46FB0"/>
<stop offset="1" stop-color="#D46FB0" stop-opacity="0"/>
</linearGradient>
<linearGradient id="paint51_linear_794_4737" x1="5.50648" y1="55.8955" x2="13.4602" y2="51.4377" gradientUnits="userSpaceOnUse">
<stop stop-color="#D46FB0"/>
<stop offset="1" stop-color="#D46FB0" stop-opacity="0"/>
</linearGradient>
<radialGradient id="paint52_radial_794_4737" cx="0" cy="0" r="1" gradientUnits="userSpaceOnUse" gradientTransform="translate(40.1906 35.7186) rotate(154.47) scale(4.84891 3.98446)">
<stop stop-color="#FFAF6F"/>
<stop offset="1" stop-color="#F28025"/>
</radialGradient>
<radialGradient id="paint53_radial_794_4737" cx="0" cy="0" r="1" gradientUnits="userSpaceOnUse" gradientTransform="translate(35.8819 42.3139) rotate(-79.5849) scale(7.5032 5.79987)">
<stop stop-color="#E05E34"/>
<stop offset="1" stop-color="#E05E34" stop-opacity="0"/>
</radialGradient>
<clipPath id="clip0_794_4737">
<rect width="90" height="90" fill="white"/>
</clipPath>
</defs>
</svg>
