<svg width="37" height="37" viewBox="0 0 37 37" fill="none" xmlns="http://www.w3.org/2000/svg">
<path d="M13.1204 35.7899C14.8323 36.307 16.5621 36.6101 18.3988 36.6101C23.1283 36.6101 27.664 34.7314 31.0082 31.3872C34.3525 28.0429 36.2312 23.5072 36.2312 18.7777C36.2312 16.4359 35.77 14.1171 34.8738 11.9536C33.9777 9.79003 32.6641 7.8242 31.0082 6.16831C29.3524 4.51241 27.3865 3.19889 25.223 2.30272C23.0595 1.40656 20.7406 0.945313 18.3988 0.945312C16.057 0.945313 13.7382 1.40656 11.5747 2.30272C9.41112 3.19889 7.44529 4.51241 5.7894 6.16831C2.44517 9.51253 0.566406 14.0483 0.566406 18.7777C0.566406 26.3565 5.32766 32.8653 12.0505 35.4332C11.89 34.0423 11.7295 31.7419 12.0505 30.1548L14.1012 21.3456C14.1012 21.3456 13.5841 20.3113 13.5841 18.6707C13.5841 16.2099 15.1177 14.3731 16.8652 14.3731C18.3988 14.3731 19.1121 15.4966 19.1121 16.941C19.1121 18.4746 18.0957 20.668 17.5785 22.7722C17.2754 24.5198 18.5058 26.0534 20.2891 26.0534C23.4632 26.0534 25.9241 22.6652 25.9241 17.8861C25.9241 13.6063 22.8569 10.6818 18.4523 10.6818C13.4236 10.6818 10.4634 14.4266 10.4634 18.3676C10.4634 19.9012 10.9627 21.4526 11.783 22.469C11.9435 22.576 11.9435 22.7187 11.89 22.9862L11.3729 24.9299C11.3729 25.2331 11.1767 25.3401 10.8735 25.1261C8.59099 24.1275 7.2714 20.882 7.2714 18.2606C7.2714 12.6255 11.2659 7.50764 18.9695 7.50764C25.1038 7.50764 29.8829 11.9123 29.8829 17.7613C29.8829 23.8956 26.0846 28.8174 20.6457 28.8174C18.916 28.8174 17.2219 27.8901 16.6156 26.8023L15.4208 31.0286C15.0107 32.5622 13.8872 34.6129 13.1204 35.8434V35.7899Z" fill="#E0C9C9"/>
</svg>
