<svg width="21" height="21" viewBox="0 0 21 21" fill="none" xmlns="http://www.w3.org/2000/svg">
<path d="M18.7324 0.0859375H1.8647C1.50885 0.0859375 1.16757 0.26455 0.915939 0.582483C0.664312 0.900416 0.522949 1.33163 0.522949 1.78125V19.2188C0.522949 19.6684 0.664312 20.0996 0.915939 20.4175C1.16757 20.7354 1.50885 20.9141 1.8647 20.9141H18.7324C19.0883 20.9141 19.4296 20.7354 19.6812 20.4175C19.9328 20.0996 20.0742 19.6684 20.0742 19.2188V1.78125C20.0742 1.33163 19.9328 0.900416 19.6812 0.582483C19.4296 0.26455 19.0883 0.0859375 18.7324 0.0859375ZM18.9241 19.2188C18.9241 19.283 18.9039 19.3446 18.868 19.39C18.832 19.4354 18.7833 19.4609 18.7324 19.4609H1.8647C1.81386 19.4609 1.76511 19.4354 1.72916 19.39C1.69322 19.3446 1.67302 19.283 1.67302 19.2188V1.78125C1.67302 1.71702 1.69322 1.65542 1.72916 1.61C1.76511 1.56458 1.81386 1.53906 1.8647 1.53906H18.7324C18.7833 1.53906 18.832 1.56458 18.868 1.61C18.9039 1.65542 18.9241 1.71702 18.9241 1.78125V19.2188ZM14.7072 5.65625C14.7072 7.13359 14.2427 8.55042 13.4159 9.59506C12.5891 10.6397 11.4678 11.2266 10.2986 11.2266C9.12932 11.2266 8.00798 10.6397 7.1812 9.59506C6.35443 8.55042 5.88995 7.13359 5.88995 5.65625C5.88995 5.46355 5.95054 5.27875 6.05838 5.14249C6.16622 5.00624 6.31248 4.92969 6.46499 4.92969C6.6175 4.92969 6.76376 5.00624 6.8716 5.14249C6.97944 5.27875 7.04002 5.46355 7.04002 5.65625C7.04002 6.7482 7.38333 7.79542 7.99443 8.56754C8.60552 9.33966 9.43434 9.77344 10.2986 9.77344C11.1628 9.77344 11.9916 9.33966 12.6027 8.56754C13.2138 7.79542 13.5571 6.7482 13.5571 5.65625C13.5571 5.46355 13.6177 5.27875 13.7255 5.14249C13.8334 5.00624 13.9796 4.92969 14.1321 4.92969C14.2846 4.92969 14.4309 5.00624 14.5387 5.14249C14.6466 5.27875 14.7072 5.46355 14.7072 5.65625Z" fill="#0E293D"/>
</svg>
