<svg width="24" height="23" viewBox="0 0 24 23" fill="none" xmlns="http://www.w3.org/2000/svg">
<path d="M23.1496 20.9352C21.5307 18.1457 18.9394 16.052 15.8726 15.0556C17.3426 14.1812 18.485 12.8483 19.1242 11.2615C19.7634 9.67469 19.8641 7.92187 19.4108 6.27229C18.9575 4.62271 17.9753 3.16762 16.6151 2.13055C15.2549 1.09348 13.5919 0.531799 11.8816 0.531799C10.1714 0.531799 8.50838 1.09348 7.14817 2.13055C5.78796 3.16762 4.80578 4.62271 4.35249 6.27229C3.89921 7.92187 3.99991 9.67469 4.63911 11.2615C5.27832 12.8483 6.42068 14.1812 7.89069 15.0556C4.82384 16.052 2.23258 18.1457 0.613711 20.9352C0.54581 21.0338 0.499017 21.1453 0.476272 21.2628C0.453527 21.3803 0.455321 21.5012 0.481543 21.618C0.507764 21.7347 0.557846 21.8448 0.628641 21.9413C0.699436 22.0378 0.789414 22.1185 0.892921 22.1786C0.996428 22.2386 1.11123 22.2765 1.2301 22.2901C1.34898 22.3036 1.46937 22.2923 1.5837 22.2571C1.69803 22.2218 1.80383 22.1633 1.89446 22.0851C1.98508 22.007 2.05858 21.911 2.11032 21.8031C3.10196 20.0891 4.52678 18.666 6.24183 17.6767C7.95688 16.6875 9.90186 16.1667 11.8816 16.1667C13.8614 16.1667 15.8064 16.6875 17.5215 17.6767C19.2365 18.666 20.6613 20.0891 21.653 21.8031C21.7047 21.911 21.7782 22.007 21.8688 22.0851C21.9595 22.1633 22.0653 22.2218 22.1796 22.2571C22.2939 22.2923 22.4143 22.3036 22.5332 22.2901C22.6521 22.2765 22.7669 22.2386 22.8704 22.1786C22.9739 22.1185 23.0639 22.0378 23.1346 21.9413C23.2054 21.8448 23.2555 21.7347 23.2817 21.618C23.308 21.5012 23.3098 21.3803 23.287 21.2628C23.2643 21.1453 23.2175 21.0338 23.1496 20.9352ZM5.80846 8.35157C5.80846 7.15008 6.16464 5.97556 6.83197 4.97656C7.4993 3.97755 8.4478 3.19892 9.55754 2.73913C10.6673 2.27933 11.8884 2.15903 13.0665 2.39343C14.2445 2.62783 15.3267 3.20641 16.176 4.05599C17.0254 4.90558 17.6038 5.98802 17.8381 7.16642C18.0725 8.34483 17.9522 9.56629 17.4925 10.6763C17.0329 11.7864 16.2545 12.7351 15.2557 13.4026C14.257 14.0702 13.0828 14.4264 11.8816 14.4264C10.2709 14.4264 8.7262 13.7864 7.58725 12.6472C6.44831 11.5079 5.80846 9.96273 5.80846 8.35157Z" fill="#0E293D"/>
</svg>
