<svg width="40" height="40" viewBox="0 0 40 40" fill="none" xmlns="http://www.w3.org/2000/svg">
<path d="M26.2815 19.7777C26.2815 21.0029 25.9182 22.2005 25.2375 23.2192C24.5569 24.2378 23.5894 25.0318 22.4576 25.5006C21.3257 25.9695 20.0802 26.0921 18.8786 25.8531C17.677 25.6141 16.5732 25.0241 15.7069 24.1578C14.8406 23.2915 14.2507 22.1878 14.0117 20.9862C13.7726 19.7846 13.8953 18.5391 14.3642 17.4072C14.833 16.2753 15.627 15.3079 16.6456 14.6273C17.6643 13.9466 18.8619 13.5833 20.0871 13.5833C21.7283 13.5884 23.301 14.2427 24.4615 15.4033C25.6221 16.5638 26.2764 18.1364 26.2815 19.7777ZM39.4446 11.2604V28.2951C39.4446 31.1701 38.3025 33.9273 36.2696 35.9603C34.2366 37.9932 31.4794 39.1353 28.6044 39.1353H11.5697C8.69472 39.1353 5.93746 37.9932 3.90452 35.9603C1.87158 33.9273 0.729492 31.1701 0.729492 28.2951V11.2604C0.729492 8.38539 1.87158 5.62814 3.90452 3.5952C5.93746 1.56226 8.69472 0.420166 11.5697 0.420166H28.6044C31.4794 0.420166 34.2366 1.56226 36.2696 3.5952C38.3025 5.62814 39.4446 8.38539 39.4446 11.2604ZM29.3787 19.7777C29.3787 17.94 28.8337 16.1436 27.8128 14.6156C26.7918 13.0876 25.3406 11.8966 23.6428 11.1934C21.945 10.4901 20.0767 10.3061 18.2743 10.6646C16.4719 11.0232 14.8163 11.9081 13.5169 13.2076C12.2174 14.507 11.3325 16.1626 10.974 17.965C10.6154 19.7674 10.7994 21.6357 11.5027 23.3335C12.206 25.0313 13.3969 26.4825 14.9249 27.5034C16.4529 28.5244 18.2493 29.0694 20.0871 29.0694C22.5513 29.0694 24.9147 28.0904 26.6572 26.3479C28.3997 24.6054 29.3787 22.242 29.3787 19.7777ZM32.4759 9.71179C32.4759 9.25237 32.3397 8.80326 32.0844 8.42126C31.8292 8.03926 31.4664 7.74152 31.0419 7.56571C30.6175 7.38989 30.1504 7.34389 29.6998 7.43352C29.2492 7.52315 28.8353 7.74439 28.5104 8.06925C28.1856 8.39412 27.9643 8.80802 27.8747 9.25862C27.7851 9.70922 27.8311 10.1763 28.0069 10.6007C28.1827 11.0252 28.4804 11.388 28.8624 11.6432C29.2444 11.8985 29.6936 12.0347 30.153 12.0347C30.7691 12.0347 31.3599 11.79 31.7955 11.3543C32.2312 10.9187 32.4759 10.3279 32.4759 9.71179Z" fill="#E0C9C9"/>
</svg>
